<svg viewBox="0 0 25 24"><g><path d="M8.081 6.007c0-.43.349-.779.779-.779h5.256a.779.779 0 010 1.558H8.86a.779.779 0 01-.779-.779zM8.86 7.732a.779.779 0 000 1.558h5.256a.779.779 0 100-1.558H8.86zM8.081 11.013c0-.43.349-.779.779-.779h5.256a.779.779 0 110 1.558H8.86a.779.779 0 01-.779-.779zM8.86 12.738a.779.779 0 100 1.558h2.701a.779.779 0 000-1.558H8.86z"/><path d="M4.673 1a.779.779 0 00-.778.779V19.3c0 .43.348.78.778.78h2.142v2.141c0 .43.348.779.779.779h13.628c.43 0 .778-.349.778-.779V4.792a.779.779 0 00-.778-.779H19.08V1.78A.779.779 0 0018.301 1H4.673zM19.08 5.57V7.8h1.363V5.57H19.08zm0 3.786v3.053h1.363V9.356H19.08zm0 4.61v3.054h1.363v-3.053H19.08zm0 4.611v.723c0 .43-.349.78-.779.78h-.632v1.363h2.774v-2.866H19.08zm-2.968 1.502H13.41v1.363h2.701V20.08zm-4.26 0h-3.48v1.363h3.48V20.08zm-6.4-1.557V2.557h12.07v15.965H5.453z"/></g></svg>