<svg viewBox="0 0 24 24"><g><path d="M11.833 1.139c.091-.185.241-.185.333 0l3.102 6.267c.092.185.334.36.54.39l6.937 1.005c.204.03.25.172.103.316l-5.02 4.878a.8.8 0 00-.206.632l1.185 6.888c.035.203-.086.291-.27.195l-6.204-3.252a.806.806 0 00-.667 0L5.461 21.71c-.183.096-.304.008-.269-.195l1.185-6.888a.8.8 0 00-.206-.632l-5.02-4.878c-.148-.144-.102-.286.103-.316l6.937-1.005a.804.804 0 00.54-.39l3.102-6.267zm2.437 7.636L12 4.188 9.728 8.775a.804.804 0 01-.54.39l-4.705.682c-.204.03-.25.172-.103.316l3.405 3.309a.8.8 0 01.206.632l-.804 4.671c-.035.204.087.292.27.196l4.208-2.206a.806.806 0 01.666 0l4.209 2.206c.183.096.304.008.27-.196l-.804-4.671a.8.8 0 01.206-.632l3.404-3.309c.149-.144.102-.286-.102-.316l-4.706-.681a.804.804 0 01-.539-.39z"/><path d="M6.567 6.568l.141-.435c.086-.263.457-.532.735-.532h.562l.94-1.898H7.443c-1.109 0-2.203.793-2.545 1.843l-.432 1.326 2.1-.304zM4.668 15.999l-.498-.36c-.224-.163-.366-.597-.28-.86l.242-.742-1.52-1.478-.533 1.633c-.342 1.05.076 2.333.972 2.982l1.258.911.359-2.086zM19.87 14.037l1.52-1.478.532 1.633c.343 1.05-.075 2.333-.972 2.982l-1.257.911-.359-2.086.497-.36c.225-.163.367-.597.28-.86l-.241-.742zM12.454 20.98l.659-.477 1.88.985-1.42 1.028c-.43.312-.99.484-1.573.484s-1.142-.172-1.573-.484L9.01 21.488l1.879-.985.659.477a.806.806 0 00.453.122c.18 0 .35-.046.454-.122zM15.995 5.601h.563c.278 0 .648.269.734.532l.142.435 2.101.304-.432-1.326c-.342-1.05-1.437-1.843-2.545-1.843h-1.502l.94 1.898z"/></g></svg>