<svg viewBox="0 0 24 24"><path d="M12 22.682c-.643 0-1.258-.192-1.733-.54L2.202 16.24c-.988-.723-1.448-2.15-1.07-3.32l3.08-9.551c.377-1.17 1.583-2.053 2.804-2.053h9.968c1.221 0 2.427.883 2.804 2.053l3.08 9.55c.378 1.17-.082 2.598-1.07 3.321l-8.065 5.903c-.475.347-1.09.539-1.733.539zM7.016 3.465c-.288 0-.687.292-.776.568l-3.08 9.55c-.089.276.063.748.296.919l8.065 5.902c.108.08.292.129.479.129s.37-.05.48-.129l8.064-5.902c.233-.17.385-.643.296-.919l-3.08-9.55c-.09-.276-.488-.568-.776-.568H7.016z"/></svg>