<svg viewBox="0 0 24 24"><g><path d="M4.751 14.937l-.492-.356c-.223-.162-.363-.591-.278-.852l.24-.734-1.508-1.463-.527 1.616c-.34 1.04.075 2.31.963 2.953l1.246.902.356-2.066zM13.122 19.399l-.653.472a.8.8 0 01-.45.12.8.8 0 01-.45-.12l-.652-.472-1.863.975 1.406 1.017c.428.31.981.48 1.56.48.578 0 1.131-.17 1.559-.48l1.406-1.017-1.863-.975zM6.633 5.602l.14-.43c.086-.261.453-.527.728-.527h.558l.931-1.88H7.501c-1.098 0-2.183.785-2.522 1.826L4.55 5.904l2.083-.302z"/><path d="M17.787 14.713l-.34-.339c-.392.1-.79.17-1.195.207l.599 3.474-4.832-2.53-4.831 2.53.922-5.357-3.908-3.795 3.788-.548a7.683 7.683 0 01-.13-1.408l.002-.072L1 7.867l5.51 5.349-1.301 7.551 6.81-3.565 6.81 3.565-1.042-6.054z"/><path d="M19.646 9.507c.473-.75.753-1.617.753-2.56A4.822 4.822 0 0015.56 2.13a4.823 4.823 0 00-4.839 4.818 4.82 4.82 0 007.398 4.07l3.355 3.34L23 12.837l-3.355-3.33zm-4.086.117a2.684 2.684 0 01-2.688-2.677 2.684 2.684 0 012.688-2.676c1.484 0 2.688 1.199 2.688 2.676a2.684 2.684 0 01-2.688 2.677z"/></g></svg>