<svg viewBox="0 0 24 24"><g><path d="M16.05 2.65l-3.9 3.9 1.3 1.3L18 3.3v-.65h-1.95zM11.5 8.825a.325.325 0 110-.65.325.325 0 010 .65zM7.6 13.7a1.3 1.3 0 110-2.6 1.3 1.3 0 010 2.6zm0-7.8a1.3 1.3 0 110-2.6 1.3 1.3 0 010 2.6zm2.366-.234c.15-.325.234-.683.234-1.066a2.6 2.6 0 10-2.6 2.6c.384 0 .741-.085 1.066-.234L10.2 8.5l-1.534 1.534A2.533 2.533 0 007.6 9.8a2.6 2.6 0 102.6 2.6c0-.383-.084-.741-.234-1.066L11.5 9.8l4.55 4.55H18v-.65L9.966 5.666zM4.469 21.697C4.94 21.892 5.458 22 6 22h1.5v-1.5H6c-.342 0-.664-.068-.957-.19l-.574 1.387zM16.5 22H18c.542 0 1.06-.108 1.531-.303l-.574-1.386c-.293.121-.615.189-.957.189h-1.5V22zM22 13.5V12c0-.542-.108-1.06-.303-1.531l-1.386.574c.121.293.189.615.189.957v1.5H22z"/><path d="M6 8h1.5v1.5H6c-.342 0-.664.068-.957.19L4.47 8.303A3.988 3.988 0 016 8zM2 16.5V18c0 .542.108 1.06.304 1.531l1.385-.574A2.488 2.488 0 013.5 18v-1.5H2zM2 13.5V12c0-.542.108-1.06.304-1.531l1.385.574c-.121.293-.189.615-.189.957v1.5H2zM16.5 8H18c.542 0 1.06.108 1.531.304l-.574 1.385A2.488 2.488 0 0018 9.5h-1.5V8zM22 16.5V18c0 .542-.108 1.06-.303 1.531l-1.386-.574c.121-.293.189-.615.189-.957v-1.5H22zM13.5 22h-3v-1.5h3V22z"/></g></svg>