<svg viewBox="0 0 24 24"><g><path d="M14.424 13.473c-.08-.6-.62-1.02-1.206-.939l-5.057.702a1.092 1.092 0 00-.918 1.234 1.078 1.078 0 001.206.939l5.057-.702c.586-.081.997-.634.918-1.234zM8.188 12.1a1.04 1.04 0 00.087-.01l5.057-.701c.587-.081.998-.634.918-1.234-.08-.6-.62-1.02-1.206-.939l-5.057.702a1.092 1.092 0 00-.917 1.234c.075.57.566.978 1.118.947zM6.873 22.995zM5.812 4.741l.098-.014h-.004a.53.53 0 00-.094.014zM6.72 20.807a.67.67 0 00.071-.003l.008-.001a.552.552 0 00.03-.005h.004a.706.706 0 00.075-.02l-.203.029h.016zM6.758 20.807zM6.756 20.806z"/><path d="M19.381 15.32a1.058 1.058 0 00-.043-.033l-.01-.007a1.052 1.052 0 00-.755-.186L7.477 16.628c-.437.06-.818.37-.922.808a1.204 1.204 0 00-.023.122c-.052.392.093.772.413 1.008l.022.022a.283.283 0 01.007.008c.099.11.347.438.44 1.027.012.071.02.146.027.225.002.026.005.053.006.08.001.017.003.034.003.052l-.001.016a1.118 1.118 0 01-.004.083l-.001.018-.004.032c0 .005 0 .01-.002.015a1.006 1.006 0 01-.007.04l-.001.004a.906.906 0 01-.01.042l-.003.014-.007.027-.006.016a1.154 1.154 0 01-.007.023l-.006.017-.01.021a.522.522 0 01-.007.017l-.01.023-.01.019-.013.025-.01.015-.01.017a.588.588 0 01-.02.03l-.01.015a.549.549 0 01-.01.013l-.013.015-.009.01a.701.701 0 01-.035.039l-.017.016-.007.007-.017.016-.007.006a.723.723 0 01-.142.095l-.002.001c-.008.004-.016.01-.024.013a.741.741 0 01-.175.057l-.005.001-.03.003-.007.003a.556.556 0 01-.033.003v-.001l-.037.001h-.016l-.006-.001a.457.457 0 01-.06-.007l-.01-.002-.02-.005-.018-.005-.017-.006a.427.427 0 01-.02-.008l-.014-.006a.362.362 0 01-.02-.01l-.011-.008a.409.409 0 01-.024-.016l-.007-.004a.362.362 0 01-.03-.025c-.129-.126-.21-.378-.227-.708L5.459 5.592c-.018-.33.036-.59.152-.729l.023-.025.009-.008.019-.016.01-.009a.331.331 0 01.027-.018l.009-.005a.41.41 0 01.022-.012l.015-.005.02-.009.015-.006a.53.53 0 01.126-.023h.061a.77.77 0 01.028.002h.002l.027.004h.002l.029.004.003.001.026.005.005.001.026.008.005.001.026.008.006.002.025.009c.003 0 .006.002.008.003l.024.009.008.003.023.01.009.006.022.01.01.006.02.011.012.008.02.012.011.009.018.011.013.01.017.012.013.011.015.014.013.013.014.013.013.014.014.014.014.016L6.5 5l.013.018.01.014.015.02.01.014.012.021.01.016a.685.685 0 01.011.02l.009.017.01.024.008.016.01.025.007.017.01.027.006.018.008.028.005.018.007.031.004.019.006.032a.974.974 0 01.003.02l.004.036.002.017.005.055a2.827 2.827 0 01-.002.343l-.002.035a2.684 2.684 0 01-.085.48h-.002a1.608 1.608 0 01-.266.552c-.1.092-.177.2-.233.315a1.1 1.1 0 00-.019.892l.016.04a1.073 1.073 0 001.142.611l8.08-1.117.414 7.805-7.542 1.043 9.672-1.338-.413-7.805.885-.122a1.06 1.06 0 00.608-.305c.112-.112 1.085-1.15.983-3.081-.046-.863-.41-1.632-1.023-2.167a2.854 2.854 0 00-2.207-.683v-.004L5.68 2.548c-.042.003-.084.008-.125.014h-.002l-.06.01h-.002l-.06.011H5.43l-.06.013h-.002a2.513 2.513 0 00-.632.23l-.002.002a2.48 2.48 0 00-.046.025l-.01.005a2.377 2.377 0 00-.041.023l-.013.008-.037.024a6.23 6.23 0 00-.016.01l-.036.022-.018.012a2.85 2.85 0 00-.033.022c-.006.005-.012.01-.019.013l-.032.023-.019.015-.03.023-.02.015-.028.023c-.007.005-.016.011-.022.017l-.028.023-.02.018-.028.023-.02.019-.026.024-.02.02-.025.025-.022.021-.023.023c-.008.007-.015.016-.022.024l-.022.023-.022.024-.02.024-.026.03-.016.019c-.332.402-.716 1.121-.655 2.263l.763 14.404c.06 1.142.517 1.814.89 2.177a2.496 2.496 0 001.902.703c.033-.001.065-.004.098-.008l.016-.001c.034-.004.068-.007.101-.012h.002a2.7 2.7 0 00.213-.038l10.78-1.484a2.877 2.877 0 001.811-.91c.554-.6.834-1.405.788-2.267-.102-1.931-1.18-2.856-1.302-2.955zM14.428 3.545l2.55-.35a.635.635 0 01.024-.002c.284-.015.747.187.779.797.029.544-.093.929-.204 1.16L8.786 6.365A5.03 5.03 0 008.82 5.33l-.003-.025c0-.016-.002-.033-.004-.05l-.003-.03-.006-.043A3.596 3.596 0 008.8 5.15l-.005-.043-.004-.033a2.878 2.878 0 00-.007-.04l-.005-.033-.007-.038a3.352 3.352 0 00-.016-.078l-.005-.023-.01-.043-.006-.026-.012-.046-.005-.022a2.954 2.954 0 00-.013-.046l-.006-.022-.014-.048-.006-.016-.015-.052-.003-.002a3.085 3.085 0 00-.067-.182v-.002l5.834-.81zm3.91 15.49a.736.736 0 01-.484.237l-.036.004-8.253 1.136a3.133 3.133 0 00.02-.222l.001-.005.004-.07v-.012l.001-.062v-.023-.054-.037-.04l-.003-.078a4.786 4.786 0 00-.22-1.23l.616-.086 8.284-1.144c.122.223.25.566.276 1.045.014.263-.055.479-.205.641z"/></g></svg>