<svg viewBox="0 0 24 24"><path d="M13.376 18.875h-11A1.38 1.38 0 001 20.25c0 .756.62 1.375 1.375 1.375h11a1.38 1.38 0 001.375-1.375c0-.756-.619-1.375-1.374-1.375zm8.249-11H2.375A1.38 1.38 0 001 9.25c0 .756.62 1.375 1.375 1.375h19.25A1.38 1.38 0 0023 9.25a1.38 1.38 0 00-1.375-1.375zm-19.25 8.25h19.25A1.38 1.38 0 0023 14.75a1.38 1.38 0 00-1.375-1.375H2.375A1.38 1.38 0 001 14.75c0 .756.62 1.375 1.375 1.375zM1 3.75c0 .756.62 1.375 1.375 1.375h19.25A1.38 1.38 0 0023 3.75a1.38 1.38 0 00-1.375-1.375H2.375A1.38 1.38 0 001 3.75z"/></svg>