<svg viewBox="0 0 24 24"><path d="M12 4.739l2.287 4.643c.09.183.328.356.53.385l4.749.691c.2.03.246.17.1.312l-3.436 3.356a.791.791 0 00-.202.623l.811 4.74c.035.2-.084.286-.264.192l-4.248-2.238a.788.788 0 00-.654 0l-4.248 2.238c-.18.094-.299.008-.264-.193l.811-4.74a.791.791 0 00-.202-.622L4.333 10.77c-.145-.142-.1-.282.101-.312l4.75-.691c.2-.03.439-.202.529-.385L12 4.74zm.163-3.09c-.09-.183-.237-.183-.326 0l-1.029 2.088-.327.663L8.71 7.998a.789.789 0 01-.529.385l-3.963.577-.73.106-2.3.335c-.202.03-.247.17-.102.311l1.665 1.626.528.516 2.868 2.8a.791.791 0 01.202.624l-.677 3.954-.125.73-.393 2.294c-.034.2.085.288.265.193l2.057-1.084.653-.344 3.545-1.867a.787.787 0 01.654 0l3.544 1.867.654.344 2.057 1.084c.18.095.3.008.265-.193l-.393-2.295-.125-.729-.677-3.954a.79.79 0 01.202-.623l2.868-2.8.528-.517 1.665-1.626c.145-.142.1-.282-.101-.31l-2.3-.336-.73-.106-3.964-.577a.789.789 0 01-.529-.385L13.52 4.4l-.327-.663-1.029-2.088z"/></svg>