<svg><defs>
<svg id="outlined-gv-value" viewBox="0 0 24 24"><path d="M12 2c-.5 0-1 .19-1.41.59l-8 8c-.79.78-.79 2.04 0 2.82l8 8c.78.79 2.04.79 2.82 0l8-8c.79-.78.79-2.04 0-2.82l-8-8C13 2.19 12.5 2 12 2zm0 2l8 8-8 8-8-8 8-8z"/></svg>
<svg id="outlined-gv-section" viewBox="0 0 24 24"><path d="M20 18H4V8h16v10zm0-12h-8l-2-2H4c-1.11 0-2 .89-2 2v12a2 2 0 002 2h16a2 2 0 002-2V8a2 2 0 00-2-2z"/></svg>
<svg id="outlined-gv-entities" viewBox="0 0 24 24"><g><path d="M11.833 1.139c.091-.185.241-.185.333 0l3.102 6.267c.092.185.334.36.54.39l6.937 1.005c.204.03.25.172.103.316l-5.02 4.878a.8.8 0 00-.206.632l1.185 6.888c.035.203-.086.291-.27.195l-6.204-3.252a.806.806 0 00-.667 0L5.461 21.71c-.183.096-.304.008-.269-.195l1.185-6.888a.8.8 0 00-.206-.632l-5.02-4.878c-.148-.144-.102-.286.103-.316l6.937-1.005a.804.804 0 00.54-.39l3.102-6.267zm2.437 7.636L12 4.188 9.728 8.775a.804.804 0 01-.54.39l-4.705.682c-.204.03-.25.172-.103.316l3.405 3.309a.8.8 0 01.206.632l-.804 4.671c-.035.204.087.292.27.196l4.208-2.206a.806.806 0 01.666 0l4.209 2.206c.183.096.304.008.27-.196l-.804-4.671a.8.8 0 01.206-.632l3.404-3.309c.149-.144.102-.286-.102-.316l-4.706-.681a.804.804 0 01-.539-.39z"/><path d="M6.567 6.568l.141-.435c.086-.263.457-.532.735-.532h.562l.94-1.898H7.443c-1.109 0-2.203.793-2.545 1.843l-.432 1.326 2.1-.304zM4.668 15.999l-.498-.36c-.224-.163-.366-.597-.28-.86l.242-.742-1.52-1.478-.533 1.633c-.342 1.05.076 2.333.972 2.982l1.258.911.359-2.086zM19.87 14.037l1.52-1.478.532 1.633c.343 1.05-.075 2.333-.972 2.982l-1.257.911-.359-2.086.497-.36c.225-.163.367-.597.28-.86l-.241-.742zM12.454 20.98l.659-.477 1.88.985-1.42 1.028c-.43.312-.99.484-1.573.484s-1.142-.172-1.573-.484L9.01 21.488l1.879-.985.659.477a.806.806 0 00.453.122c.18 0 .35-.046.454-.122zM15.995 5.601h.563c.278 0 .648.269.734.532l.142.435 2.101.304-.432-1.326c-.342-1.05-1.437-1.843-2.545-1.843h-1.502l.94 1.898z"/></g></svg>
<svg id="outlined-gv-persistent-item" viewBox="0 0 24 24"><path d="M12 22.682c-.643 0-1.258-.192-1.733-.54L2.202 16.24c-.988-.723-1.448-2.15-1.07-3.32l3.08-9.551c.377-1.17 1.583-2.053 2.804-2.053h9.968c1.221 0 2.427.883 2.804 2.053l3.08 9.55c.378 1.17-.082 2.598-1.07 3.321l-8.065 5.903c-.475.347-1.09.539-1.733.539zM7.016 3.465c-.288 0-.687.292-.776.568l-3.08 9.55c-.089.276.063.748.296.919l8.065 5.902c.108.08.292.129.479.129s.37-.05.48-.129l8.064-5.902c.233-.17.385-.643.296-.919l-3.08-9.55c-.09-.276-.488-.568-.776-.568H7.016z"/></svg>
<svg id="outlined-gv-text" viewBox="0 0 24 24"><path d="M6 2a2 2 0 00-2 2v16a2 2 0 002 2h12a2 2 0 002-2V8l-6-6H6zm0 2h7v5h5v11H6V4zm2 8v2h8v-2H8zm0 4v2h5v-2H8z"/></svg>
<svg id="outlined-gv-story" viewBox="0 0 24 24"><path d="M13.376 18.875h-11A1.38 1.38 0 001 20.25c0 .756.62 1.375 1.375 1.375h11a1.38 1.38 0 001.375-1.375c0-.756-.619-1.375-1.374-1.375zm8.249-11H2.375A1.38 1.38 0 001 9.25c0 .756.62 1.375 1.375 1.375h19.25A1.38 1.38 0 0023 9.25a1.38 1.38 0 00-1.375-1.375zm-19.25 8.25h19.25A1.38 1.38 0 0023 14.75a1.38 1.38 0 00-1.375-1.375H2.375A1.38 1.38 0 001 14.75c0 .756.62 1.375 1.375 1.375zM1 3.75c0 .756.62 1.375 1.375 1.375h19.25A1.38 1.38 0 0023 3.75a1.38 1.38 0 00-1.375-1.375H2.375A1.38 1.38 0 001 3.75z"/></svg>
<svg id="outlined-gv-table" viewBox="0 0 24 24"><path d="M14 2H6a2 2 0 00-2 2v16a2 2 0 002 2h12a2 2 0 002-2V8l-6-6zm4 18H6V4h7v5h5v11zm-8-7H7v-2h3v2zm4 0h-3v-2h3v2zm-4 3H7v-2h3v2zm4 0h-3v-2h3v2zm-4 3H7v-2h3v2zm4 0h-3v-2h3v2z"/></svg>
<svg id="outlined-gv-temporal-entity" viewBox="0 0 24 24"><path d="M12 4.739l2.287 4.643c.09.183.328.356.53.385l4.749.691c.2.03.246.17.1.312l-3.436 3.356a.791.791 0 00-.202.623l.811 4.74c.035.2-.084.286-.264.192l-4.248-2.238a.788.788 0 00-.654 0l-4.248 2.238c-.18.094-.299.008-.264-.193l.811-4.74a.791.791 0 00-.202-.622L4.333 10.77c-.145-.142-.1-.282.101-.312l4.75-.691c.2-.03.439-.202.529-.385L12 4.74zm.163-3.09c-.09-.183-.237-.183-.326 0l-1.029 2.088-.327.663L8.71 7.998a.789.789 0 01-.529.385l-3.963.577-.73.106-2.3.335c-.202.03-.247.17-.102.311l1.665 1.626.528.516 2.868 2.8a.791.791 0 01.202.624l-.677 3.954-.125.73-.393 2.294c-.034.2.085.288.265.193l2.057-1.084.653-.344 3.545-1.867a.787.787 0 01.654 0l3.544 1.867.654.344 2.057 1.084c.18.095.3.008.265-.193l-.393-2.295-.125-.729-.677-3.954a.79.79 0 01.202-.623l2.868-2.8.528-.517 1.665-1.626c.145-.142.1-.282-.101-.31l-2.3-.336-.73-.106-3.964-.577a.789.789 0 01-.529-.385L13.52 4.4l-.327-.663-1.029-2.088z"/></svg>
<svg id="outlined-gv-query" viewBox="0 0 24 24"><g><path d="M4.751 14.937l-.492-.356c-.223-.162-.363-.591-.278-.852l.24-.734-1.508-1.463-.527 1.616c-.34 1.04.075 2.31.963 2.953l1.246.902.356-2.066zM13.122 19.399l-.653.472a.8.8 0 01-.45.12.8.8 0 01-.45-.12l-.652-.472-1.863.975 1.406 1.017c.428.31.981.48 1.56.48.578 0 1.131-.17 1.559-.48l1.406-1.017-1.863-.975zM6.633 5.602l.14-.43c.086-.261.453-.527.728-.527h.558l.931-1.88H7.501c-1.098 0-2.183.785-2.522 1.826L4.55 5.904l2.083-.302z"/><path d="M17.787 14.713l-.34-.339c-.392.1-.79.17-1.195.207l.599 3.474-4.832-2.53-4.831 2.53.922-5.357-3.908-3.795 3.788-.548a7.683 7.683 0 01-.13-1.408l.002-.072L1 7.867l5.51 5.349-1.301 7.551 6.81-3.565 6.81 3.565-1.042-6.054z"/><path d="M19.646 9.507c.473-.75.753-1.617.753-2.56A4.822 4.822 0 0015.56 2.13a4.823 4.823 0 00-4.839 4.818 4.82 4.82 0 007.398 4.07l3.355 3.34L23 12.837l-3.355-3.33zm-4.086.117a2.684 2.684 0 01-2.688-2.677 2.684 2.684 0 012.688-2.676c1.484 0 2.688 1.199 2.688 2.676a2.684 2.684 0 01-2.688 2.677z"/></g></svg>
<svg id="outlined-gv-source" viewBox="0 0 24 24"><g><path d="M14.424 13.473c-.08-.6-.62-1.02-1.206-.939l-5.057.702a1.092 1.092 0 00-.918 1.234 1.078 1.078 0 001.206.939l5.057-.702c.586-.081.997-.634.918-1.234zM8.188 12.1a1.04 1.04 0 00.087-.01l5.057-.701c.587-.081.998-.634.918-1.234-.08-.6-.62-1.02-1.206-.939l-5.057.702a1.092 1.092 0 00-.917 1.234c.075.57.566.978 1.118.947zM6.873 22.995zM5.812 4.741l.098-.014h-.004a.53.53 0 00-.094.014zM6.72 20.807a.67.67 0 00.071-.003l.008-.001a.552.552 0 00.03-.005h.004a.706.706 0 00.075-.02l-.203.029h.016zM6.758 20.807zM6.756 20.806z"/><path d="M19.381 15.32a1.058 1.058 0 00-.043-.033l-.01-.007a1.052 1.052 0 00-.755-.186L7.477 16.628c-.437.06-.818.37-.922.808a1.204 1.204 0 00-.023.122c-.052.392.093.772.413 1.008l.022.022a.283.283 0 01.007.008c.099.11.347.438.44 1.027.012.071.02.146.027.225.002.026.005.053.006.08.001.017.003.034.003.052l-.001.016a1.118 1.118 0 01-.004.083l-.001.018-.004.032c0 .005 0 .01-.002.015a1.006 1.006 0 01-.007.04l-.001.004a.906.906 0 01-.01.042l-.003.014-.007.027-.006.016a1.154 1.154 0 01-.007.023l-.006.017-.01.021a.522.522 0 01-.007.017l-.01.023-.01.019-.013.025-.01.015-.01.017a.588.588 0 01-.02.03l-.01.015a.549.549 0 01-.01.013l-.013.015-.009.01a.701.701 0 01-.035.039l-.017.016-.007.007-.017.016-.007.006a.723.723 0 01-.142.095l-.002.001c-.008.004-.016.01-.024.013a.741.741 0 01-.175.057l-.005.001-.03.003-.007.003a.556.556 0 01-.033.003v-.001l-.037.001h-.016l-.006-.001a.457.457 0 01-.06-.007l-.01-.002-.02-.005-.018-.005-.017-.006a.427.427 0 01-.02-.008l-.014-.006a.362.362 0 01-.02-.01l-.011-.008a.409.409 0 01-.024-.016l-.007-.004a.362.362 0 01-.03-.025c-.129-.126-.21-.378-.227-.708L5.459 5.592c-.018-.33.036-.59.152-.729l.023-.025.009-.008.019-.016.01-.009a.331.331 0 01.027-.018l.009-.005a.41.41 0 01.022-.012l.015-.005.02-.009.015-.006a.53.53 0 01.126-.023h.061a.77.77 0 01.028.002h.002l.027.004h.002l.029.004.003.001.026.005.005.001.026.008.005.001.026.008.006.002.025.009c.003 0 .006.002.008.003l.024.009.008.003.023.01.009.006.022.01.01.006.02.011.012.008.02.012.011.009.018.011.013.01.017.012.013.011.015.014.013.013.014.013.013.014.014.014.014.016L6.5 5l.013.018.01.014.015.02.01.014.012.021.01.016a.685.685 0 01.011.02l.009.017.01.024.008.016.01.025.007.017.01.027.006.018.008.028.005.018.007.031.004.019.006.032a.974.974 0 01.003.02l.004.036.002.017.005.055a2.827 2.827 0 01-.002.343l-.002.035a2.684 2.684 0 01-.085.48h-.002a1.608 1.608 0 01-.266.552c-.1.092-.177.2-.233.315a1.1 1.1 0 00-.019.892l.016.04a1.073 1.073 0 001.142.611l8.08-1.117.414 7.805-7.542 1.043 9.672-1.338-.413-7.805.885-.122a1.06 1.06 0 00.608-.305c.112-.112 1.085-1.15.983-3.081-.046-.863-.41-1.632-1.023-2.167a2.854 2.854 0 00-2.207-.683v-.004L5.68 2.548c-.042.003-.084.008-.125.014h-.002l-.06.01h-.002l-.06.011H5.43l-.06.013h-.002a2.513 2.513 0 00-.632.23l-.002.002a2.48 2.48 0 00-.046.025l-.01.005a2.377 2.377 0 00-.041.023l-.013.008-.037.024a6.23 6.23 0 00-.016.01l-.036.022-.018.012a2.85 2.85 0 00-.033.022c-.006.005-.012.01-.019.013l-.032.023-.019.015-.03.023-.02.015-.028.023c-.007.005-.016.011-.022.017l-.028.023-.02.018-.028.023-.02.019-.026.024-.02.02-.025.025-.022.021-.023.023c-.008.007-.015.016-.022.024l-.022.023-.022.024-.02.024-.026.03-.016.019c-.332.402-.716 1.121-.655 2.263l.763 14.404c.06 1.142.517 1.814.89 2.177a2.496 2.496 0 001.902.703c.033-.001.065-.004.098-.008l.016-.001c.034-.004.068-.007.101-.012h.002a2.7 2.7 0 00.213-.038l10.78-1.484a2.877 2.877 0 001.811-.91c.554-.6.834-1.405.788-2.267-.102-1.931-1.18-2.856-1.302-2.955zM14.428 3.545l2.55-.35a.635.635 0 01.024-.002c.284-.015.747.187.779.797.029.544-.093.929-.204 1.16L8.786 6.365A5.03 5.03 0 008.82 5.33l-.003-.025c0-.016-.002-.033-.004-.05l-.003-.03-.006-.043A3.596 3.596 0 008.8 5.15l-.005-.043-.004-.033a2.878 2.878 0 00-.007-.04l-.005-.033-.007-.038a3.352 3.352 0 00-.016-.078l-.005-.023-.01-.043-.006-.026-.012-.046-.005-.022a2.954 2.954 0 00-.013-.046l-.006-.022-.014-.048-.006-.016-.015-.052-.003-.002a3.085 3.085 0 00-.067-.182v-.002l5.834-.81zm3.91 15.49a.736.736 0 01-.484.237l-.036.004-8.253 1.136a3.133 3.133 0 00.02-.222l.001-.005.004-.07v-.012l.001-.062v-.023-.054-.037-.04l-.003-.078a4.786 4.786 0 00-.22-1.23l.616-.086 8.284-1.144c.122.223.25.566.276 1.045.014.263-.055.479-.205.641z"/></g></svg>
<svg id="outlined-gv-analysis" viewBox="0 0 24 24"><path d="M22.954 7.6c0-3.645-2.942-6.6-6.572-6.6S9.809 3.955 9.809 7.6c0 1.022.231 1.99.644 2.853l-2.16 1.519A4.352 4.352 0 005.429 10.9c-2.42 0-4.381 1.97-4.381 4.4 0 2.43 1.962 4.4 4.381 4.4 2.42 0 4.38-1.97 4.38-4.4 0-.551-.1-1.079-.285-1.565l2.161-1.52a6.553 6.553 0 003.353 1.846l-.151 3.609a2.75 2.75 0 00-1.79 2.58A2.744 2.744 0 0015.834 23a2.744 2.744 0 002.739-2.75c0-1.09-.631-2.03-1.546-2.476l.152-3.623c3.254-.395 5.775-3.177 5.775-6.551z"/></svg>
<svg id="outlined-gv-digitals" viewBox="0 0 25 24"><g><path d="M8.081 6.007c0-.43.349-.779.779-.779h5.256a.779.779 0 010 1.558H8.86a.779.779 0 01-.779-.779zM8.86 7.732a.779.779 0 000 1.558h5.256a.779.779 0 100-1.558H8.86zM8.081 11.013c0-.43.349-.779.779-.779h5.256a.779.779 0 110 1.558H8.86a.779.779 0 01-.779-.779zM8.86 12.738a.779.779 0 100 1.558h2.701a.779.779 0 000-1.558H8.86z"/><path d="M4.673 1a.779.779 0 00-.778.779V19.3c0 .43.348.78.778.78h2.142v2.141c0 .43.348.779.779.779h13.628c.43 0 .778-.349.778-.779V4.792a.779.779 0 00-.778-.779H19.08V1.78A.779.779 0 0018.301 1H4.673zM19.08 5.57V7.8h1.363V5.57H19.08zm0 3.786v3.053h1.363V9.356H19.08zm0 4.61v3.054h1.363v-3.053H19.08zm0 4.611v.723c0 .43-.349.78-.779.78h-.632v1.363h2.774v-2.866H19.08zm-2.968 1.502H13.41v1.363h2.701V20.08zm-4.26 0h-3.48v1.363h3.48V20.08zm-6.4-1.557V2.557h12.07v15.965H5.453z"/></g></svg>
<svg id="filled-gv-value" viewBox="0 0 24 24"><path d="M12 2c-.5 0-1 .19-1.41.59l-8 8c-.79.78-.79 2.04 0 2.82l8 8c.78.79 2.04.79 2.82 0l8-8c.79-.78.79-2.04 0-2.82l-8-8C13 2.19 12.5 2 12 2z"/></svg>
<svg id="filled-gv-section" viewBox="0 0 24 24"><path d="M10 4H4c-1.11 0-2 .89-2 2v12a2 2 0 002 2h16a2 2 0 002-2V8a2 2 0 00-2-2h-8l-2-2z"/></svg>
<svg id="filled-gv-persistent-item" viewBox="0 0 24 24"><path d="M12 22.682c-.643 0-1.258-.192-1.733-.54L2.202 16.24c-.988-.723-1.448-2.15-1.07-3.32l3.08-9.551c.377-1.17 1.583-2.053 2.804-2.053h9.968c1.221 0 2.427.883 2.804 2.053l3.08 9.55c.378 1.17-.082 2.598-1.07 3.321l-8.065 5.903c-.475.347-1.09.539-1.733.539z"/></svg>
<svg id="filled-gv-text" viewBox="0 0 24 24"><path d="M13 9h5.5L13 3.5V9zM6 2h8l6 6v12a2 2 0 01-2 2H6a2 2 0 01-2-2V4c0-1.11.89-2 2-2zm9 16v-2H6v2h9zm3-4v-2H6v2h12z"/></svg>
<svg id="filled-gv-table" viewBox="0 0 24 24"><path d="M14 2H6a2 2 0 00-2 2v16a2 2 0 002 2h12a2 2 0 002-2V8l-6-6zm-4 17H7v-2h3v2zm0-3H7v-2h3v2zm0-3H7v-2h3v2zm4 6h-3v-2h3v2zm0-3h-3v-2h3v2zm0-3h-3v-2h3v2zm-1-4V3.5L18.5 9H13z"/></svg>
<svg id="filled-gv-temporal-entity" viewBox="0 0 24 24"><path d="M11.837 1.649c.09-.183.236-.183.326 0l1.029 2.088.327.663 1.772 3.598c.09.182.328.356.529.385l3.963.577.73.106 2.3.335c.202.03.247.17.102.311l-1.665 1.626-.528.516-2.868 2.8a.79.79 0 00-.202.624l.677 3.954.125.73.393 2.294c.034.2-.085.288-.265.193l-2.057-1.084-.653-.344-3.545-1.867a.787.787 0 00-.654 0L8.128 21.02l-.653.344-2.057 1.084c-.18.095-.3.008-.265-.193l.393-2.295.125-.729.677-3.954a.791.791 0 00-.202-.623l-2.868-2.8-.528-.517-1.665-1.626c-.145-.142-.1-.282.101-.31l2.3-.336.73-.106 3.964-.577c.201-.03.439-.203.529-.385L10.48 4.4l.327-.663 1.029-2.088z"/></svg>
</defs></svg>
