<?xml version="1.0" standalone="no"?>
<!DOCTYPE svg PUBLIC "-//W3C//DTD SVG 20010904//EN"
 "http://www.w3.org/TR/2001/REC-SVG-20010904/DTD/svg10.dtd">
<svg version="1.0" xmlns="http://www.w3.org/2000/svg"
 width="667.000000pt" height="667.000000pt" viewBox="0 0 667.000000 667.000000"
 preserveAspectRatio="xMidYMid meet">
<metadata>
Created by potrace 1.11, written by Peter Selinger 2001-2013
</metadata>
<g transform="translate(0.000000,667.000000) scale(0.100000,-0.100000)"
fill="#000000" stroke="none">
<path d="M3143 6360 c-115 -26 -195 -62 -399 -180 -99 -57 -247 -143 -331
-192 -159 -92 -161 -93 -313 -180 -52 -30 -140 -81 -195 -113 -55 -32 -118
-68 -140 -81 -279 -157 -799 -464 -843 -498 -64 -49 -141 -130 -188 -197 -72
-102 -136 -269 -150 -394 -4 -33 -7 -577 -6 -1210 0 -1041 2 -1158 17 -1230
60 -284 222 -489 510 -645 33 -18 80 -45 105 -60 36 -22 403 -234 550 -318 19
-10 76 -43 125 -72 50 -29 106 -62 125 -73 19 -10 109 -62 200 -115 91 -52
221 -128 290 -167 69 -40 195 -112 280 -162 174 -100 253 -135 355 -159 82
-18 238 -25 310 -14 191 31 215 42 565 245 102 60 194 113 205 119 49 28 249
143 273 157 37 22 477 276 527 304 22 13 81 46 130 75 50 29 106 61 125 72
430 243 535 317 634 447 66 87 132 216 151 296 1 6 5 21 8 35 4 14 10 39 14
55 3 17 8 559 9 1205 3 1290 4 1262 -57 1420 -64 166 -182 319 -320 412 -47
32 -223 136 -344 204 -22 12 -80 45 -130 74 -200 117 -286 167 -665 384 -217
125 -435 252 -485 281 -102 59 -283 163 -335 192 -50 28 -135 60 -210 79 -97
25 -293 27 -397 4z m1295 -1704 c187 -104 179 -353 -13 -442 l-50 -24 -750 0
c-412 0 -766 -4 -785 -9 -101 -23 -194 -104 -231 -199 -20 -52 -22 -75 -22
-257 0 -182 5 -297 17 -365 3 -14 7 -41 10 -60 3 -19 8 -46 11 -60 3 -14 7
-35 9 -48 3 -13 13 -49 22 -80 10 -31 18 -59 19 -62 15 -70 107 -273 174 -388
64 -110 178 -256 279 -358 191 -194 210 -195 385 -25 201 195 373 465 461 724
27 79 27 116 0 138 -10 8 -96 12 -281 13 -251 2 -271 3 -316 24 -55 24 -112
81 -133 132 -22 52 -20 137 3 191 25 57 63 94 128 125 l50 24 476 0 c462 -1
477 -1 518 -22 114 -56 162 -159 140 -300 -5 -29 -11 -69 -14 -88 -12 -72 -16
-92 -46 -207 -145 -565 -487 -1053 -959 -1370 -100 -67 -127 -80 -180 -86 -68
-7 -127 13 -215 72 -256 171 -487 403 -663 666 -61 92 -175 305 -214 400 -61
149 -117 346 -142 500 -8 50 -18 106 -22 125 -3 19 -8 166 -10 325 -4 300 1
351 41 465 68 195 216 367 393 458 68 35 138 63 152 61 3 0 19 5 35 11 17 6
50 14 75 17 25 3 46 6 48 8 1 1 350 2 775 1 l772 -1 53 -29z"/>
</g>
</svg>
