<?xml version="1.0" encoding="utf-8"?>
<!-- Generator: Adobe Illustrator 16.0.0, SVG Export Plug-In . SVG Version: 6.00 Build 0)  -->
<!DOCTYPE svg PUBLIC "-//W3C//DTD SVG 1.1//EN" "http://www.w3.org/Graphics/SVG/1.1/DTD/svg11.dtd">
<svg version="1.1" xmlns="http://www.w3.org/2000/svg" xmlns:xlink="http://www.w3.org/1999/xlink" x="0px" y="0px" width="1000px"
	 height="1000.0004883px" viewBox="0 0 1000 1000.0004883" enable-background="new 0 0 1000 1000.0004883" xml:space="preserve">
<g id="guides">
</g>
<g id="helpers">
</g>
<g id="icons">
	<g id="icons_2_">
		<path fill="#673994" d="M541.6796875,708.3325195H208.3349609c-22.9013672,0-41.6728516,18.7578125-41.6728516,41.6660156
			s18.7714844,41.6679688,41.6728516,41.6679688h333.3447266c22.9003906,0,41.6494141-18.7597656,41.6494141-41.6679688
			S564.5800781,708.3325195,541.6796875,708.3325195z M791.6611328,375.0004883H208.3349609
			c-22.9013672,0-41.6728516,18.7578125-41.6728516,41.6660156s18.7714844,41.6679688,41.6728516,41.6679688h583.3261719
			c22.9238281,0,41.671875-18.7597656,41.671875-41.6679688S814.5849609,375.0004883,791.6611328,375.0004883z
			 M208.3349609,625.0004883h583.3261719c22.9238281,0,41.671875-18.7597656,41.671875-41.6679688
			s-18.7480469-41.6660156-41.671875-41.6660156H208.3349609c-22.9013672,0-41.6728516,18.7578125-41.6728516,41.6660156
			S185.4335938,625.0004883,208.3349609,625.0004883z M166.6621094,250.0004883
			c0,22.9082031,18.7714844,41.6660156,41.6728516,41.6660156h583.3261719c22.9238281,0,41.671875-18.7578125,41.671875-41.6660156
			s-18.7480469-41.6669922-41.671875-41.6669922H208.3349609
			C185.4335938,208.3334961,166.6621094,227.0922852,166.6621094,250.0004883z"/>
	</g>
</g>
</svg>
