<?xml version="1.0" encoding="utf-8"?>
<!-- Generator: Adobe Illustrator 16.0.0, SVG Export Plug-In . SVG Version: 6.00 Build 0)  -->
<!DOCTYPE svg PUBLIC "-//W3C//DTD SVG 1.1//EN" "http://www.w3.org/Graphics/SVG/1.1/DTD/svg11.dtd">
<svg version="1.1" xmlns="http://www.w3.org/2000/svg" xmlns:xlink="http://www.w3.org/1999/xlink" x="0px" y="0px" width="476px"
	 height="1000.0039062px" viewBox="0 0 476 1000.0039062" enable-background="new 0 0 476 1000.0039062" xml:space="preserve">
<g id="guides">
</g>
<g id="helpers">
</g>
<g id="icons">
	<path fill="#873A96" d="M472.9951172,713.1484375c-1.0703125-28-15.5078125-56.796875-41.015625-57.7109375
		c-0.2890625,0-0.546875,0-0.8203125,0.015625l-12.734375,1.0546875l-28.3984375-345.0698242l11.640625-0.9921875
		c0.0546875,0,0.1328125,0,0.2109375-0.0234375c25.84375-3.125,34.90625-33.265625,32.3671875-59.921875
		c-1.1953125-13.0703125-5.0234375-25.1328125-10.8046875-33.984375c-7.125-10.921875-16.96875-16.5078125-27.75-15.8046875
		c-27.09375,1.78125-342.515625,25.0078125-360.25,26.328125c-1.15625,0.0390625-2.3125,0.140625-3.5,0.3359375
		c-8.9453125,1.4453125-16.7578125,7.8515625-21.875,18.0078125c-5.2734375,10.3125-7.65625,24.390625-7.015625,40.7109375
		c0,0.0859375,0,0.1875,0,0.28125l37.625,465.9838867c0,0.1875,0.03125,0.3671875,0.03125,0.53125
		c2.34375,14.53125,7.4453125,26.59375,14.765625,34.9140625c5.9609375,6.7734375,13.03125,10.6953125,20.375,11.4296875
		c1.7578125,0.1640625,3.578125,0.1640625,5.3515625-0.046875c25.5859375-2.078125,330.9921875-26.6640625,356.8359375-29.578125
		C463.5654297,766.7421875,473.9873047,739.1953125,472.9951172,713.1484375z M396.6435547,214.5786133
		c13.109375-0.8984375,22.078125,18.5234375,23.828125,37.2109375c1.9375,20.8046875-4.375,42.828125-20.171875,44.84375
		l-336.328125,29.234375c10.140625-15.796875,11.796875-40.1953125,3.6875-67.984375
		c-1.9296875-6.75-5.1328125-13.3046875-9.3125-18.6171875
		C133.8544922,233.7192383,373.1748047,216.1020508,396.6435547,214.5786133z M79.7919922,785.3671875
		c-0.546875,0.046875-0.8828125,0.0859375-0.9921875,0.0859375c-0.0625,0-0.140625,0-0.1796875,0.03125
		c-11.9921875,0.3984375-21.3046875-17.15625-24.1796875-34.515625L16.9013672,285.3833008
		c-1.09375-28.3203125,8.1796875-42.8359375,17.2890625-44.3359375c0.328125-0.0390625,0.625-0.0625,0.9375-0.09375
		c0.1875,0,0.3671875,0,0.5625-0.0234375c0.015625,0,0.0390625,0,0.09375-0.0234375
		c7.5234375-0.0390625,14.84375,8.046875,18.578125,20.828125c9.4375,32.515625,4.21875,58.609375-13.3203125,66.5078125
		c-3.1015625,1.3828125-4.7421875,4.7734375-3.8671875,8.0625c0.84375,3.296875,3.9453125,5.4609375,7.3046875,5.171875
		l331.7421875-28.8203125L404.6357422,657.65625L72.0341797,685.3359375c-3.8046875,0.3046875-6.640625,3.625-6.34375,7.3984375
		c0.2734375,3.8125,3.578125,6.6875,7.328125,6.453125c7.375-0.46875,22.046875,13.15625,23.9375,36.765625
		C99.5341797,768.015625,89.8701172,784,79.7919922,785.3671875z M436.4873047,755.8359375
		c-21.984375,2.4453125-256.8515625,21.4921875-333.59375,27.671875c0.6875-1.1328125,1.296875-2.3359375,1.875-3.6015625
		c5.390625-11.328125,7.46875-26.9140625,6-45.0390625c-1.078125-13.4921875-5.8203125-26.09375-13.34375-35.546875
		c-0.5625-0.703125-1.125-1.359375-1.6953125-2.0234375l336.1328125-27.9765625
		c16.640625,0.9140625,26.46875,23.4453125,27.265625,44.34375
		C460.1591797,740.9296875,448.5029297,754.4765625,436.4873047,755.8359375z M87.6826172,430.1489258
		c-0.3359375-3.8125,2.5234375-7.140625,6.3515625-7.4765625l188.546875-15.3359375
		c3.8125-0.3125,7.1328125,2.5234375,7.46875,6.3671875c0.3125,3.8046875-2.546875,7.1484375-6.3515625,7.46875
		L95.1435547,436.5239258c-0.40625,0.03125-0.8203125,0.03125-1.25,0
		C90.6279297,436.2036133,87.9716797,433.5629883,87.6826172,430.1489258z M98.0341797,487.4692383
		c-3.2421875-0.3125-5.921875-2.9375-6.2109375-6.34375c-0.2734375-3.8125,2.5390625-7.1484375,6.3515625-7.484375
		l111.484375-9.0703125c3.8046875-0.3046875,7.140625,2.5390625,7.4765625,6.34375
		c0.2890625,3.84375-2.5390625,7.171875-6.3515625,7.4765625l-111.484375,9.078125
		C98.8779297,487.5083008,98.4638672,487.5083008,98.0341797,487.4692383z M260.3935547,518.6796875
		c0.3125,3.8203125-2.53125,7.1796875-6.328125,7.484375l-150.625,12.2734375c-0.421875,0.0390625-0.8125,0.0390625-1.2265625,0
		c-3.28125-0.3359375-5.9765625-2.96875-6.25-6.3515625c-0.3125-3.8046875,2.5390625-7.1484375,6.3515625-7.4765625
		l150.6015625-12.2734375C256.7451172,512.0390625,260.1044922,514.875,260.3935547,518.6796875z M193.1513672,575.484375
		c0.3125,3.8046875-2.5390625,7.140625-6.3515625,7.46875l-79.171875,6.4453125c-0.4375,0.0390625-0.8828125,0.0390625-1.2734375,0
		c-3.2578125-0.3359375-5.9765625-2.9375-6.2265625-6.3515625c-0.3125-3.8046875,2.53125-7.171875,6.359375-7.4765625
		l79.1875-6.4609375C189.4794922,568.8046875,192.8154297,571.640625,193.1513672,575.484375z"/>
</g>
</svg>
