<?xml version="1.0" encoding="utf-8"?>
<!-- Generator: Adobe Illustrator 16.0.0, SVG Export Plug-In . SVG Version: 6.00 Build 0)  -->
<!DOCTYPE svg PUBLIC "-//W3C//DTD SVG 1.1//EN" "http://www.w3.org/Graphics/SVG/1.1/DTD/svg11.dtd">
<svg version="1.1" xmlns="http://www.w3.org/2000/svg" xmlns:xlink="http://www.w3.org/1999/xlink" x="0px" y="0px" width="831px"
	 height="1000.0039062px" viewBox="0 0 831 1000.0039062" enable-background="new 0 0 831 1000.0039062" xml:space="preserve">
<g id="guides">
</g>
<g id="helpers">
</g>
<g id="icons">
	<path fill="#663794" d="M828.0566406,333.1699219c0-136.7041016-110.7988281-247.5229492-247.5283203-247.5229492
		c-136.7285156,0-247.5712891,110.8188477-247.5712891,247.5229492c0,38.3359375,8.7167969,74.6323242,24.2724609,107.0205078
		l-81.3486328,56.9438477c-28.9228516-25.0317383-66.6396484-40.175293-107.9091797-40.175293
		c-91.1425781,0-165.0283203,73.8789062-165.0283203,165.0322266c0,91.1513672,73.8857422,164.9804688,165.0283203,164.9804688
		c91.1572266,0,164.9853516-73.8291016,164.9853516-164.9804688c0-20.6865234-3.8134766-40.4794922-10.7578125-58.7246094
		l81.3974609-56.9785156c33.6875,34.4130859,77.3320312,59.0410156,126.2822266,69.2148438l-5.7109375,135.3398438
		C484.8125,725.375,456.75,763.2197266,456.75,807.6210938c0,56.9589844,46.1777344,103.1396484,103.1396484,103.1396484
		c56.9609375,0,103.1386719-46.1806641,103.1386719-103.1396484c0-40.8554688-23.7617188-76.1621094-58.2158203-92.8613281
		l5.7333984-135.8808594C733.1113281,564.0673828,828.0566406,459.7382812,828.0566406,333.1699219z"/>
</g>
</svg>
