<?xml version="1.0" encoding="utf-8"?>
<!-- Generator: Adobe Illustrator 16.0.0, SVG Export Plug-In . SVG Version: 6.00 Build 0)  -->
<!DOCTYPE svg PUBLIC "-//W3C//DTD SVG 1.1//EN" "http://www.w3.org/Graphics/SVG/1.1/DTD/svg11.dtd">
<svg version="1.1" xmlns="http://www.w3.org/2000/svg" xmlns:xlink="http://www.w3.org/1999/xlink" x="0px" y="0px" width="1000px"
	 height="1000px" viewBox="0 0 1000 1000" enable-background="new 0 0 1000 1000" xml:space="preserve">
<g id="guides">
</g>
<g id="helpers">
</g>
<g id="icons">
	<path fill="#673795" d="M864.1376953,208.7109375L570.2416992,39.03125c-43.4541016-25.1035156-96.980957-25.1035156-140.4501953,0
		L135.9111328,208.7109375c-43.4697266,25.0693359-70.2421875,71.4272461-70.2421875,121.6035156v339.3525391
		c0,50.1943359,26.7724609,96.5517578,70.2421875,121.6386719l293.8803711,169.6757812
		c43.4692383,25.0869141,96.9960938,25.0869141,140.4501953,0l293.8959961-169.6757812
		c43.4384766-25.0869141,70.1933594-71.4443359,70.1933594-121.6386719V330.3144531
		C934.3310547,280.1381836,907.5761719,233.7802734,864.1376953,208.7109375 M489.5581055,682.7734375
		c6.1269531,5.0683594,14.8857422,5.0371094,21.0297852-0.0478516
		c44.4482422-36.7177734,76.4970703-84.7900391,93.7250977-140.4042969
		c2.0356445-6.5732422-2.7431641-13.2802734-9.6416016-13.2802734h-70.737793
		c-20.5488281,0-38.8994141-15.0126953-40.8549805-35.4824219c-2.2314453-23.4511719,16.1689453-43.1791992,39.1542969-43.1791992
		h132.5112305c5.9511719,0,11.9174805,1.0268555,17.2915039,3.559082
		c16.0561523,7.6347656,24.4775391,24.0771484,22.5219727,40.4375
		c-14.0371094,117.4013672-75.6806641,216.0195312-173.5600586,277.7119141
		c-6.4160156,4.0410156-13.6826172,6.0634766-20.9799805,6.0634766c-7.2993164,0-14.565918-2.0224609-20.9819336-6.0634766
		c-109.7177734-69.1660156-175.2280273-187.7851562-175.2280273-317.331543v-37.550293
		c0-71.9921875,58.3564453-130.347168,130.3774414-130.347168h221.0073242c20.5493164,0,38.8828125,15.015625,40.8398438,35.4824219
		c2.2451172,23.4204102-16.1533203,43.1821289-39.1386719,43.1821289H434.1850586
		c-28.5512695,0-51.7128906,23.1601562-51.7128906,51.6826172v37.550293
		C382.472168,544.0566406,421.9155273,626.8242188,489.5581055,682.7734375"/>
</g>
</svg>
