<?xml version="1.0" encoding="utf-8"?>
<!-- Generator: Adobe Illustrator 16.0.0, SVG Export Plug-In . SVG Version: 6.00 Build 0)  -->
<!DOCTYPE svg PUBLIC "-//W3C//DTD SVG 1.1//EN" "http://www.w3.org/Graphics/SVG/1.1/DTD/svg11.dtd">
<svg version="1.1" xmlns="http://www.w3.org/2000/svg" xmlns:xlink="http://www.w3.org/1999/xlink" x="0px" y="0px" width="866px"
	 height="1000.0039062px" viewBox="0 0 866 1000.0039062" enable-background="new 0 0 866 1000.0039062" xml:space="preserve">
<g id="guides">
</g>
<g id="helpers">
</g>
<g id="icons">
	<path fill="#673695" d="M433,929.2353516c-25.0996094,0-49.140625-7.4248047-67.6972656-20.9072266L50.3085938,679.4707031
		C11.7148438,651.4306641-6.2734375,596.0722656,8.46875,550.703125l120.3164062-370.300293
		c14.7441406-45.3696289,61.8320312-79.5825195,109.5371094-79.5825195h389.3574219
		c47.703125,0,94.7929688,34.2128906,109.5351562,79.5825195L857.53125,550.703125
		c14.7421875,45.3691406-3.2441406,100.7275391-41.8378906,128.7675781L500.6972656,908.3291016
		C482.1425781,921.8105469,458.0996094,929.2353516,433,929.2353516z M238.3222656,184.140625
		c-11.2480469,0-26.8183594,11.3125-30.2949219,22.0087891L87.7089844,576.4501953
		C84.2363281,587.1464844,90.1816406,605.453125,99.28125,612.0625l315,228.859375
		c4.2402344,3.0810547,11.4121094,4.9931641,18.71875,4.9931641c7.3105469,0,14.4824219-1.9121094,18.7207031-4.9921875
		l315-228.8603516c9.0976562-6.609375,15.0449219-24.9160156,11.5703125-35.6123047L657.9726562,206.1494141
		c-3.4765625-10.6962891-19.046875-22.0087891-30.2929688-22.0087891H238.3222656z"/>
</g>
</svg>
