<?xml version="1.0" encoding="utf-8"?>
<!-- Generator: Adobe Illustrator 16.0.0, SVG Export Plug-In . SVG Version: 6.00 Build 0)  -->
<!DOCTYPE svg PUBLIC "-//W3C//DTD SVG 1.1//EN" "http://www.w3.org/Graphics/SVG/1.1/DTD/svg11.dtd">
<svg version="1.1" xmlns="http://www.w3.org/2000/svg" xmlns:xlink="http://www.w3.org/1999/xlink" x="0px" y="0px" width="914px"
	 height="1000.0039062px" viewBox="0 0 914 1000.0039062" enable-background="new 0 0 914 1000.0039062" xml:space="preserve">
<g id="guides">
</g>
<g id="helpers">
</g>
<g id="icons">
	<g>
		<g>
			<g>
				<path fill="#673695" d="M456.9980469,150.9155273l92.9433594,188.3183594
					c3.6513672,7.3984375,13.3183594,14.421875,21.4824219,15.6083984l192.9804688,28.0415039
					c8.1640625,1.1865234,10.0097656,6.8686523,4.1025391,12.6274414L628.8642578,531.6298828
					c-5.9072266,5.7578125-9.6005859,17.1230469-8.2060547,25.2539062L653.625,749.0830078
					c1.3945312,8.1308594-3.4394531,11.6435547-10.7421875,7.8037109l-172.6074219-90.7441406
					c-7.3027344-3.8398438-19.2519531-3.8398438-26.5546875,0l-172.6035156,90.7441406
					c-7.3027344,3.8398438-12.1367188,0.328125-10.7421875-7.8037109l32.9648438-192.1992188
					c1.3945312-8.1308594-2.2988281-19.4960938-8.2070312-25.2539062L145.4912109,395.5112305
					c-5.9072266-5.7587891-4.0615234-11.440918,4.1025391-12.6274414l192.9804688-28.0415039
					c8.1640625-1.1865234,17.8310547-8.2099609,21.4824219-15.6083984L456.9980469,150.9155273 M463.6367188,25.6005859
					c-3.6513672-7.3984375-9.6259766-7.3979492-13.2773438,0l-41.7929688,84.6845703
					c-3.6513672,7.3979492-9.6259766,19.5039062-13.2773438,26.9023438l-72.0136719,145.9135742
					c-3.6513672,7.3984375-13.3183594,14.421875-21.4824219,15.6083984l-161.0292969,23.3989258
					c-8.1640625,1.1865234-21.5234375,3.1279297-29.6875,4.3144531l-93.4550781,13.5795898
					c-8.1640625,1.1865234-10.0097656,6.8686523-4.1025391,12.6274414l67.625,65.9179688
					c5.9072266,5.7587891,15.5751953,15.1816406,21.4824219,20.9404297l116.5195312,113.5810547
					c5.9072266,5.7587891,9.6005859,17.1240234,8.2060547,25.2548828L199.84375,738.7021484
					c-1.3945312,8.1308594-3.6757812,21.4375-5.0703125,29.5683594l-15.9648438,93.0771484
					c-1.3945312,8.1308594,3.4394531,11.6435547,10.7421875,7.8037109l83.5878906-43.9453125
					c7.3027344-3.8398438,19.2519531-10.1210938,26.5546875-13.9609375l144.0273438-75.71875
					c7.3027344-3.8398438,19.2519531-3.8398438,26.5546875,0l144.0273438,75.71875
					c7.3027344,3.8398438,19.2519531,10.1210938,26.5546875,13.9609375l83.5898438,43.9453125
					c7.3027344,3.8398438,12.1367188,0.3271484,10.7421875-7.8037109l-15.9648438-93.0771484
					c-1.3945312-8.1308594-3.6757812-21.4375-5.0703125-29.5683594l-27.5097656-160.3779297
					c-1.3945312-8.1308594,2.2988281-19.4960938,8.2050781-25.2539062l116.5244141-113.5820312
					c5.9072266-5.7587891,15.5751953-15.1816406,21.4824219-20.9404297l67.625-65.9179688
					c5.9072266-5.7587891,4.0615234-11.440918-4.1025391-12.6269531l-93.4570312-13.5800781
					c-8.1640625-1.1865234-21.5234375-3.1279297-29.6875-4.3144531l-161.0292969-23.3989258
					c-8.1640625-1.1865234-17.8310547-8.2099609-21.4824219-15.6083984L518.7089844,137.1875
					c-3.6513672-7.3984375-9.6259766-19.5039062-13.2773438-26.9023438L463.6367188,25.6005859z"/>
			</g>
		</g>
	</g>
</g>
</svg>
