<?xml version="1.0" encoding="utf-8"?>
<!-- Generator: Adobe Illustrator 16.0.0, SVG Export Plug-In . SVG Version: 6.00 Build 0)  -->
<!DOCTYPE svg PUBLIC "-//W3C//DTD SVG 1.1//EN" "http://www.w3.org/Graphics/SVG/1.1/DTD/svg11.dtd">
<svg version="1.1" xmlns="http://www.w3.org/2000/svg" xmlns:xlink="http://www.w3.org/1999/xlink" x="0px" y="0px" width="1000px"
	 height="1000.0039062px" viewBox="0 0 1000 1000.0039062" enable-background="new 0 0 1000 1000.0039062" xml:space="preserve">
<g id="guides">
</g>
<g id="helpers">
</g>
<g id="icons">
	<path fill="none" d="M0.0019531-1.7939453H1000v999.9960938H0.0019531V-1.7939453z"/>
	<path fill="#663794" d="M541.6816406,706.5361328H208.3359375c-22.9013672,0-41.671875,18.7587891-41.671875,41.6669922
		s18.7705078,41.6669922,41.671875,41.6669922h333.3457031c22.9013672,0,41.6484375-18.7587891,41.6484375-41.6669922
		S564.5830078,706.5361328,541.6816406,706.5361328z M791.6630859,373.2041016H208.3359375
		c-22.9013672,0-41.671875,18.7583008-41.671875,41.6665039s18.7705078,41.6674805,41.671875,41.6674805h583.3271484
		c22.9238281,0,41.671875-18.7592773,41.671875-41.6674805S814.5869141,373.2041016,791.6630859,373.2041016z
		 M208.3359375,623.2041016h583.3271484c22.9238281,0,41.671875-18.7587891,41.671875-41.6669922
		s-18.7480469-41.6669922-41.671875-41.6669922H208.3359375c-22.9013672,0-41.671875,18.7587891-41.671875,41.6669922
		S185.4345703,623.2041016,208.3359375,623.2041016z M166.6640625,248.2045898
		c0,22.9082031,18.7705078,41.6665039,41.671875,41.6665039h583.3271484c22.9238281,0,41.671875-18.7583008,41.671875-41.6665039
		s-18.7480469-41.6669922-41.671875-41.6669922H208.3359375
		C185.4345703,206.5375977,166.6640625,225.2963867,166.6640625,248.2045898z"/>
</g>
</svg>
