<?xml version="1.0" encoding="utf-8"?>
<!-- Generator: Adobe Illustrator 16.0.0, SVG Export Plug-In . SVG Version: 6.00 Build 0)  -->
<!DOCTYPE svg PUBLIC "-//W3C//DTD SVG 1.1//EN" "http://www.w3.org/Graphics/SVG/1.1/DTD/svg11.dtd">
<svg version="1.1" xmlns="http://www.w3.org/2000/svg" xmlns:xlink="http://www.w3.org/1999/xlink" x="0px" y="0px" width="615px"
	 height="1000.0039062px" viewBox="0 0 615 1000.0039062" enable-background="new 0 0 615 1000.0039062" xml:space="preserve">
<g id="guides">
</g>
<g id="helpers">
</g>
<g id="icons">
	<g>
		<path fill="#873A96" d="M307.5175781,195.4536133c-167.9296875,0-304.546875,136.6328125-304.546875,304.546875
			c0,167.9135742,136.6171875,304.5541992,304.546875,304.5541992c167.90625,0,304.515625-136.640625,304.515625-304.5541992
			C612.0332031,332.0864258,475.4238281,195.4536133,307.5175781,195.4536133z M307.5175781,771.921875
			c-149.9375,0-271.9140625-121.9765625-271.9140625-271.9213867c0-149.921875,122.0078125-271.890625,271.9140625-271.890625
			c149.859375,0,271.859375,121.96875,271.859375,271.890625
			C579.3769531,649.9453125,457.4238281,771.921875,307.5175781,771.921875z"/>
		<path fill="#873A96" d="M307.5175781,292.6411133c114.546875,0,207.40625,92.828125,207.40625,207.359375
			c0,114.5541992-92.859375,207.3901367-207.40625,207.3901367c-114.53125,0-207.390625-92.8359375-207.390625-207.3901367
			C100.1269531,385.4692383,192.9863281,292.6411133,307.5175781,292.6411133z"/>
	</g>
</g>
</svg>
