<?xml version="1.0" encoding="utf-8"?>
<!-- Generator: Adobe Illustrator 16.0.0, SVG Export Plug-In . SVG Version: 6.00 Build 0)  -->
<!DOCTYPE svg PUBLIC "-//W3C//DTD SVG 1.1//EN" "http://www.w3.org/Graphics/SVG/1.1/DTD/svg11.dtd">
<svg version="1.1" xmlns="http://www.w3.org/2000/svg" xmlns:xlink="http://www.w3.org/1999/xlink" x="0px" y="0px" width="736px"
	 height="1000.0039062px" viewBox="0 0 736 1000.0039062" enable-background="new 0 0 736 1000.0039062" xml:space="preserve">
<g id="guides">
</g>
<g id="helpers">
</g>
<g id="icons">
	<g>
		<g>
			<path fill="#673695" d="M469.9072266,582.0380859c-3.3417969-24.6259766-26.0087891-41.8759766-50.6416016-38.5390625
				l-212.3955078,28.8125c-24.6269531,3.3398438-41.8837891,26.0136719-38.5419922,50.640625
				c3.1738281,23.4003906,23.8007812,40.1445312,46.9765625,38.8886719
				c1.2148438-0.0644531,2.4365234-0.1787109,3.6640625-0.3457031l212.3955078-28.8134766
				C455.9912109,629.3408203,473.2480469,606.6669922,469.9072266,582.0380859z"/>
			<path fill="#673695" d="M207.9199219,525.5488281c1.2148438-0.0664062,2.4365234-0.1796875,3.6630859-0.3476562
				l212.3964844-28.8115234c24.6279297-3.3417969,41.8837891-26.0136719,38.5429688-50.6416016
				c-3.3398438-24.6279297-26.0087891-41.8837891-50.6416016-38.5429688l-212.3955078,28.8144531
				c-24.6269531,3.3408203-41.8837891,26.0117188-38.5419922,50.6416016
				C164.1162109,510.0605469,184.7451172,526.8046875,207.9199219,525.5488281z"/>
		</g>
		<g>
			<path fill="#673695" d="M40.0664062,160.8798828c0.359375-0.3291016,0.7197266-0.6542969,1.0830078-0.9765625
				C40.7861328,160.2255859,40.4257812,160.5507812,40.0664062,160.8798828z"/>
			<path fill="#673695" d="M52.3115234,151.2080078c0.4707031-0.3164062,0.9404297-0.6308594,1.4140625-0.9394531
				C53.2509766,150.578125,52.7822266,150.8916016,52.3115234,151.2080078z"/>
			<path fill="#673695" d="M89.5107422,135.4511719c0.8330078-0.1796875,1.6679688-0.3486328,2.5087891-0.5087891
				C91.1787109,135.1025391,90.34375,135.2714844,89.5107422,135.4511719z"/>
			<path fill="#673695" d="M48.1054688,154.2011719c0.4238281-0.3173828,0.8486328-0.6318359,1.2773438-0.9423828
				C48.9541016,153.5693359,48.5292969,153.8837891,48.1054688,154.2011719z"/>
			<polygon fill="#673695" points="566.8925781,335.8681641 633.8496094,326.8203125 566.8925781,335.8681641 			"/>
			<path fill="#673695" d="M36.2685547,164.5507812c0.3261719-0.3330078,0.6611328-0.6591797,0.9931641-0.9873047
				C36.9296875,163.8916016,36.5947266,164.2177734,36.2685547,164.5507812z"/>
			<path fill="#673695" d="M54.4492188,149.8027344c0.4990234-0.3173828,0.9990234-0.6337891,1.5019531-0.9453125
				C55.4482422,149.1689453,54.9482422,149.4853516,54.4492188,149.8027344z"/>
			<path fill="#673695" d="M38.1474609,162.6865234c0.3447266-0.3300781,0.6923828-0.65625,1.0400391-0.9833984
				C38.8398438,162.0302734,38.4921875,162.3564453,38.1474609,162.6865234z"/>
			<path fill="#673695" d="M94.6875,134.46875c0.8457031-0.1416016,1.6953125-0.2724609,2.5478516-0.3935547
				C96.3828125,134.1962891,95.5332031,134.3271484,94.6875,134.46875z"/>
			<path fill="#673695" d="M50.1982422,152.6738281c0.4443359-0.3173828,0.8896484-0.6298828,1.3398438-0.9394531
				C51.0878906,152.0439453,50.6425781,152.3564453,50.1982422,152.6738281z"/>
			<path fill="#673695" d="M92.09375,134.9277344c0.8359375-0.1572266,1.6767578-0.3076172,2.5195312-0.4472656
				C93.7705078,134.6201172,92.9296875,134.7705078,92.09375,134.9277344z"/>
			<path fill="#673695" d="M46.0439453,155.7861328c0.4052734-0.3212891,0.8154297-0.6376953,1.2275391-0.9511719
				C46.859375,155.1484375,46.4492188,155.4648438,46.0439453,155.7861328z"/>
			<path fill="#673695" d="M42.0253906,159.125c0.3710938-0.3242188,0.7470703-0.6445312,1.1220703-0.9648438
				C42.7724609,158.4804688,42.3964844,158.7998047,42.0253906,159.125z"/>
			<path fill="#673695" d="M44.0175781,157.4257812c0.3886719-0.3222656,0.7802734-0.640625,1.1738281-0.9580078
				C44.7978516,156.7851562,44.40625,157.1035156,44.0175781,157.4257812z"/>
			<path fill="#673695" d="M676.1660156,656.3681641c0.6210938,0.4404297,1.2294922,0.8974609,1.828125,1.3701172
				C677.3955078,657.265625,676.7841797,656.8095703,676.1660156,656.3681641z"/>
			<path fill="#673695" d="M161.8447266,971.9042969c2.9941406-0.4033203,5.9716797-0.9277344,8.9296875-1.5634766h-0.0136719
				C167.8066406,970.9755859,164.8330078,971.4990234,161.8447266,971.9042969z"/>
			<path fill="#673695" d="M674.2802734,655.0976562c0.5029297,0.3203125,0.9980469,0.6611328,1.4902344,1.0029297
				C675.2783203,655.7587891,674.7832031,655.4179688,674.2802734,655.0976562z"/>
			<path fill="#673695" d="M60.8798828,146.0068359c0.6445312-0.3505859,1.2919922-0.6962891,1.9423828-1.0332031
				C62.171875,145.3105469,61.5244141,145.65625,60.8798828,146.0068359z"/>
			<path fill="#673695" d="M34.4287109,166.4677734c0.3125-0.3330078,0.6318359-0.6601562,0.9472656-0.9902344
				C35.0585938,165.8085938,34.7412109,166.1347656,34.4287109,166.4677734z"/>
			<path fill="#673695" d="M58.7519531,147.1943359c0.5800781-0.3310547,1.1591797-0.6611328,1.7451172-0.9804688
				C59.9111328,146.5332031,59.3320312,146.8632812,58.7519531,147.1943359z"/>
			<path fill="#673695" d="M161.7265625,971.921875c-1.4003906,0.1884766-2.8037109,0.3476562-4.2099609,0.484375
				C158.9228516,972.2695312,160.3261719,972.1103516,161.7265625,971.921875z"/>
			<path fill="#673695" d="M156.8408203,972.46875c-1.3828125,0.1269531-2.765625,0.2333984-4.1503906,0.3105469
				C154.0751953,972.7021484,155.4580078,972.5957031,156.8408203,972.46875z"/>
			<path fill="#673695" d="M31.578125,169.6533203c-0.2265625,0.2626953-0.4589844,0.5214844-0.6835938,0.7871094
				c-13.9492188,16.5029297-30.046875,46.015625-27.5058594,92.890625
				c-2.5400391-46.8730469,13.5566406-76.3857422,27.5058594-92.8896484
				C31.1191406,170.1757812,31.3515625,169.9160156,31.578125,169.6533203z"/>
			<path fill="#673695" d="M32.6328125,168.4375c0.2900391-0.3261719,0.5869141-0.6445312,0.8798828-0.9667969
				C33.2197266,167.7929688,32.9228516,168.1113281,32.6328125,168.4375z"/>
			<path fill="#673695" d="M56.5966797,148.4658203c0.5351562-0.3232422,1.0693359-0.6455078,1.6123047-0.9580078
				C57.6660156,147.8203125,57.1318359,148.1425781,56.5966797,148.4658203z"/>
			<path fill="#673695" d="M62.9121094,144.9287109c8.3007812-4.2734375,17.2080078-7.4589844,26.5498047-9.4677734
				C80.1201172,137.4716797,71.2119141,140.6533203,62.9121094,144.9287109z"/>
			<path fill="#673695" d="M102.5488281,133.4462891c-1.765625,0.1669922-3.5166016,0.3740234-5.2558594,0.6210938
				c1.7363281-0.2460938,3.4833984-0.453125,5.2460938-0.6201172L102.5488281,133.4462891z"/>
			<path fill="#673695" d="M266.3720703,860.6767578c-0.1728516,2.0390625-0.3916016,4.0664062-0.65625,6.0800781l0,0
				C265.9804688,864.7431641,266.2001953,862.7158203,266.3720703,860.6767578z"/>
			<path fill="#673695" d="M266.7607422,854.0654297c0.0292969-0.8544922,0.0566406-1.7089844,0.0673828-2.5654297
				C266.8164062,852.3564453,266.7900391,853.2109375,266.7607422,854.0654297z"/>
			<path fill="#673695" d="M266.6054688,857.4140625c0.0556641-0.9404297,0.1035156-1.8828125,0.140625-2.8271484
				C266.7089844,855.53125,266.6611328,856.4736328,266.6054688,857.4140625z"/>
			<polygon fill="#673695" points="499.6757812,758.7734375 283.3369141,788.0058594 499.6757812,758.7734375 			"/>
			<path fill="#673695" d="M266.8144531,846.8261719c-0.0107422-0.5390625-0.015625-1.078125-0.03125-1.6191406
				C266.7988281,845.7480469,266.8037109,846.2871094,266.8144531,846.8261719z"/>
			<path fill="#673695" d="M266.8339844,850.5732422c0.0068359-0.7333984,0.0136719-1.4648438,0.0087891-2.1972656
				C266.8476562,849.1083984,266.8408203,849.8398438,266.8339844,850.5732422z"/>
			<path fill="#673695" d="M266.375,860.6445312c0.0839844-0.9980469,0.1582031-1.9970703,0.21875-3.0019531
				C266.5332031,858.6474609,266.4599609,859.6464844,266.375,860.6445312z"/>
			<path fill="#673695" d="M127.3603516,226.4707031c0.1503906,0.078125,0.3007812,0.1650391,0.4492188,0.2460938
				C127.6611328,226.6357422,127.5107422,226.5488281,127.3603516,226.4707031z"/>
			<path fill="#673695" d="M176.7783203,846.8623047c0.0390625,0.7255859,0.0576172,1.4355469,0.0644531,2.1357422
				C176.8359375,848.2978516,176.8173828,847.5878906,176.7783203,846.8623047z"/>
			<path fill="#673695" d="M134.7724609,231.7988281c0.1933594,0.1875,0.3779297,0.3857422,0.5664062,0.5791016
				C135.1503906,232.1845703,134.9658203,231.9863281,134.7724609,231.7988281z"/>
			<path fill="#673695" d="M135.8964844,232.9521484c0.1933594,0.2089844,0.3779297,0.4296875,0.5683594,0.6445312
				C136.2744141,233.3818359,136.0898438,233.1611328,135.8964844,232.9521484z"/>
			<path fill="#673695" d="M164.6191406,876.3476562c-0.0791016,0.0585938-0.1582031,0.1201172-0.2363281,0.1787109
				C164.4609375,876.4677734,164.5400391,876.40625,164.6191406,876.3476562z"/>
			<path fill="#673695" d="M126.0556641,225.8349609c0.1396484,0.0625,0.2763672,0.1328125,0.4130859,0.2001953
				C126.3320312,225.9677734,126.1953125,225.8974609,126.0556641,225.8349609z"/>
			<path fill="#673695" d="M133.6083984,230.7236328c0.1923828,0.1699219,0.3808594,0.3496094,0.5703125,0.5244141
				C133.9892578,231.0732422,133.8007812,230.8935547,133.6083984,230.7236328z"/>
			<path fill="#673695" d="M128.6523438,227.1777344c0.1601562,0.09375,0.3193359,0.1943359,0.4804688,0.2910156
				C128.9716797,227.3720703,128.8125,227.2714844,128.6523438,227.1777344z"/>
			<path fill="#673695" d="M132.4121094,229.7255859c0.1884766,0.1503906,0.3720703,0.3105469,0.5576172,0.4658203
				C132.7841797,230.0361328,132.6005859,229.8769531,132.4121094,229.7255859z"/>
			<path fill="#673695" d="M131.1816406,228.8046875c0.1835938,0.1289062,0.3603516,0.2685547,0.5410156,0.4023438
				C131.5419922,229.0732422,131.3652344,228.9335938,131.1816406,228.8046875z"/>
			<path fill="#673695" d="M156.5751953,791.90625c0.1025391,0.1064453,0.2060547,0.2177734,0.3193359,0.3417969
				C156.78125,792.1240234,156.6777344,792.0126953,156.5751953,791.90625z"/>
			<path fill="#673695" d="M159.4345703,879.6386719c-0.0273438,0.0126953-0.0546875,0.0283203-0.0810547,0.0419922
				C159.3798828,879.6669922,159.4072266,879.6513672,159.4345703,879.6386719z"/>
			<path fill="#673695" d="M158.3388672,880.1689453c-0.0048828,0.0048828-0.0107422,0.0058594-0.0185547,0.0097656
				C158.328125,880.1748047,158.3339844,880.1738281,158.3388672,880.1689453z"/>
			<path fill="#673695" d="M129.9267578,227.9560547c0.1738281,0.1103516,0.3408203,0.2294922,0.5107422,0.3427734
				C130.2675781,228.1855469,130.1005859,228.0664062,129.9267578,227.9560547z"/>
			<path fill="#673695" d="M175.4960938,859.8974609c-0.1005859,0.3613281-0.2011719,0.7197266-0.3095703,1.0732422
				C175.2949219,860.6171875,175.3955078,860.2587891,175.4960938,859.8974609z"/>
			<path fill="#673695" d="M114.5332031,222.9599609c0.0234375,0.0009766,0.0478516,0.0029297,0.0712891,0.0029297
				C114.5810547,222.9628906,114.5566406,222.9609375,114.5332031,222.9599609z"/>
			<path fill="#673695" d="M176.0625,857.5644531c-0.1191406,0.5859375-0.2548828,1.1601562-0.3984375,1.7255859
				C175.8076172,858.7246094,175.9423828,858.1503906,176.0625,857.5644531z"/>
			<path fill="#673695" d="M113.3554688,222.9316406c0.0224609,0.0009766,0.0439453,0.0009766,0.0664062,0
				C113.3994141,222.9326172,113.3779297,222.9326172,113.3554688,222.9316406z"/>
			<path fill="#673695" d="M169.2490234,871.8984375c-0.1083984,0.1289062-0.2197266,0.2509766-0.3300781,0.3769531
				C169.0292969,872.1494141,169.140625,872.0273438,169.2490234,871.8984375z"/>
			<path fill="#673695" d="M115.7412109,223.0419922c0.0322266,0.0009766,0.0654297,0.0068359,0.0966797,0.0087891
				C115.8066406,223.0488281,115.7734375,223.0429688,115.7412109,223.0419922z"/>
			<path fill="#673695" d="M176.8388672,849.6738281c-0.0019531,0.4726562-0.0087891,0.9404297-0.0244141,1.4003906
				C176.8300781,850.6142578,176.8369141,850.1464844,176.8388672,849.6738281z"/>
			<path fill="#673695" d="M174.9658203,861.6445312c-0.1074219,0.3173828-0.2167969,0.6318359-0.3300781,0.9433594
				C174.7490234,862.2763672,174.8583984,861.9619141,174.9658203,861.6445312z"/>
			<path fill="#673695" d="M173.7353516,864.7871094c-0.1494141,0.3320312-0.3085938,0.6552734-0.4677734,0.9755859
				C173.4267578,865.4423828,173.5859375,865.1191406,173.7353516,864.7871094z"/>
			<path fill="#673695" d="M172.8691406,866.5410156c-0.1796875,0.3359375-0.359375,0.6728516-0.5507812,1
				C172.5097656,867.2138672,172.6894531,866.8769531,172.8691406,866.5410156z"/>
			<path fill="#673695" d="M174.3798828,863.2607422c-0.1191406,0.3037109-0.2441406,0.6015625-0.3720703,0.8955078
				C174.1357422,863.8623047,174.2607422,863.5644531,174.3798828,863.2607422z"/>
			<path fill="#673695" d="M176.3828125,855.7392578c-0.0839844,0.5517578-0.1796875,1.0947266-0.2841797,1.6289062
				C176.203125,856.8339844,176.2988281,856.2910156,176.3828125,855.7392578z"/>
			<path fill="#673695" d="M171.0712891,869.5029297c-0.1347656,0.1953125-0.2685547,0.3886719-0.4072266,0.5791016
				C170.8027344,869.8916016,170.9365234,869.6982422,171.0712891,869.5029297z"/>
			<path fill="#673695" d="M170.1796875,870.7363281c-0.1308594,0.1708984-0.2626953,0.3378906-0.3984375,0.5058594
				C169.9169922,871.0742188,170.0488281,870.9072266,170.1796875,870.7363281z"/>
			<path fill="#673695" d="M176.7763672,851.8291016c-0.0224609,0.4267578-0.0507812,0.8486328-0.0859375,1.265625
				C176.7255859,852.6777344,176.7539062,852.2558594,176.7763672,851.8291016z"/>
			<path fill="#673695" d="M123.4326172,224.7597656c0.1064453,0.0390625,0.2138672,0.0830078,0.3212891,0.1210938
				C123.6455078,224.8427734,123.5390625,224.7988281,123.4326172,224.7597656z"/>
			<path fill="#673695" d="M122.1201172,224.3212891c0.0917969,0.0283203,0.1845703,0.0615234,0.2773438,0.0917969
				C122.3046875,224.3828125,122.2119141,224.3496094,122.1201172,224.3212891z"/>
			<path fill="#673695" d="M165.6796875,875.4814453c-0.0996094,0.0820312-0.1962891,0.1650391-0.2949219,0.2480469
				C165.4833984,875.6464844,165.5800781,875.5634766,165.6796875,875.4814453z"/>
			<path fill="#673695" d="M124.7470703,225.2626953c0.1210938,0.0507812,0.2441406,0.1074219,0.3642578,0.1591797
				C124.9912109,225.3701172,124.8681641,225.3134766,124.7470703,225.2626953z"/>
			<path fill="#673695" d="M166.6904297,874.5791016c-0.0947266,0.0869141-0.1884766,0.1767578-0.2832031,0.2626953
				C166.5019531,874.7558594,166.5957031,874.6660156,166.6904297,874.5791016z"/>
			<path fill="#673695" d="M118.2412109,223.375c0.0478516,0.0087891,0.0996094,0.0214844,0.1484375,0.0292969
				C118.3408203,223.3964844,118.2890625,223.3837891,118.2412109,223.375z"/>
			<path fill="#673695" d="M116.9775391,223.1796875c0.0400391,0.0048828,0.0810547,0.0126953,0.1220703,0.0185547
				C117.0585938,223.1923828,117.0175781,223.1845703,116.9775391,223.1796875z"/>
			<path fill="#673695" d="M167.4238281,873.8798828c-0.0019531,0.0019531-0.0039062,0.0058594-0.0068359,0.0078125
				C167.4199219,873.8857422,167.421875,873.8818359,167.4238281,873.8798828z"/>
			<path fill="#673695" d="M119.5195312,223.6298828c0.0634766,0.0136719,0.1289062,0.03125,0.1953125,0.046875
				C119.6484375,223.6611328,119.5830078,223.6435547,119.5195312,223.6298828z"/>
			<path fill="#673695" d="M120.8154297,223.9453125c0.0761719,0.0195312,0.1533203,0.0429688,0.2304688,0.0644531
				C120.96875,223.9882812,120.8916016,223.9648438,120.8154297,223.9453125z"/>
			<path fill="#673695" d="M176.6240234,853.8339844c-0.0449219,0.4277344-0.0976562,0.8486328-0.1542969,1.2666016
				C176.5263672,854.6826172,176.5791016,854.2617188,176.6240234,853.8339844z"/>
			<path fill="#673695" d="M138.6738281,881.3193359c-0.2910156-0.140625-0.5761719-0.2880859-0.8554688-0.4453125
				C138.0976562,881.03125,138.3818359,881.1796875,138.6738281,881.3193359z"/>
			<path fill="#673695" d="M112.2832031,222.9560547c-0.0175781,0.0009766-0.0371094,0-0.0556641,0.0019531h-0.0048828
				C112.2421875,222.9560547,112.2646484,222.9570312,112.2832031,222.9560547z"/>
			<path fill="#673695" d="M119.1699219,363.0410156c-5.0400391-12.2460938-4.7119141-25.4296875,0.7929688-36.59375
				C114.4570312,337.6113281,114.1289062,350.7949219,119.1699219,363.0410156z"/>
			<path fill="#673695" d="M100.9941406,227.1455078c0.2558594-0.2324219,0.5205078-0.4541016,0.7910156-0.6669922
				C101.5146484,226.6914062,101.25,226.9130859,100.9941406,227.1455078z"/>
			<path fill="#673695" d="M102.1835938,226.171875c0.3671875-0.2705078,0.7509766-0.5283203,1.1484375-0.7646484
				C102.9345703,225.6435547,102.5517578,225.9013672,102.1835938,226.171875z"/>
			<path fill="#673695" d="M103.7373047,225.1855469c0.3007812-0.1669922,0.609375-0.328125,0.9267578-0.4765625
				C104.3466797,224.8574219,104.0390625,225.0195312,103.7373047,225.1855469z"/>
			<path fill="#673695" d="M144.1523438,275.3007812c-0.2939453,2.4375-0.6572266,4.7626953-1.0839844,6.9667969
				C143.4951172,280.0634766,143.8583984,277.7382812,144.1523438,275.3007812z"/>
			<path fill="#673695" d="M140.9853516,290.8466797c-0.0068359,0.0214844-0.0146484,0.0458984-0.0214844,0.0683594
				C140.9707031,290.8925781,140.9785156,290.8681641,140.9853516,290.8466797z"/>
			<polygon fill="#673695" points="477.4150391,347.9599609 167.8232422,389.796875 477.4150391,347.9599609 			"/>
			<path fill="#673695" d="M141.5390625,882.3427734c-0.2431641-0.0634766-0.4882812-0.1220703-0.7246094-0.1953125
				C141.0517578,882.2197266,141.2958984,882.28125,141.5390625,882.3427734z"/>
			<path fill="#673695" d="M125.2890625,849.6533203c0.7353516,13.5654297,4.1328125,23.8857422,9.5683594,29.0595703
				c0.3837891,0.3662109,0.7880859,0.7021484,1.2041016,1.0205078c-0.4160156-0.3173828-0.8183594-0.6582031-1.2041016-1.0244141
				C129.4228516,873.5351562,126.0234375,863.2148438,125.2890625,849.6533203z"/>
			<path fill="#673695" d="M140.0859375,881.9003906c-0.2705078-0.0966797-0.5380859-0.1962891-0.7998047-0.3076172
				C139.5478516,881.7041016,139.8154297,881.8037109,140.0859375,881.9003906z"/>
			<path fill="#673695" d="M171.9287109,868.1806641c-0.1386719,0.2246094-0.2734375,0.4472656-0.4160156,0.6650391
				C171.6552734,868.6279297,171.7900391,868.4052734,171.9287109,868.1806641z"/>
			<path fill="#673695" d="M142.8330078,882.6230469c-0.1396484-0.0244141-0.2841797-0.0410156-0.4228516-0.0683594
				C142.5488281,882.5820312,142.6923828,882.5986328,142.8330078,882.6230469z"/>
			<path fill="#673695" d="M144.6669922,269.7695312c-0.03125,0.4638672-0.0566406,0.9355469-0.0927734,1.3916016
				C144.6103516,270.7050781,144.6357422,270.2333984,144.6669922,269.7695312z"/>
			<path fill="#673695" d="M137.3310547,880.5966797c-0.3310547-0.2011719-0.6474609-0.4179688-0.9599609-0.6425781
				C136.6835938,880.1787109,137,880.3955078,137.3310547,880.5966797z"/>
			<path fill="#673695" d="M145.3837891,882.9101562c0.0585938,0.0029297,0.1142578,0.0097656,0.1738281,0.0117188
				l0.0058594-0.0009766C145.5019531,882.9199219,145.4443359,882.9121094,145.3837891,882.9101562z"/>
			<path fill="#673695" d="M99.6611328,228.5078125c0.3115234-0.3671875,0.6435547-0.7099609,0.9824219-1.0400391
				C100.3037109,227.7978516,99.9726562,228.140625,99.6611328,228.5078125z"/>
			<path fill="#673695" d="M138.0039062,235.4951172c0.1914062,0.2548828,0.3701172,0.5234375,0.5527344,0.7861328
				C138.3740234,236.0185547,138.1953125,235.75,138.0039062,235.4951172z"/>
			<path fill="#673695" d="M142.2539062,243.3212891c0.1328125,0.3525391,0.2529297,0.7216797,0.3789062,1.0859375
				C142.5068359,244.0429688,142.3867188,243.6738281,142.2539062,243.3212891z"/>
			<path fill="#673695" d="M142.8896484,245.1484375c0.1210938,0.3818359,0.2285156,0.7792969,0.3398438,1.171875
				C143.1181641,245.9277344,143.0107422,245.5302734,142.8896484,245.1484375z"/>
			<path fill="#673695" d="M106.7431641,223.8964844c0.4296875-0.1376953,0.8691406-0.2587891,1.3203125-0.3662109
				C107.6123047,223.6376953,107.1728516,223.7597656,106.7431641,223.8964844z"/>
			<path fill="#673695" d="M139.8994141,238.3701172c0.1689453,0.2890625,0.328125,0.5927734,0.4892578,0.8916016
				C140.2275391,238.9628906,140.0683594,238.6591797,139.8994141,238.3701172z"/>
			<path fill="#673695" d="M141.5410156,241.5830078c0.1464844,0.3320312,0.28125,0.6816406,0.4199219,1.0244141
				C141.8222656,242.2646484,141.6875,241.9150391,141.5410156,241.5830078z"/>
			<path fill="#673695" d="M143.4433594,247.0644531c0.1054688,0.4033203,0.1943359,0.8232422,0.2871094,1.2373047
				C143.6376953,247.8876953,143.5488281,247.4677734,143.4433594,247.0644531z"/>
			<path fill="#673695" d="M140.7539062,239.9326172c0.1601562,0.3134766,0.3085938,0.6416016,0.4599609,0.9658203
				C141.0625,240.5742188,140.9140625,240.2460938,140.7539062,239.9326172z"/>
			<path fill="#673695" d="M138.9804688,236.8896484c0.1796875,0.2705078,0.3476562,0.5556641,0.5205078,0.8349609
				C139.328125,237.4453125,139.1601562,237.1601562,138.9804688,236.8896484z"/>
			<path fill="#673695" d="M143.9101562,249.0751953c0.0898438,0.4365234,0.1630859,0.8876953,0.2392578,1.3349609
				C144.0732422,249.9628906,144,249.5117188,143.9101562,249.0751953z"/>
			<path fill="#673695" d="M144.2861328,251.1787109c0.0771484,0.5,0.1337891,1.0166016,0.1972656,1.53125
				C144.4199219,252.1953125,144.3632812,251.6787109,144.2861328,251.1787109z"/>
			<path fill="#673695" d="M144.5644531,253.3769531c0.078125,0.7490234,0.1376953,1.5136719,0.1796875,2.2939453
				C144.7021484,254.890625,144.6425781,254.1259766,144.5644531,253.3769531z"/>
			<path fill="#673695" d="M105.2763672,224.4394531c0.2626953-0.1103516,0.5332031-0.2138672,0.8046875-0.3125
				C105.8095703,224.2255859,105.5390625,224.3300781,105.2763672,224.4394531z"/>
			<path fill="#673695" d="M136.9755859,234.1826172c0.1923828,0.2324219,0.3759766,0.4775391,0.5644531,0.7177734
				C137.3515625,234.6601562,137.1679688,234.4150391,136.9755859,234.1826172z"/>
			<path fill="#673695" d="M144.8857422,259.3994141c0.0712891,2.9580078,0.03125,5.7939453-0.1054688,8.5078125
				C144.9169922,265.1933594,144.9570312,262.3574219,144.8857422,259.3994141z"/>
			<path fill="#673695" d="M228.5175781,217.4306641c-0.2265625-0.7070312-0.4570312-1.4130859-0.6953125-2.1142578
				C228.0605469,216.0175781,228.2890625,216.7236328,228.5175781,217.4306641z"/>
			<path fill="#673695" d="M229.3310547,220.0605469c-0.1933594-0.6494141-0.3896484-1.2978516-0.59375-1.9443359
				C228.9404297,218.7617188,229.1376953,219.4111328,229.3310547,220.0605469z"/>
			<path fill="#673695" d="M230.1171875,222.8134766c-0.1699219-0.625-0.3466797-1.2480469-0.5263672-1.8691406
				C229.7705078,221.5654297,229.9472656,222.1884766,230.1171875,222.8134766z"/>
			<path fill="#673695" d="M233.7978516,241.5898438c-0.0546875-0.4433594-0.1103516-0.8857422-0.1689453-1.3271484
				C233.6875,240.7041016,233.7431641,241.1464844,233.7978516,241.5898438z"/>
			<path fill="#673695" d="M232.9228516,235.5751953c-0.0800781-0.46875-0.1552734-0.9404297-0.2402344-1.4091797
				C232.7675781,234.6347656,232.8427734,235.1064453,232.9228516,235.5751953z"/>
			<path fill="#673695" d="M230.8554688,225.6318359c-0.1523438-0.6142578-0.3144531-1.2255859-0.4755859-1.8359375
				C230.5410156,224.40625,230.703125,225.0175781,230.8554688,225.6318359z"/>
			<path fill="#673695" d="M233.3935547,238.5673828c-0.0673828-0.4580078-0.1347656-0.9169922-0.2060547-1.3730469
				C233.2587891,237.6503906,233.3261719,238.109375,233.3935547,238.5673828z"/>
			<path fill="#673695" d="M231.5371094,228.4931641c-0.1386719-0.6113281-0.2871094-1.21875-0.4335938-1.8271484
				C231.25,227.2744141,231.3984375,227.8818359,231.5371094,228.4931641z"/>
			<path fill="#673695" d="M234.1357422,244.6367188c-0.0410156-0.4140625-0.0869141-0.8261719-0.1308594-1.2402344
				C234.0488281,243.8105469,234.0947266,244.2226562,234.1357422,244.6367188z"/>
			<path fill="#673695" d="M232.3945312,232.6367188c-0.2070312-1.0722656-0.4248047-2.1416016-0.6572266-3.2050781
				C231.9697266,230.4951172,232.1875,231.5644531,232.3945312,232.6367188z"/>
			<path fill="#673695" d="M234.4082031,247.7089844c-0.0273438-0.3476562-0.0585938-0.6933594-0.0878906-1.0400391
				C234.3496094,247.015625,234.3808594,247.3613281,234.4082031,247.7089844z"/>
			<path fill="#673695" d="M227.7900391,215.2275391c-0.8603516-2.5273438-1.8046875-5.0195312-2.8193359-7.4726562
				C225.9853516,210.2080078,226.9287109,212.7001953,227.7900391,215.2275391z"/>
			<polygon fill="#673695" points="589.1523438,746.6806641 589.1523438,746.6826172 631.2246094,740.9970703 			"/>
			<path fill="#673695" d="M101.7851562,226.4785156c0.1337891-0.1025391,0.2617188-0.2080078,0.3984375-0.3066406
				C102.046875,226.2705078,101.9189453,226.3759766,101.7851562,226.4785156z"/>
			<path fill="#673695" d="M106.0810547,224.1269531c0.2207031-0.078125,0.4384766-0.1601562,0.6621094-0.2304688
				C106.5205078,223.9667969,106.3017578,224.0488281,106.0810547,224.1269531z"/>
			<path fill="#673695" d="M104.6640625,224.7089844c0.2001953-0.0947266,0.4052734-0.1826172,0.6123047-0.2695312
				C105.0683594,224.5273438,104.8642578,224.6142578,104.6640625,224.7089844z"/>
			<path fill="#673695" d="M100.6435547,227.4677734c0.1152344-0.1103516,0.2333984-0.2167969,0.3505859-0.3222656
				C100.8769531,227.2519531,100.7587891,227.3574219,100.6435547,227.4677734z"/>
			<path fill="#673695" d="M103.3320312,225.4072266c0.1318359-0.0771484,0.2714844-0.1464844,0.4052734-0.2216797
				C103.6035156,225.2607422,103.4638672,225.3300781,103.3320312,225.4072266z"/>
			<path fill="#673695" d="M145.3837891,882.9101562c-0.8818359-0.0419922-1.7314453-0.1425781-2.5507812-0.2871094
				C143.6523438,882.7695312,144.5019531,882.8681641,145.3837891,882.9101562z"/>
			<path fill="#673695" d="M142.4101562,882.5546875c-0.2978516-0.0605469-0.5820312-0.1396484-0.8710938-0.2119141
				C141.828125,882.4169922,142.1123047,882.4941406,142.4101562,882.5546875z"/>
			<path fill="#673695" d="M136.3710938,879.9541016c-0.1035156-0.0761719-0.2089844-0.1425781-0.3095703-0.2207031
				C136.1621094,879.8115234,136.2675781,879.8779297,136.3710938,879.9541016z"/>
			<path fill="#673695" d="M140.8144531,882.1474609c-0.2480469-0.0732422-0.4882812-0.1611328-0.7285156-0.2470703
				C140.3251953,881.9873047,140.5673828,882.0722656,140.8144531,882.1474609z"/>
			<path fill="#673695" d="M139.2861328,881.5927734c-0.2070312-0.0878906-0.4111328-0.1787109-0.6123047-0.2734375
				C138.875,881.4140625,139.0791016,881.5048828,139.2861328,881.5927734z"/>
			<path fill="#673695" d="M137.8183594,880.8740234c-0.1650391-0.0908203-0.328125-0.1796875-0.4873047-0.2773438
				C137.4892578,880.6943359,137.6533203,880.7832031,137.8183594,880.8740234z"/>
			<path fill="#673695" d="M60.4970703,146.2138672c0.1269531-0.0712891,0.2558594-0.1396484,0.3828125-0.2070312
				C60.7529297,146.0742188,60.6240234,146.1425781,60.4970703,146.2138672z"/>
			<path fill="#673695" d="M55.9511719,148.8574219c0.2148438-0.1308594,0.4306641-0.2617188,0.6455078-0.3916016
				C56.3818359,148.5957031,56.1660156,148.7265625,55.9511719,148.8574219z"/>
			<path fill="#673695" d="M51.5380859,151.734375c0.2558594-0.1767578,0.5146484-0.3525391,0.7734375-0.5263672
				C52.0517578,151.3818359,51.7949219,151.5576172,51.5380859,151.734375z"/>
			<path fill="#673695" d="M53.7255859,150.2685547c0.2402344-0.15625,0.4814453-0.3105469,0.7236328-0.4658203
				C54.2070312,149.9580078,53.9658203,150.1123047,53.7255859,150.2685547z"/>
			<path fill="#673695" d="M108.1152344,223.515625c-0.0175781,0.0039062-0.0341797,0.0107422-0.0517578,0.0146484
				c0.0175781-0.0039062,0.0341797-0.0107422,0.0537109-0.0146484H108.1152344z"/>
			<path fill="#673695" d="M47.2714844,154.8349609c0.2753906-0.2119141,0.5537109-0.4248047,0.8339844-0.6337891
				C47.8251953,154.4101562,47.546875,154.6230469,47.2714844,154.8349609z"/>
			<path fill="#673695" d="M99.6611328,228.5078125c-0.0107422,0.0107422-0.0244141,0.0214844-0.0332031,0.0332031
				c-4.84375,5.7304688-7.1064453,16.3564453-6.3710938,29.9199219
				c-0.7353516-13.5615234,1.5273438-24.1884766,6.3720703-29.9199219
				C99.6386719,228.5292969,99.6503906,228.5185547,99.6611328,228.5078125z"/>
			<path fill="#673695" d="M49.3828125,153.2587891c0.2714844-0.1953125,0.5429688-0.3925781,0.8154297-0.5849609
				C49.9257812,152.8662109,49.6542969,153.0634766,49.3828125,153.2587891z"/>
			<path fill="#673695" d="M92.0195312,134.9423828c0.0253906-0.0048828,0.0498047-0.0097656,0.0742188-0.0146484
				C92.0693359,134.9326172,92.0449219,134.9375,92.0195312,134.9423828z"/>
			<path fill="#673695" d="M94.6132812,134.4804688c0.0234375-0.0048828,0.0498047-0.0087891,0.0742188-0.0117188
				C94.6630859,134.4716797,94.6367188,134.4755859,94.6132812,134.4804688z"/>
			<path fill="#673695" d="M45.1914062,156.4677734c0.2841797-0.2275391,0.5673828-0.4560547,0.8525391-0.6816406
				C45.7587891,156.0117188,45.4755859,156.2412109,45.1914062,156.4677734z"/>
			<path fill="#673695" d="M97.2353516,134.0751953c0.0195312-0.0029297,0.0380859-0.0058594,0.0576172-0.0078125
				C97.2734375,134.0693359,97.2548828,134.0722656,97.2353516,134.0751953z"/>
			<path fill="#673695" d="M58.2089844,147.5078125c0.1796875-0.1054688,0.3613281-0.2080078,0.5429688-0.3134766
				C58.5703125,147.2998047,58.3886719,147.4023438,58.2089844,147.5078125z"/>
			<path fill="#673695" d="M62.8222656,144.9736328c0.0302734-0.015625,0.0605469-0.0292969,0.0898438-0.0449219
				C62.8828125,144.9443359,62.8525391,144.9580078,62.8222656,144.9736328z"/>
			<path fill="#673695" d="M89.4619141,135.4609375c0.015625-0.0029297,0.0322266-0.0068359,0.0488281-0.0097656
				C89.4941406,135.4541016,89.4775391,135.4580078,89.4619141,135.4609375z"/>
			<path fill="#673695" d="M37.2617188,163.5634766c0.2949219-0.2919922,0.5869141-0.5869141,0.8857422-0.8769531
				C37.8486328,162.9765625,37.5566406,163.2714844,37.2617188,163.5634766z"/>
			<path fill="#673695" d="M72.8056641,943.8964844c-15.6542969-14.9003906-34.8447266-42.4990234-37.3847656-89.375
				c2.5400391,46.8779297,21.7304688,74.4794922,37.3828125,89.3789062
				c21.2851562,20.2617188,49.6445312,30.5166016,79.8642578,28.8789062
				c0.0019531,0.0009766,0.0039062,0.0009766,0.0078125,0.0009766
				C122.4560547,974.4169922,94.0908203,964.1591797,72.8056641,943.8964844z"/>
			<polygon fill="#673695" points="152.6816406,972.7792969 152.6904297,972.7792969 152.6757812,972.7802734 			"/>
			<path fill="#673695" d="M161.8447266,971.9042969c-0.0390625,0.0068359-0.0791016,0.0117188-0.1181641,0.0175781
				C161.765625,971.9160156,161.8056641,971.9111328,161.8447266,971.9042969z"/>
			<path fill="#673695" d="M157.5166016,972.40625c-0.2255859,0.0224609-0.4501953,0.0419922-0.6757812,0.0625
				C157.0664062,972.4482422,157.2910156,972.4287109,157.5166016,972.40625z"/>
			<path fill="#673695" d="M31.578125,169.6533203c0.3505859-0.4072266,0.6992188-0.8154297,1.0546875-1.2158203
				C32.2773438,168.8378906,31.9287109,169.2460938,31.578125,169.6533203z"/>
			<path fill="#673695" d="M33.5126953,167.4707031c0.3046875-0.3359375,0.6074219-0.6728516,0.9160156-1.0029297
				C34.1201172,166.7978516,33.8173828,167.1347656,33.5126953,167.4707031z"/>
			<path fill="#673695" d="M39.1875,161.703125c0.2929688-0.2753906,0.5820312-0.5507812,0.8789062-0.8232422
				C39.7695312,161.1523438,39.4804688,161.4277344,39.1875,161.703125z"/>
			<path fill="#673695" d="M43.1474609,158.1601562c0.2890625-0.2451172,0.578125-0.4902344,0.8701172-0.734375
				C43.7255859,157.6699219,43.4365234,157.9150391,43.1474609,158.1601562z"/>
			<path fill="#673695" d="M41.1494141,159.9033203c0.2910156-0.2607422,0.5810547-0.5214844,0.8759766-0.7783203
				C41.7304688,159.3818359,41.4404297,159.6425781,41.1494141,159.9033203z"/>
			<path fill="#673695" d="M35.3759766,165.4775391c0.296875-0.3085938,0.5917969-0.6210938,0.8925781-0.9267578
				C35.9677734,164.8564453,35.6728516,165.1689453,35.3759766,165.4775391z"/>
			<path fill="#673695" d="M172.3183594,867.5410156c-0.1279297,0.2177734-0.2607422,0.4287109-0.3896484,0.6396484
				C172.0576172,867.9697266,172.1904297,867.7587891,172.3183594,867.5410156z"/>
			<path fill="#673695" d="M266.7832031,845.2070312c-0.0351562-1.0683594-0.0791016-2.1386719-0.1376953-3.2138672
				C266.7041016,843.0683594,266.7480469,844.1386719,266.7832031,845.2070312z"/>
			<path fill="#673695" d="M658.0615234,315.5527344c-6.7333984,6.109375-15.1738281,10.046875-24.2119141,11.2675781
				C642.8886719,325.5996094,651.3291016,321.6621094,658.0615234,315.5527344z"/>
			<path fill="#673695" d="M283.3369141,788.0058594l-25.8867188,3.5
				c3.5273438,10.8505859,6.3486328,23.0136719,7.9814453,36.5253906
				c-1.6328125-13.5117188-4.4541016-25.6748047-7.9804688-36.5253906L283.3369141,788.0058594z"/>
			<path fill="#673695" d="M176.0986328,857.3681641c-0.0126953,0.0625-0.0224609,0.1328125-0.0361328,0.1962891
				C176.0761719,857.5009766,176.0859375,857.4306641,176.0986328,857.3681641z"/>
			<path fill="#673695" d="M169.78125,871.2421875c-0.1757812,0.2216797-0.3505859,0.4433594-0.5322266,0.65625
				C169.4306641,871.6855469,169.6054688,871.4638672,169.78125,871.2421875z"/>
			<path fill="#673695" d="M176.4697266,855.1005859c-0.0292969,0.2128906-0.0537109,0.4277344-0.0869141,0.6386719
				C176.4160156,855.5283203,176.4404297,855.3134766,176.4697266,855.1005859z"/>
			<path fill="#673695" d="M167.4169922,873.8876953c-0.2392578,0.2373047-0.4824219,0.4638672-0.7265625,0.6914062
				C166.9345703,874.3515625,167.1777344,874.125,167.4169922,873.8876953z"/>
			<path fill="#673695" d="M166.4072266,874.8417969c-0.2392578,0.21875-0.4833984,0.4306641-0.7275391,0.6396484
				C165.9238281,875.2724609,166.1679688,875.0605469,166.4072266,874.8417969z"/>
			<path fill="#673695" d="M175.6640625,859.2900391c-0.0527344,0.2050781-0.1123047,0.4033203-0.1679688,0.6074219
				C175.5517578,859.6933594,175.6113281,859.4951172,175.6640625,859.2900391z"/>
			<path fill="#673695" d="M176.8144531,851.0742188c-0.0097656,0.2548828-0.0244141,0.5058594-0.0380859,0.7548828
				C176.7900391,851.5800781,176.8046875,851.3291016,176.8144531,851.0742188z"/>
			<path fill="#673695" d="M176.6904297,853.0947266c-0.0224609,0.2470703-0.0429688,0.4941406-0.0664062,0.7392578
				C176.6474609,853.5888672,176.6679688,853.3417969,176.6904297,853.0947266z"/>
			<path fill="#673695" d="M174.0078125,864.15625c-0.0888672,0.2119141-0.1777344,0.4257812-0.2724609,0.6308594
				C173.8300781,864.5820312,173.9189453,864.3681641,174.0078125,864.15625z"/>
			<path fill="#673695" d="M175.1865234,860.9707031c-0.0722656,0.2265625-0.1474609,0.4511719-0.2207031,0.6738281
				C175.0390625,861.421875,175.1142578,861.1972656,175.1865234,860.9707031z"/>
			<path fill="#673695" d="M171.5126953,868.8457031c-0.1435547,0.2226562-0.2929688,0.4394531-0.4414062,0.6572266
				C171.2197266,869.2851562,171.3691406,869.0683594,171.5126953,868.8457031z"/>
			<path fill="#673695" d="M173.2675781,865.7626953c-0.1308594,0.2607422-0.2636719,0.5214844-0.3984375,0.7783203
				C173.0039062,866.2841797,173.1367188,866.0234375,173.2675781,865.7626953z"/>
			<path fill="#673695" d="M174.6357422,862.5878906c-0.0849609,0.2255859-0.1689453,0.4511719-0.2558594,0.6728516
				C174.4667969,863.0390625,174.5507812,862.8134766,174.6357422,862.5878906z"/>
			<path fill="#673695" d="M170.6640625,870.0820312c-0.1591797,0.2216797-0.3193359,0.4404297-0.484375,0.6542969
				C170.3447266,870.5205078,170.5048828,870.3037109,170.6640625,870.0820312z"/>
			<path fill="#673695" d="M266.828125,851.5c0.0058594-0.3095703,0.0029297-0.6181641,0.0058594-0.9267578
				C266.8320312,850.8808594,266.8339844,851.1904297,266.828125,851.5z"/>
			<path fill="#673695" d="M138.9248047,746.2705078c-0.2324219,1.1123047-0.4228516,2.2236328-0.5751953,3.3330078
				C138.5019531,748.4941406,138.6923828,747.3828125,138.9248047,746.2705078z"/>
			<path fill="#673695" d="M266.7460938,854.5869141c0.0048828-0.1738281,0.0087891-0.3476562,0.0146484-0.5214844
				C266.7548828,854.2392578,266.7509766,854.4130859,266.7460938,854.5869141z"/>
			<path fill="#673695" d="M155.6533203,790.9638672c0.2304688,0.2246094,0.546875,0.5449219,0.921875,0.9423828
				C156.2001953,791.5087891,155.8847656,791.1884766,155.6533203,790.9638672z"/>
			<path fill="#673695" d="M266.59375,857.6425781c0.0029297-0.0771484,0.0078125-0.1513672,0.0117188-0.2285156
				C266.6015625,857.4912109,266.5966797,857.5654297,266.59375,857.6425781z"/>
			<path fill="#673695" d="M675.7705078,656.1005859c0.1318359,0.0917969,0.2666016,0.1748047,0.3955078,0.2675781
				C676.0371094,656.2753906,675.9023438,656.1923828,675.7705078,656.1005859z"/>
			<path fill="#673695" d="M266.8427734,848.3759766c-0.0048828-0.5146484-0.0195312-1.0322266-0.0283203-1.5498047
				C266.8232422,847.34375,266.8378906,847.8613281,266.8427734,848.3759766z"/>
			<path fill="#673695" d="M674.2802734,655.0976562c-8.9287109-5.6962891-19.6318359-8.0888672-30.2226562-6.6533203
				C654.6601562,647.0136719,665.3554688,649.4042969,674.2802734,655.0976562z"/>
			<path fill="#673695" d="M175.4394531,834.3486328c0.4755859,2.9179688,0.8544922,5.9912109,1.1162109,9.2265625
				C176.2939453,840.3398438,175.9150391,837.2666016,175.4394531,834.3486328z"/>
			<path fill="#673695" d="M164.3828125,876.5263672c-1.5947266,1.2167969-3.2617188,2.2548828-4.9482422,3.1123047
				C161.1230469,878.7802734,162.7871094,877.7460938,164.3828125,876.5263672z"/>
			<path fill="#673695" d="M266.3720703,860.6767578c0.0009766-0.0107422,0.0019531-0.0224609,0.0029297-0.0322266
				C266.3740234,860.6542969,266.3730469,860.6660156,266.3720703,860.6767578z"/>
			<path fill="#673695" d="M165.3847656,875.7294922c-0.2539062,0.2099609-0.5097656,0.4179688-0.765625,0.6181641
				C164.875,876.1474609,165.1308594,875.9414062,165.3847656,875.7294922z"/>
			<path fill="#673695" d="M176.8427734,848.9980469c0.0009766,0.2285156-0.0039062,0.4521484-0.0039062,0.6757812
				C176.8388672,849.4501953,176.84375,849.2265625,176.8427734,848.9980469z"/>
			<path fill="#673695" d="M156.8945312,792.2480469c4.1464844,4.4990234,14.6113281,17.9111328,18.5449219,42.1005859
				C171.5058594,810.1591797,161.0419922,796.7480469,156.8945312,792.2480469z"/>
			<path fill="#673695" d="M159.3535156,879.6806641c-0.3378906,0.1689453-0.6748047,0.3330078-1.0146484,0.4882812
				C158.6787109,880.0136719,159.015625,879.8496094,159.3535156,879.6806641z"/>
			<path fill="#673695" d="M117.0996094,223.1982422c0.3769531,0.0517578,0.7558594,0.109375,1.1416016,0.1767578
				C117.8554688,223.3076172,117.4765625,223.25,117.0996094,223.1982422z"/>
			<path fill="#673695" d="M119.7148438,223.6767578c0.3642578,0.0830078,0.7324219,0.1708984,1.1005859,0.2685547
				C120.4472656,223.8476562,120.0791016,223.7597656,119.7148438,223.6767578z"/>
			<path fill="#673695" d="M121.0458984,224.0097656c0.3564453,0.0966797,0.7158203,0.1992188,1.0742188,0.3115234
				C121.7617188,224.2089844,121.4033203,224.1074219,121.0458984,224.0097656z"/>
			<path fill="#673695" d="M122.3974609,224.4130859c0.3447266,0.1103516,0.6894531,0.2236328,1.0351562,0.3466797
				C123.0869141,224.6357422,122.7421875,224.5234375,122.3974609,224.4130859z"/>
			<path fill="#673695" d="M118.3896484,223.4042969c0.375,0.0683594,0.7509766,0.1416016,1.1298828,0.2255859
				C119.140625,223.5458984,118.7646484,223.4726562,118.3896484,223.4042969z"/>
			<path fill="#673695" d="M132.9697266,230.1914062c0.2128906,0.1767578,0.4287109,0.3476562,0.6386719,0.5322266
				C133.3984375,230.5390625,133.1826172,230.3681641,132.9697266,230.1914062z"/>
			<path fill="#673695" d="M113.421875,222.9316406c0.3652344,0.0019531,0.7363281,0.0097656,1.1113281,0.0283203
				C114.1582031,222.9423828,113.7871094,222.9335938,113.421875,222.9316406z"/>
			<path fill="#673695" d="M123.7539062,224.8808594c0.3300781,0.1230469,0.6611328,0.2480469,0.9931641,0.3818359
				C124.4150391,225.1289062,124.0849609,225.0039062,123.7539062,224.8808594z"/>
			<path fill="#673695" d="M115.8378906,223.0507812c0.3769531,0.0361328,0.7568359,0.0771484,1.1396484,0.1289062
				C116.5947266,223.1279297,116.2148438,223.0869141,115.8378906,223.0507812z"/>
			<path fill="#673695" d="M129.1328125,227.46875c0.265625,0.1591797,0.5322266,0.3173828,0.7939453,0.4873047
				C129.6650391,227.7861328,129.3984375,227.6279297,129.1328125,227.46875z"/>
			<path fill="#673695" d="M130.4375,228.2988281c0.2490234,0.1669922,0.5,0.3300781,0.7441406,0.5058594
				C130.9375,228.6289062,130.6865234,228.4658203,130.4375,228.2988281z"/>
			<path fill="#673695" d="M131.7226562,229.2070312c0.2304688,0.1728516,0.4619141,0.3408203,0.6894531,0.5185547
				C132.1845703,229.5478516,131.953125,229.3798828,131.7226562,229.2070312z"/>
			<path fill="#673695" d="M125.1113281,225.421875c0.3164062,0.1337891,0.6308594,0.2666016,0.9443359,0.4130859
				C125.7421875,225.6884766,125.4277344,225.5556641,125.1113281,225.421875z"/>
			<path fill="#673695" d="M127.8095703,226.7167969c0.2822266,0.1513672,0.5654297,0.2998047,0.8427734,0.4609375
				C128.375,227.0166016,128.0917969,226.8681641,127.8095703,226.7167969z"/>
			<path fill="#673695" d="M126.46875,226.0351562c0.2978516,0.1416016,0.5976562,0.2832031,0.8916016,0.4355469
				C127.0664062,226.3183594,126.7666016,226.1767578,126.46875,226.0351562z"/>
			<path fill="#673695" d="M114.6044922,222.9628906c0.3740234,0.0195312,0.7529297,0.0449219,1.1367188,0.0791016
				C115.3574219,223.0078125,114.9785156,222.9824219,114.6044922,222.9628906z"/>
			<path fill="#673695" d="M234.6132812,250.8017578c-0.0546875-1.0351562-0.1259766-2.0644531-0.2050781-3.0927734
				C234.4873047,248.7373047,234.5585938,249.7666016,234.6132812,250.8017578z"/>
			<path fill="#673695" d="M231.7373047,229.4316406c-0.0673828-0.3125-0.1318359-0.6259766-0.2001953-0.9384766
				C231.6054688,228.8056641,231.6699219,229.1191406,231.7373047,229.4316406z"/>
			<path fill="#673695" d="M234.3203125,246.6689453c-0.0576172-0.6777344-0.1171875-1.3554688-0.1845703-2.0322266
				C234.203125,245.3134766,234.2617188,245.9892578,234.3203125,246.6689453z"/>
			<path fill="#673695" d="M232.9960938,290.1708984c1.6943359-11.9208984,2.3935547-25.0478516,1.6171875-39.3691406
				C235.3896484,265.1230469,234.6894531,278.2509766,232.9960938,290.1708984z"/>
			<path fill="#673695" d="M112.2832031,222.9560547c0.3515625-0.015625,0.7089844-0.0234375,1.0722656-0.0244141
				C112.9921875,222.9326172,112.6347656,222.9404297,112.2832031,222.9560547z"/>
			<path fill="#673695" d="M233.1875,237.1943359c-0.0830078-0.5410156-0.1738281-1.0800781-0.2646484-1.6191406
				C233.0136719,236.1142578,233.1044922,236.6533203,233.1875,237.1943359z"/>
			<path fill="#673695" d="M233.6289062,240.2626953c-0.0742188-0.5673828-0.1552734-1.1318359-0.2353516-1.6953125
				C233.4736328,239.1308594,233.5546875,239.6953125,233.6289062,240.2626953z"/>
			<path fill="#673695" d="M234.0048828,243.3964844c-0.0664062-0.6035156-0.1337891-1.2060547-0.2070312-1.8066406
				C233.8710938,242.1904297,233.9384766,242.7929688,234.0048828,243.3964844z"/>
			<path fill="#673695" d="M227.8222656,215.3164062c-0.0107422-0.0283203-0.0214844-0.0585938-0.0322266-0.0888672
				C227.8007812,215.2578125,227.8115234,215.2880859,227.8222656,215.3164062z"/>
			<path fill="#673695" d="M224.9707031,207.7548828c-0.0117188-0.0283203-0.0224609-0.0576172-0.0341797-0.0869141l0,0
				C224.9472656,207.6982422,224.9589844,207.7265625,224.9707031,207.7548828z"/>
			<path fill="#673695" d="M231.1035156,226.6660156c-0.0820312-0.3447266-0.1621094-0.6904297-0.2480469-1.0341797
				C230.9414062,225.9755859,231.0214844,226.3212891,231.1035156,226.6660156z"/>
			<path fill="#673695" d="M228.7373047,218.1162109c-0.0712891-0.2275391-0.1464844-0.4560547-0.2197266-0.6855469
				C228.5908203,217.6601562,228.6660156,217.8886719,228.7373047,218.1162109z"/>
			<path fill="#673695" d="M229.5908203,220.9443359c-0.0859375-0.2949219-0.171875-0.5888672-0.2597656-0.8837891
				C229.4189453,220.3554688,229.5048828,220.6494141,229.5908203,220.9443359z"/>
			<path fill="#673695" d="M230.3798828,223.7958984c-0.0859375-0.3271484-0.1738281-0.6552734-0.2626953-0.9824219
				C230.2060547,223.140625,230.2939453,223.46875,230.3798828,223.7958984z"/>
			<path fill="#673695" d="M134.1787109,231.2480469c0.1982422,0.1835938,0.3994141,0.3613281,0.59375,0.5507812
				C134.578125,231.609375,134.3769531,231.4316406,134.1787109,231.2480469z"/>
			<path fill="#673695" d="M143.0683594,282.2675781c-0.5957031,3.0859375-1.3037109,5.9492188-2.0830078,8.5791016
				C141.7646484,288.2167969,142.4726562,285.3535156,143.0683594,282.2675781z"/>
			<path fill="#673695" d="M144.5742188,271.1611328c-0.1142578,1.4189453-0.2607422,2.7919922-0.421875,4.1396484
				C144.3134766,273.953125,144.4599609,272.5800781,144.5742188,271.1611328z"/>
			<path fill="#673695" d="M119.9628906,326.4472656c2.3427734-4.7470703,5.6152344-9.1318359,9.8203125-12.9208984
				c1.5976562-1.9306641,7.2539062-9.4003906,11.1806641-22.6113281
				c-3.9257812,13.2089844-9.5820312,20.6787109-11.1806641,22.6103516
				C125.578125,317.3134766,122.3046875,321.6992188,119.9628906,326.4472656z"/>
			<path fill="#673695" d="M162.2900391,390.2246094c-17.7871094,0.3496094-34.9365234-9.1298828-42.3925781-25.5009766
				C127.3515625,381.09375,144.5019531,390.5742188,162.2900391,390.2246094z"/>
			<path fill="#673695" d="M144.7441406,255.6708984c0.0693359,1.2666016,0.1123047,2.5048828,0.1416016,3.7285156
				C144.8564453,258.1757812,144.8134766,256.9375,144.7441406,255.6708984z"/>
			<path fill="#673695" d="M144.7802734,267.9072266c-0.0292969,0.6298828-0.0712891,1.2441406-0.1132812,1.8623047
				C144.7089844,269.1523438,144.7509766,268.5371094,144.7802734,267.9072266z"/>
			<path fill="#673695" d="M154.1220703,881.7695312c1.3857422-0.4150391,2.7958984-0.9423828,4.1982422-1.5908203
				c-1.40625,0.6484375-2.8183594,1.1777344-4.2080078,1.59375L154.1220703,881.7695312z"/>
			<path fill="#673695" d="M144.4833984,252.7099609c0.0234375,0.2246094,0.0595703,0.4404297,0.0810547,0.6669922
				C144.5429688,253.1503906,144.5068359,252.9345703,144.4833984,252.7099609z"/>
			<path fill="#673695" d="M232.6826172,234.1660156c-0.0917969-0.5107422-0.1923828-1.0195312-0.2880859-1.5292969
				C232.4902344,233.1464844,232.5908203,233.6552734,232.6826172,234.1660156z"/>
			<path fill="#673695" d="M155.6533203,790.9638672c-13.4150391-9.6816406-19.5058594-25.2724609-17.3037109-41.3603516
				C136.1474609,765.6914062,142.2373047,781.2822266,155.6533203,790.9638672z"/>
			<path fill="#673695" d="M167.4238281,873.8798828c0.5146484-0.5087891,1.0097656-1.046875,1.4951172-1.6044922
				C168.4335938,872.8330078,167.9384766,873.3710938,167.4238281,873.8798828z"/>
			<path fill="#673695" d="M138.5566406,236.28125c0.1416016,0.2021484,0.2880859,0.4003906,0.4238281,0.6083984
				C138.8447266,236.6816406,138.6982422,236.4833984,138.5566406,236.28125z"/>
			<path fill="#673695" d="M139.5009766,237.7246094c0.1328125,0.2158203,0.2705078,0.4248047,0.3984375,0.6455078
				C139.7714844,238.1494141,139.6337891,237.9404297,139.5009766,237.7246094z"/>
			<path fill="#673695" d="M140.3886719,239.2617188c0.1210938,0.2246094,0.2490234,0.4414062,0.3652344,0.6708984
				C140.6376953,239.703125,140.5097656,239.4863281,140.3886719,239.2617188z"/>
			<path fill="#673695" d="M137.5400391,234.9003906c0.1542969,0.1972656,0.3144531,0.390625,0.4638672,0.5947266
				C137.8544922,235.2910156,137.6943359,235.0976562,137.5400391,234.9003906z"/>
			<path fill="#673695" d="M144.1494141,250.4101562c0.0449219,0.2587891,0.0966797,0.5068359,0.1367188,0.7685547
				C144.2460938,250.9169922,144.1943359,250.6689453,144.1494141,250.4101562z"/>
			<path fill="#673695" d="M136.4648438,233.5966797c0.1708984,0.1953125,0.3447266,0.3837891,0.5107422,0.5859375
				C136.8095703,233.9804688,136.6357422,233.7919922,136.4648438,233.5966797z"/>
			<path fill="#673695" d="M135.3388672,232.3779297c0.1865234,0.1904297,0.3769531,0.3769531,0.5576172,0.5742188
				C135.7158203,232.7548828,135.5253906,232.5683594,135.3388672,232.3779297z"/>
			<path fill="#673695" d="M142.6328125,244.4072266c0.0839844,0.2480469,0.1757812,0.4882812,0.2568359,0.7412109
				C142.8085938,244.8955078,142.7167969,244.6552734,142.6328125,244.4072266z"/>
			<path fill="#673695" d="M143.2294922,246.3203125c0.0693359,0.25,0.1474609,0.4912109,0.2138672,0.7441406
				C143.3769531,246.8115234,143.2988281,246.5703125,143.2294922,246.3203125z"/>
			<path fill="#673695" d="M143.7304688,248.3017578c0.0605469,0.2587891,0.1259766,0.5107422,0.1796875,0.7734375
				C143.8564453,248.8125,143.7910156,248.5605469,143.7304688,248.3017578z"/>
			<path fill="#673695" d="M141.2138672,240.8984375c0.1074219,0.2285156,0.2216797,0.4511719,0.3271484,0.6845703
				C141.4355469,241.3496094,141.3212891,241.1269531,141.2138672,240.8984375z"/>
			<path fill="#673695" d="M141.9609375,242.6074219c0.0966797,0.2392578,0.2001953,0.4697266,0.2929688,0.7138672
				C142.1611328,243.0771484,142.0576172,242.8466797,141.9609375,242.6074219z"/>
			<path fill="#673695" d="M108.1171875,223.515625l4.1054688-0.5576172
				c-0.0576172,0.0029297-0.1181641,0.0019531-0.1748047,0.0048828
				C110.6552734,223.0390625,109.3466797,223.2265625,108.1171875,223.515625z"/>
			<path fill="#673695" d="M112.2226562,222.9580078h0.0048828c-0.0595703,0.0029297-0.1220703,0.0019531-0.1796875,0.0048828
				C112.1044922,222.9599609,112.1650391,222.9609375,112.2226562,222.9580078z"/>
			<path fill="#673695" d="M206.8105469,177.3378906c1.453125,1.7783203,2.8564453,3.59375,4.2041016,5.4492188
				C209.6660156,180.9326172,208.2636719,179.1152344,206.8105469,177.3378906z"/>
			<path fill="#673695" d="M211.2070312,183.0595703c0.5976562,0.8291016,1.1884766,1.6679688,1.7675781,2.5126953
				C212.3955078,184.7275391,211.8056641,183.8886719,211.2070312,183.0595703z"/>
			<path fill="#673695" d="M197.6660156,167.3730469c0.4882812,0.4775391,0.9736328,0.953125,1.4541016,1.4384766
				C198.640625,168.3271484,198.1542969,167.8505859,197.6660156,167.3730469z"/>
			<path fill="#673695" d="M220.4091797,197.9736328c1.6425781,3.1503906,3.1494141,6.3779297,4.5195312,9.6777344
				C223.5585938,204.3515625,222.0517578,201.1240234,220.4091797,197.9736328z"/>
			<path fill="#673695" d="M191.9335938,162.1308594c0.7587891,0.6503906,1.5126953,1.3066406,2.2519531,1.9746094
				C193.4462891,163.4375,192.6923828,162.78125,191.9335938,162.1308594z"/>
			<path fill="#673695" d="M195.1025391,164.9482422c0.5292969,0.4882812,1.0605469,0.9765625,1.5820312,1.4736328
				C196.1630859,165.9248047,195.6318359,165.4365234,195.1025391,164.9482422z"/>
			<path fill="#673695" d="M200.0859375,169.7978516c0.4765625,0.4921875,0.9492188,0.9892578,1.4179688,1.4882812
				C201.0351562,170.7871094,200.5625,170.2900391,200.0859375,169.7978516z"/>
			<path fill="#673695" d="M202.4082031,172.2617188c0.4882812,0.53125,0.9667969,1.0673828,1.4443359,1.6074219
				C203.375,173.3291016,202.8964844,172.7929688,202.4082031,172.2617188z"/>
			<path fill="#673695" d="M204.6474609,174.7724609c0.5371094,0.6210938,1.0664062,1.2480469,1.5898438,1.8789062
				C205.7148438,176.0214844,205.1845703,175.3935547,204.6474609,174.7724609z"/>
			<path fill="#673695" d="M218.7978516,194.9892578c0.5302734,0.953125,1.0507812,1.9121094,1.5556641,2.8798828
				C219.8486328,196.9013672,219.328125,195.9423828,218.7978516,194.9892578z"/>
			<path fill="#673695" d="M215.2978516,189.1074219c0.4794922,0.7578125,0.9511719,1.5195312,1.4130859,2.2861328
				C216.2490234,190.6269531,215.7773438,189.8652344,215.2978516,189.1074219z"/>
			<path fill="#673695" d="M104.8027344,133.2529297c-0.7539062,0.0566406-1.5048828,0.1220703-2.2539062,0.1933594
				l-0.0097656,0.0009766C103.2910156,133.3759766,104.0458984,133.3125,104.8027344,133.2529297z"/>
			<path fill="#673695" d="M217.0976562,192.0371094c0.4824219,0.8115234,0.9570312,1.6318359,1.4208984,2.4560547
				C218.0546875,193.6689453,217.5800781,192.8486328,217.0976562,192.0371094z"/>
			<path fill="#673695" d="M213.3701172,186.1630859c0.5097656,0.7529297,1.0107422,1.5087891,1.5009766,2.2734375
				C214.3808594,187.6728516,213.8798828,186.9160156,213.3701172,186.1630859z"/>
			<path fill="#673695" d="M196.6845703,166.421875c0.3300781,0.3144531,0.65625,0.6337891,0.9814453,0.9511719
				C197.3408203,167.0556641,197.0146484,166.7363281,196.6845703,166.421875z"/>
			<path fill="#673695" d="M194.1855469,164.1054688c0.3085938,0.2773438,0.609375,0.5615234,0.9169922,0.8427734
				C194.7949219,164.6669922,194.4941406,164.3828125,194.1855469,164.1054688z"/>
			<path fill="#673695" d="M191.9335938,162.1308594c-0.0966797-0.0830078-0.1904297-0.1699219-0.2890625-0.2519531
				c-21.9667969-18.6865234-50.3974609-29.0751953-78.7910156-28.9492188
				c28.3935547-0.1259766,56.8232422,10.2646484,78.7919922,28.9501953
				C191.7431641,161.9619141,191.8369141,162.0478516,191.9335938,162.1308594z"/>
			<path fill="#673695" d="M112.0478516,222.9628906c-1.3935547,0.0761719-2.7021484,0.2636719-3.9326172,0.5527344h0.0019531
				C109.3466797,223.2265625,110.6552734,223.0390625,112.0478516,222.9628906z"/>
			<path fill="#673695" d="M104.8027344,133.2529297c0.7890625-0.0595703,1.5810547-0.1142578,2.3740234-0.1572266
				C106.3837891,133.1386719,105.5927734,133.1914062,104.8027344,133.2529297z"/>
			<path fill="#673695" d="M216.7109375,191.3935547c0.1308594,0.2148438,0.2578125,0.4287109,0.3867188,0.6435547
				C216.96875,191.8222656,216.8417969,191.6083984,216.7109375,191.3935547z"/>
			<path fill="#673695" d="M220.3535156,197.8691406c0.0185547,0.0351562,0.0371094,0.0703125,0.0556641,0.1044922
				C220.390625,197.9394531,220.3720703,197.9042969,220.3535156,197.8691406z"/>
			<path fill="#673695" d="M218.5185547,194.4931641c0.0927734,0.1650391,0.1884766,0.3300781,0.2792969,0.4960938
				C218.7070312,194.8232422,218.6113281,194.6582031,218.5185547,194.4931641z"/>
			<path fill="#673695" d="M224.9365234,207.6679688c-0.0029297-0.0048828-0.0048828-0.0107422-0.0078125-0.0166016
				C224.9316406,207.6572266,224.9335938,207.6630859,224.9365234,207.6679688L224.9365234,207.6679688z"/>
			<path fill="#673695" d="M199.1201172,168.8115234c0.3242188,0.3271484,0.6455078,0.65625,0.9658203,0.9863281
				C199.765625,169.4677734,199.4443359,169.1386719,199.1201172,168.8115234z"/>
			<path fill="#673695" d="M214.8710938,188.4365234c0.1445312,0.2226562,0.2861328,0.4472656,0.4267578,0.6708984
				C215.1572266,188.8837891,215.015625,188.6591797,214.8710938,188.4365234z"/>
			<path fill="#673695" d="M212.9746094,185.5722656c0.1328125,0.1962891,0.2626953,0.3935547,0.3955078,0.5908203
				C213.2373047,185.9658203,213.1074219,185.7685547,212.9746094,185.5722656z"/>
			<path fill="#673695" d="M201.5039062,171.2861328c0.3027344,0.3222656,0.6044922,0.6484375,0.9042969,0.9755859
				C202.1083984,171.9345703,201.8066406,171.6083984,201.5039062,171.2861328z"/>
			<path fill="#673695" d="M203.8525391,173.8691406c0.2666016,0.3007812,0.5332031,0.6015625,0.7949219,0.9033203
				C204.3857422,174.4707031,204.1191406,174.1699219,203.8525391,173.8691406z"/>
			<path fill="#673695" d="M211.0146484,182.7871094c0.0644531,0.0888672,0.1289062,0.1816406,0.1923828,0.2724609
				C211.1435547,182.96875,211.0791016,182.8759766,211.0146484,182.7871094z"/>
			<path fill="#673695" d="M206.2373047,176.6513672c0.1904297,0.2294922,0.3857422,0.4560547,0.5732422,0.6865234
				C206.6230469,177.1074219,206.4277344,176.8808594,206.2373047,176.6513672z"/>
			<path fill="#673695" d="M146.2353516,882.9355469c0.515625,0.0048828,1.0322266,0.0048828,1.5673828-0.0224609
				c0.453125-0.0253906,0.9169922-0.0683594,1.3876953-0.1220703c0.1015625-0.0126953,0.2070312-0.0244141,0.3085938-0.0390625
				c0.4121094-0.0517578,0.8310547-0.1132812,1.2548828-0.1875c0.0605469-0.0097656,0.1210938-0.0195312,0.1806641-0.03125
				c1.0361328-0.1884766,2.0986328-0.4404297,3.1777344-0.7607422l-8.5488281,1.1484375
				c0.0058594,0,0.0107422,0,0.0166016,0.0019531C145.796875,882.9316406,146.0166016,882.9316406,146.2353516,882.9355469z"/>
			<path fill="#673695" d="M150.9345703,882.5332031c-0.0595703,0.0117188-0.1201172,0.0214844-0.1806641,0.03125
				C150.8144531,882.5546875,150.875,882.5449219,150.9345703,882.5332031z"/>
			<path fill="#673695" d="M145.5634766,882.9208984l-0.0058594,0.0009766c0.0078125,0,0.015625-0.0009766,0.0224609,0.0009766
				C145.5742188,882.9208984,145.5693359,882.9208984,145.5634766,882.9208984z"/>
			<path fill="#673695" d="M149.4990234,882.7519531c-0.1015625,0.0146484-0.2070312,0.0263672-0.3085938,0.0390625
				C149.2919922,882.7783203,149.3974609,882.7666016,149.4990234,882.7519531z"/>
			<path fill="#673695" d="M147.7998047,882.9130859c0.0009766,0,0.0019531,0,0.0029297,0
				c-0.5351562,0.0273438-1.0517578,0.0273438-1.5673828,0.0224609
				C146.7480469,882.9423828,147.265625,882.9414062,147.7998047,882.9130859z"/>
			<path fill="#673695" d="M256.9033203,899.3056641c-0.6035156,1.4238281-1.2304688,2.8330078-1.8876953,4.2304688
				C255.6728516,902.1386719,256.2998047,900.7294922,256.9033203,899.3056641z"/>
			<path fill="#673695" d="M212.3916016,952.7753906c-3.7792969,2.5-7.6884766,4.7890625-11.7099609,6.8525391
				C204.703125,957.5634766,208.6123047,955.2763672,212.3916016,952.7753906z"/>
			<path fill="#673695" d="M226.8398438,941.5742188c-1.0625,0.9599609-2.140625,1.9023438-3.2353516,2.8222656
				C224.6992188,943.4746094,225.7773438,942.5341797,226.8398438,941.5742188z"/>
			<path fill="#673695" d="M230.1298828,938.4833984c-1.0224609,0.9990234-2.0605469,1.9775391-3.1171875,2.9355469
				C228.0693359,940.4609375,229.1074219,939.4824219,230.1298828,938.4833984z"/>
			<path fill="#673695" d="M219.7539062,947.5009766c-2.3203125,1.7949219-4.7001953,3.5029297-7.1376953,5.1240234
				C215.0537109,951.0039062,217.4335938,949.2958984,219.7539062,947.5009766z"/>
			<path fill="#673695" d="M230.5253906,938.0976562c1.0195312-1.0039062,2.0273438-2.0185547,3.0117188-3.0595703
				c1.0195312-1.0771484,2.0058594-2.1748047,2.9814453-3.2832031c-0.9746094,1.1074219-1.9628906,2.2041016-2.9814453,3.2802734
				C232.5517578,936.0751953,231.5449219,937.09375,230.5253906,938.0976562z"/>
			<path fill="#673695" d="M265.7158203,866.7568359L265.7158203,866.7568359
				c-1.4863281,11.2998047-4.4306641,22.1767578-8.7529297,32.4082031
				C261.2871094,888.9335938,264.2294922,878.0566406,265.7158203,866.7568359z"/>
			<path fill="#673695" d="M254.9951172,903.5791016c-0.6503906,1.3876953-1.3320312,2.7597656-2.0351562,4.1191406
				C253.6640625,906.3378906,254.3427734,904.9667969,254.9951172,903.5791016z"/>
			<path fill="#673695" d="M250.6044922,912.0322266c-0.7421875,1.3007812-1.5126953,2.5859375-2.3037109,3.8574219
				C249.0917969,914.6181641,249.8623047,913.3330078,250.6044922,912.0322266z"/>
			<path fill="#673695" d="M245.5634766,920.1035156c-0.8339844,1.2236328-1.6953125,2.4287109-2.5742188,3.6201172
				C243.8681641,922.5322266,244.7294922,921.3271484,245.5634766,920.1035156z"/>
			<path fill="#673695" d="M242.5595703,924.3027344c-1.7568359,2.3525391-3.6025391,4.6464844-5.5390625,6.8779297
				C238.9570312,928.9492188,240.8027344,926.6552734,242.5595703,924.3027344z"/>
			<path fill="#673695" d="M223.4492188,944.5263672c-1.1123047,0.9345703-2.2431641,1.8447266-3.3867188,2.7363281
				C221.2060547,946.3710938,222.3369141,945.4609375,223.4492188,944.5263672z"/>
			<path fill="#673695" d="M247.9853516,916.3916016c-0.7773438,1.2363281-1.5722656,2.4638672-2.3974609,3.6728516
				C246.4130859,918.8554688,247.2080078,917.6279297,247.9853516,916.3916016z"/>
			<path fill="#673695" d="M252.7763672,908.0488281c-0.6884766,1.3154297-1.3945312,2.6201172-2.1308594,3.9111328
				C251.3818359,910.6689453,252.0878906,909.3642578,252.7763672,908.0488281z"/>
			<path fill="#673695" d="M170.7607422,970.3408203h0.0136719c10.3466797-2.2255859,20.4121094-5.8408203,29.8769531-10.6982422
				C191.1826172,964.4990234,181.1103516,968.1162109,170.7607422,970.3408203z"/>
			<path fill="#673695" d="M237.0205078,931.1806641c-0.1669922,0.1914062-0.3330078,0.3828125-0.5019531,0.5742188
				C236.6875,931.5634766,236.8535156,931.3720703,237.0205078,931.1806641z"/>
			<path fill="#673695" d="M230.5253906,938.0976562c-0.1308594,0.1269531-0.2617188,0.2587891-0.3955078,0.3857422
				C230.2636719,938.3544922,230.3935547,938.2246094,230.5253906,938.0976562z"/>
			<path fill="#673695" d="M227.0126953,941.4189453c-0.0566406,0.0527344-0.1162109,0.1054688-0.1728516,0.1552734
				C226.8964844,941.5234375,226.9560547,941.4716797,227.0126953,941.4189453z"/>
			<path fill="#673695" d="M212.6162109,952.625c-0.0742188,0.0498047-0.1494141,0.0976562-0.2246094,0.1503906
				C212.4667969,952.7226562,212.5419922,952.6748047,212.6162109,952.625z"/>
			<path fill="#673695" d="M223.6044922,944.3964844c-0.0517578,0.0429688-0.1035156,0.0869141-0.1552734,0.1298828
				C223.5009766,944.4833984,223.5527344,944.4394531,223.6044922,944.3964844z"/>
			<path fill="#673695" d="M200.6816406,959.6279297c-0.0097656,0.0048828-0.0214844,0.0097656-0.0302734,0.0146484
				C200.6601562,959.6376953,200.671875,959.6328125,200.6816406,959.6279297z"/>
			<path fill="#673695" d="M147.8046875,882.9130859c0.4521484-0.0253906,0.9160156-0.0693359,1.3857422-0.1220703
				c-0.4707031,0.0537109-0.9345703,0.0966797-1.3876953,0.1220703
				C147.8027344,882.9130859,147.8037109,882.9130859,147.8046875,882.9130859z"/>
			<path fill="#673695" d="M242.9892578,923.7236328c-0.1425781,0.1943359-0.2861328,0.3867188-0.4296875,0.5791016
				C242.703125,924.1103516,242.8466797,923.9179688,242.9892578,923.7236328z"/>
			<path fill="#673695" d="M220.0625,947.2626953c-0.1015625,0.0791016-0.2060547,0.1572266-0.3085938,0.2382812
				C219.8564453,947.4199219,219.9609375,947.3417969,220.0625,947.2626953z"/>
			<path fill="#673695" d="M150.9345703,882.5332031c1.0390625-0.1875,2.1044922-0.4394531,3.1875-0.7636719l-0.0097656,0.0029297
				C153.0332031,882.0927734,151.9707031,882.3447266,150.9345703,882.5332031z"/>
			<path fill="#673695" d="M252.9599609,907.6982422c-0.0605469,0.1162109-0.1230469,0.2324219-0.1835938,0.3505859
				C252.8369141,907.9306641,252.8994141,907.8144531,252.9599609,907.6982422z"/>
			<path fill="#673695" d="M245.5878906,920.0644531c-0.0087891,0.0136719-0.015625,0.0263672-0.0244141,0.0390625
				C245.5722656,920.0908203,245.5791016,920.078125,245.5878906,920.0644531z"/>
			<path fill="#673695" d="M248.3007812,915.8896484c-0.1035156,0.1689453-0.2099609,0.3330078-0.3154297,0.5019531
				C248.0908203,916.2226562,248.1972656,916.0585938,248.3007812,915.8896484z"/>
			<path fill="#673695" d="M255.015625,903.5361328c-0.0068359,0.015625-0.0136719,0.0273438-0.0205078,0.0429688
				C255.0019531,903.5634766,255.0087891,903.5517578,255.015625,903.5361328z"/>
			<path fill="#673695" d="M146.2353516,882.9355469c-0.21875-0.0039062-0.4384766-0.0039062-0.6552734-0.0126953
				C145.796875,882.9316406,146.0175781,882.9335938,146.2353516,882.9355469z"/>
			<path fill="#673695" d="M150.7539062,882.5644531c-0.4238281,0.0742188-0.8427734,0.1357422-1.2548828,0.1875
				C149.9111328,882.7001953,150.3300781,882.6386719,150.7539062,882.5644531z"/>
			<path fill="#673695" d="M256.9628906,899.1650391c-0.0185547,0.0478516-0.0390625,0.09375-0.0595703,0.140625
				C256.9238281,899.2587891,256.9443359,899.2128906,256.9628906,899.1650391z"/>
			<path fill="#673695" d="M250.6455078,911.9599609c-0.0136719,0.0234375-0.0283203,0.0498047-0.0410156,0.0722656
				C250.6171875,912.0097656,250.6318359,911.9833984,250.6455078,911.9599609z"/>
			<path fill="#673695" d="M677.9941406,657.7382812c-0.5986328-0.4726562-1.2070312-0.9296875-1.828125-1.3701172
				c-0.1289062-0.0927734-0.2636719-0.1757812-0.3955078-0.2675781c-0.4921875-0.3417969-0.9873047-0.6826172-1.4902344-1.0029297
				c-8.9248047-5.6933594-19.6201172-8.0839844-30.2226562-6.6533203l-466.0292969,62.9765625
				c-18.3544922,2.4785156-34.3476562,15.1845703-38.7275391,33.1816406
				c-0.1347656,0.5546875-0.2617188,1.1113281-0.3759766,1.6679688c-0.2324219,1.1123047-0.4228516,2.2236328-0.5751953,3.3330078
				c-2.2021484,16.0878906,3.8886719,31.6787109,17.3037109,41.3603516c0.2314453,0.2246094,0.546875,0.5449219,0.921875,0.9423828
				c0.1025391,0.1064453,0.2060547,0.2177734,0.3193359,0.3417969c4.1474609,4.5,14.6113281,17.9111328,18.5449219,42.1005859
				c0.4755859,2.9179688,0.8544922,5.9912109,1.1162109,9.2265625c0.0888672,1.0771484,0.1611328,2.1738281,0.2226562,3.2871094
				c0.0390625,0.7255859,0.0576172,1.4355469,0.0644531,2.1357422c0.0009766,0.2285156-0.0039062,0.4521484-0.0039062,0.6757812
				c-0.0019531,0.4726562-0.0087891,0.9404297-0.0244141,1.4003906c-0.0097656,0.2548828-0.0244141,0.5058594-0.0380859,0.7548828
				c-0.0224609,0.4267578-0.0507812,0.8486328-0.0859375,1.265625c-0.0224609,0.2470703-0.0429688,0.4941406-0.0664062,0.7392578
				c-0.0449219,0.4277344-0.0976562,0.8486328-0.1542969,1.2666016c-0.0292969,0.2128906-0.0537109,0.4277344-0.0869141,0.6386719
				c-0.0839844,0.5517578-0.1796875,1.0947266-0.2841797,1.6289062c-0.0126953,0.0625-0.0224609,0.1328125-0.0361328,0.1962891
				c-0.1201172,0.5859375-0.2548828,1.1601562-0.3984375,1.7255859c-0.0527344,0.2050781-0.1123047,0.4033203-0.1679688,0.6074219
				c-0.1005859,0.3613281-0.2011719,0.7197266-0.3095703,1.0732422c-0.0722656,0.2265625-0.1474609,0.4511719-0.2207031,0.6738281
				c-0.1074219,0.3173828-0.2167969,0.6318359-0.3300781,0.9433594c-0.0849609,0.2255859-0.1689453,0.4511719-0.2558594,0.6728516
				c-0.1191406,0.3037109-0.2441406,0.6015625-0.3720703,0.8955078c-0.0888672,0.2119141-0.1777344,0.4257812-0.2724609,0.6308594
				c-0.1494141,0.3320312-0.3085938,0.6552734-0.4677734,0.9755859c-0.1308594,0.2607422-0.2636719,0.5214844-0.3984375,0.7783203
				c-0.1796875,0.3359375-0.359375,0.6728516-0.5507812,1c-0.1279297,0.2177734-0.2607422,0.4287109-0.3896484,0.6396484
				c-0.1386719,0.2246094-0.2734375,0.4472656-0.4160156,0.6650391c-0.1435547,0.2226562-0.2929688,0.4394531-0.4414062,0.6572266
				c-0.1347656,0.1953125-0.2685547,0.3886719-0.4072266,0.5791016c-0.1591797,0.2216797-0.3193359,0.4384766-0.484375,0.6542969
				c-0.1308594,0.1708984-0.2626953,0.3378906-0.3984375,0.5058594c-0.1757812,0.2216797-0.3505859,0.4433594-0.5322266,0.65625
				c-0.1083984,0.1289062-0.2197266,0.2509766-0.3300781,0.3769531c-0.4853516,0.5576172-0.9804688,1.0957031-1.4951172,1.6044922
				c-0.0019531,0.0019531-0.0039062,0.0058594-0.0068359,0.0078125c-0.2392578,0.2373047-0.4824219,0.4638672-0.7265625,0.6914062
				c-0.0947266,0.0869141-0.1884766,0.1767578-0.2832031,0.2626953c-0.2392578,0.21875-0.4833984,0.4306641-0.7275391,0.6396484
				c-0.0996094,0.0820312-0.1962891,0.1650391-0.2949219,0.2480469c-0.2539062,0.2119141-0.5097656,0.4179688-0.765625,0.6181641
				c-0.0791016,0.0585938-0.1582031,0.1201172-0.2363281,0.1787109c-1.5957031,1.2197266-3.2597656,2.2539062-4.9482422,3.1123047
				c-0.0273438,0.0126953-0.0546875,0.0283203-0.0810547,0.0419922c-0.3378906,0.1689453-0.6748047,0.3330078-1.0146484,0.4882812
				c-0.0048828,0.0048828-0.0107422,0.0058594-0.0185547,0.0097656c-1.4023438,0.6484375-2.8125,1.1757812-4.1982422,1.5908203
				c-1.0830078,0.3242188-2.1484375,0.5761719-3.1875,0.7636719c-0.0595703,0.0117188-0.1201172,0.0214844-0.1806641,0.03125
				c-0.4238281,0.0742188-0.8427734,0.1357422-1.2548828,0.1875c-0.1015625,0.0146484-0.2070312,0.0263672-0.3085938,0.0390625
				c-0.4697266,0.0527344-0.9335938,0.0966797-1.3857422,0.1220703c-0.0009766,0-0.0019531,0-0.0019531,0
				c-0.0009766,0-0.0019531,0-0.0029297,0c-0.5341797,0.0283203-1.0517578,0.0292969-1.5644531,0.0224609
				c-0.2177734-0.0019531-0.4384766-0.0039062-0.6552734-0.0126953c-0.0068359-0.0019531-0.0146484-0.0009766-0.0224609-0.0009766
				c-0.0595703-0.0019531-0.1152344-0.0087891-0.1738281-0.0117188c-0.8818359-0.0419922-1.7314453-0.140625-2.5507812-0.2871094
				c-0.140625-0.0244141-0.2841797-0.0410156-0.4228516-0.0683594c-0.2978516-0.0605469-0.5820312-0.1376953-0.8710938-0.2119141
				c-0.2431641-0.0615234-0.4873047-0.1230469-0.7246094-0.1953125c-0.2470703-0.0751953-0.4892578-0.1601562-0.7285156-0.2470703
				c-0.2705078-0.0966797-0.5380859-0.1962891-0.7998047-0.3076172c-0.2070312-0.0878906-0.4111328-0.1787109-0.6123047-0.2734375
				c-0.2919922-0.1396484-0.5761719-0.2880859-0.8554688-0.4453125c-0.1650391-0.0908203-0.3291016-0.1796875-0.4873047-0.2773438
				c-0.3310547-0.2011719-0.6474609-0.4179688-0.9599609-0.6425781c-0.1035156-0.0761719-0.2089844-0.1425781-0.3095703-0.2207031
				c-0.4160156-0.3183594-0.8203125-0.6542969-1.2041016-1.0205078c-5.4355469-5.1738281-8.8330078-15.4941406-9.5683594-29.0595703
				l-13.1464844-242.6445312L93.2568359,258.4609375c-0.7353516-13.5634766,1.5273438-24.1894531,6.3710938-29.9199219
				c0.0087891-0.0117188,0.0224609-0.0224609,0.0332031-0.0332031c0.3115234-0.3671875,0.6425781-0.7099609,0.9824219-1.0400391
				c0.1152344-0.1103516,0.2333984-0.2158203,0.3505859-0.3222656c0.2558594-0.2324219,0.5205078-0.4541016,0.7910156-0.6669922
				c0.1337891-0.1025391,0.2617188-0.2080078,0.3984375-0.3066406c0.3681641-0.2705078,0.7509766-0.5283203,1.1484375-0.7646484
				c0.1318359-0.0771484,0.2714844-0.1464844,0.4052734-0.2216797c0.3017578-0.1660156,0.609375-0.328125,0.9267578-0.4765625
				c0.2001953-0.0947266,0.4042969-0.1816406,0.6123047-0.2695312c0.2626953-0.109375,0.5332031-0.2138672,0.8046875-0.3125
				c0.2207031-0.078125,0.4394531-0.1601562,0.6621094-0.2304688c0.4296875-0.1367188,0.8691406-0.2587891,1.3203125-0.3662109
				c0.0175781-0.0039062,0.0341797-0.0107422,0.0517578-0.0146484c1.2304688-0.2890625,2.5390625-0.4765625,3.9326172-0.5527344
				c0.0576172-0.0029297,0.1201172-0.0019531,0.1796875-0.0048828c0.0185547-0.0019531,0.0380859-0.0009766,0.0556641-0.0019531
				c0.3515625-0.015625,0.7089844-0.0234375,1.0722656-0.0244141c0.0224609,0.0009766,0.0439453,0.0009766,0.0664062,0
				c0.3652344,0.0019531,0.7363281,0.0107422,1.1113281,0.0283203c0.0234375,0.0009766,0.0478516,0.0029297,0.0712891,0.0029297
				c0.3740234,0.0195312,0.7529297,0.0449219,1.1367188,0.0791016c0.0322266,0.0009766,0.0654297,0.0068359,0.0966797,0.0087891
				c0.3769531,0.0361328,0.7568359,0.0771484,1.1396484,0.1289062c0.0400391,0.0048828,0.0810547,0.0126953,0.1220703,0.0185547
				c0.3769531,0.0517578,0.7558594,0.109375,1.1416016,0.1767578c0.0478516,0.0087891,0.0996094,0.0214844,0.1484375,0.0292969
				c0.375,0.0683594,0.7509766,0.1416016,1.1298828,0.2255859c0.0634766,0.0136719,0.1289062,0.03125,0.1953125,0.046875
				c0.3642578,0.0830078,0.7324219,0.1708984,1.1005859,0.2685547c0.0761719,0.0195312,0.1533203,0.0429688,0.2304688,0.0644531
				c0.3574219,0.0976562,0.7158203,0.1992188,1.0742188,0.3115234c0.0917969,0.0283203,0.1845703,0.0615234,0.2773438,0.0917969
				c0.3447266,0.1103516,0.6894531,0.2226562,1.0351562,0.3466797c0.1064453,0.0390625,0.2128906,0.0830078,0.3212891,0.1210938
				c0.3310547,0.1230469,0.6611328,0.2480469,0.9931641,0.3818359c0.1210938,0.0507812,0.2441406,0.1074219,0.3642578,0.1591797
				c0.3164062,0.1337891,0.6308594,0.2666016,0.9443359,0.4130859c0.1396484,0.0625,0.2763672,0.1328125,0.4130859,0.2001953
				c0.2978516,0.1416016,0.5976562,0.2832031,0.8916016,0.4355469c0.1503906,0.078125,0.3007812,0.1650391,0.4492188,0.2460938
				c0.2822266,0.1513672,0.5654297,0.2998047,0.8427734,0.4609375c0.1601562,0.09375,0.3193359,0.1943359,0.4804688,0.2910156
				c0.265625,0.1591797,0.5322266,0.3173828,0.7939453,0.4873047c0.1738281,0.1103516,0.3408203,0.2294922,0.5107422,0.3427734
				c0.2490234,0.1669922,0.5,0.3300781,0.7441406,0.5058594c0.1835938,0.1289062,0.3603516,0.2685547,0.5410156,0.4023438
				c0.2304688,0.1728516,0.4619141,0.3408203,0.6894531,0.5185547c0.1884766,0.1513672,0.3720703,0.3105469,0.5576172,0.4658203
				c0.2128906,0.1767578,0.4287109,0.3476562,0.6386719,0.5322266c0.1923828,0.1699219,0.3808594,0.3496094,0.5703125,0.5244141
				c0.1982422,0.1835938,0.3994141,0.3613281,0.59375,0.5507812c0.1933594,0.1875,0.3779297,0.3857422,0.5664062,0.5791016
				c0.1865234,0.1904297,0.3769531,0.3769531,0.5576172,0.5742188c0.1933594,0.2089844,0.3779297,0.4296875,0.5683594,0.6445312
				c0.1708984,0.1953125,0.3447266,0.3837891,0.5107422,0.5859375c0.1923828,0.2324219,0.3759766,0.4775391,0.5644531,0.7177734
				c0.1542969,0.1972656,0.3144531,0.390625,0.4638672,0.5947266c0.1914062,0.2548828,0.3701172,0.5234375,0.5527344,0.7861328
				c0.1416016,0.2021484,0.2880859,0.4003906,0.4238281,0.6083984c0.1796875,0.2705078,0.3476562,0.5556641,0.5205078,0.8349609
				c0.1328125,0.2158203,0.2705078,0.4248047,0.3984375,0.6455078c0.1689453,0.2890625,0.328125,0.5927734,0.4892578,0.8916016
				c0.1210938,0.2246094,0.2490234,0.4414062,0.3652344,0.6708984c0.1601562,0.3134766,0.3085938,0.6416016,0.4599609,0.9658203
				c0.1074219,0.2285156,0.2216797,0.4511719,0.3271484,0.6845703c0.1464844,0.3320312,0.28125,0.6816406,0.4199219,1.0244141
				c0.0966797,0.2392578,0.2001953,0.4697266,0.2929688,0.7138672c0.1328125,0.3525391,0.2529297,0.7216797,0.3789062,1.0859375
				c0.0839844,0.2480469,0.1757812,0.4882812,0.2568359,0.7412109c0.1210938,0.3818359,0.2285156,0.7792969,0.3398438,1.171875
				c0.0693359,0.25,0.1474609,0.4912109,0.2138672,0.7441406c0.1054688,0.4033203,0.1943359,0.8232422,0.2871094,1.2373047
				c0.0605469,0.2587891,0.1259766,0.5107422,0.1796875,0.7734375c0.0898438,0.4365234,0.1630859,0.8876953,0.2392578,1.3349609
				c0.0449219,0.2587891,0.0966797,0.5068359,0.1367188,0.7685547c0.0771484,0.5,0.1337891,1.0166016,0.1972656,1.53125
				c0.0234375,0.2246094,0.0595703,0.4404297,0.0810547,0.6669922c0.078125,0.7490234,0.1376953,1.5136719,0.1796875,2.2939453
				c0.0693359,1.2666016,0.1123047,2.5048828,0.1416016,3.7285156c0.0712891,2.9580078,0.03125,5.7939453-0.1054688,8.5078125
				c-0.0292969,0.6298828-0.0712891,1.2451172-0.1132812,1.8623047c-0.03125,0.4638672-0.0566406,0.9355469-0.0927734,1.3916016
				c-0.1142578,1.4189453-0.2607422,2.7919922-0.421875,4.1396484c-0.2939453,2.4375-0.6572266,4.7626953-1.0839844,6.9667969
				c-0.5957031,3.0859375-1.3037109,5.9492188-2.0830078,8.5791016c-0.0068359,0.0214844-0.0146484,0.0458984-0.0214844,0.0683594
				c-3.9267578,13.2109375-9.5830078,20.6806641-11.1806641,22.6113281
				c-4.2050781,3.7890625-7.4775391,8.1738281-9.8203125,12.9208984c-5.5048828,11.1640625-5.8330078,24.3476562-0.7929688,36.59375
				c0.2304688,0.5625,0.4736328,1.1240234,0.7275391,1.6826172c7.4560547,16.3710938,24.6054688,25.8505859,42.3925781,25.5009766
				c1.8408203-0.0371094,3.6884766-0.1787109,5.5332031-0.4277344l309.5917969-41.8369141l29.7783203-4.0234375
				l17.359375,320.3564453l-316.7617188,42.8046875l406.2382812-54.8974609l-17.3603516-320.3554688l37.1806641-5.0244141
				c9.0380859-1.2207031,17.4785156-5.1582031,24.2119141-11.2675781c0.4501953-0.4072266,0.8916016-0.8251953,1.3242188-1.2509766
				c4.6757812-4.6005859,45.5507812-47.2304688,41.2568359-126.4755859
				c-1.9179688-35.4033203-17.1787109-66.9833984-42.9697266-88.9208984
				c-23.4326172-19.9326172-54.2177734-30.4248047-84.4648438-28.7861328
				c-2.7568359,0.1484375-5.4882812,0.3984375-8.1914062,0.7392578l-0.0205078-0.1484375l-462.4472656,62.7363281
				c0.7490234-0.0712891,1.5-0.1367188,2.2539062-0.1933594c-0.7568359,0.0595703-1.5117188,0.1230469-2.2636719,0.1943359
				c-1.7626953,0.1669922-3.5097656,0.3740234-5.2460938,0.6201172c-0.0195312,0.0019531-0.0380859,0.0048828-0.0576172,0.0078125
				c-0.8525391,0.1210938-1.7021484,0.2519531-2.5478516,0.3935547c-0.0244141,0.0029297-0.0507812,0.0068359-0.0742188,0.0117188
				c-0.8427734,0.1396484-1.6835938,0.2900391-2.5195312,0.4472656c-0.0244141,0.0048828-0.0488281,0.0097656-0.0742188,0.0146484
				c-0.8408203,0.1601562-1.6757812,0.3291016-2.5087891,0.5087891c-0.0166016,0.0029297-0.0332031,0.0068359-0.0488281,0.0097656
				c-9.3417969,2.0087891-18.2490234,5.1943359-26.5498047,9.4677734c-0.0292969,0.015625-0.0595703,0.0292969-0.0898438,0.0449219
				c-0.6503906,0.3369141-1.2978516,0.6826172-1.9423828,1.0332031c-0.1269531,0.0673828-0.2558594,0.1357422-0.3828125,0.2070312
				c-0.5859375,0.3193359-1.1650391,0.6494141-1.7451172,0.9804688c-0.1816406,0.1054688-0.3632812,0.2080078-0.5429688,0.3134766
				c-0.5429688,0.3125-1.0771484,0.6347656-1.6123047,0.9580078c-0.2148438,0.1298828-0.4306641,0.2607422-0.6455078,0.3916016
				c-0.5029297,0.3115234-1.0029297,0.6279297-1.5019531,0.9453125c-0.2421875,0.1552734-0.4833984,0.3095703-0.7236328,0.4658203
				c-0.4736328,0.3085938-0.9433594,0.6230469-1.4140625,0.9394531c-0.2587891,0.1738281-0.5175781,0.3496094-0.7734375,0.5263672
				c-0.4501953,0.3095703-0.8955078,0.6220703-1.3398438,0.9394531c-0.2724609,0.1923828-0.5439453,0.3896484-0.8154297,0.5849609
				c-0.4287109,0.3105469-0.8535156,0.625-1.2773438,0.9423828c-0.2802734,0.2089844-0.5585938,0.421875-0.8339844,0.6337891
				c-0.4121094,0.3134766-0.8222656,0.6298828-1.2275391,0.9511719c-0.2851562,0.2255859-0.5683594,0.4541016-0.8525391,0.6816406
				c-0.3935547,0.3173828-0.7851562,0.6357422-1.1738281,0.9580078c-0.2919922,0.2441406-0.5810547,0.4892578-0.8701172,0.734375
				c-0.375,0.3203125-0.7509766,0.640625-1.1220703,0.9648438c-0.2949219,0.2568359-0.5849609,0.5175781-0.8759766,0.7783203
				c-0.3632812,0.3222656-0.7236328,0.6474609-1.0830078,0.9765625c-0.296875,0.2724609-0.5859375,0.5478516-0.8789062,0.8232422
				c-0.3476562,0.3271484-0.6953125,0.6533203-1.0400391,0.9833984c-0.2988281,0.2900391-0.5908203,0.5849609-0.8857422,0.8769531
				c-0.3320312,0.328125-0.6669922,0.6542969-0.9931641,0.9873047c-0.3007812,0.3056641-0.5957031,0.6181641-0.8925781,0.9267578
				c-0.3154297,0.3300781-0.6347656,0.6572266-0.9472656,0.9902344c-0.3085938,0.3300781-0.6113281,0.6669922-0.9160156,1.0029297
				c-0.2929688,0.3222656-0.5898438,0.640625-0.8798828,0.9667969c-0.3554688,0.4003906-0.7041016,0.8085938-1.0546875,1.2158203
				c-0.2265625,0.2626953-0.4589844,0.5224609-0.6835938,0.7880859
				c-13.9492188,16.5039062-30.0458984,46.0166016-27.5058594,92.8896484l32.0322266,591.1904297
				c2.5400391,46.8759766,21.7304688,74.4746094,37.3847656,89.375
				c21.2851562,20.2626953,49.6503906,30.5205078,79.8701172,28.8837891
				c0.0048828-0.0009766,0.0097656-0.0009766,0.0146484-0.0009766c1.3847656-0.0771484,2.7675781-0.1835938,4.1503906-0.3105469
				c0.2255859-0.0205078,0.4501953-0.0400391,0.6757812-0.0625c1.40625-0.1367188,2.8095703-0.2958984,4.2099609-0.484375
				c0.0390625-0.0058594,0.0791016-0.0107422,0.1181641-0.0175781c2.9882812-0.4052734,5.9619141-0.9287109,8.9160156-1.5634766
				c10.3496094-2.2246094,20.421875-5.8417969,29.890625-10.6982422
				c-9.4648438,4.8574219-19.5302734,8.4726562-29.8769531,10.6982422l452.71875-60.90625
				c28.5507812-2.7539062,56.0527344-16.2050781,76.0751953-37.3730469
				c23.2685547-24.5957031,35.0253906-57.6396484,33.1074219-93.046875
				C728.3828125,699.7705078,683.1376953,661.8066406,677.9941406,657.7382812z M469.9589844,174.4277344l107.1259766-14.3681641
				c0.3271484-0.0302734,0.65625-0.0537109,0.9921875-0.0722656c11.9199219-0.6455078,31.3388672,7.6630859,32.6972656,32.7080078
				c1.2099609,22.3271484-3.9121094,38.109375-8.5673828,47.5830078l-369.2109375,49.8925781
				c1.6933594-11.9199219,2.3935547-25.0478516,1.6171875-39.3691406c-0.0546875-1.0351562-0.1259766-2.0644531-0.2050781-3.0927734
				c-0.0273438-0.3476562-0.0585938-0.6933594-0.0878906-1.0400391c-0.0585938-0.6796875-0.1171875-1.3554688-0.1845703-2.0322266
				c-0.0410156-0.4140625-0.0869141-0.8261719-0.1308594-1.2402344c-0.0664062-0.6035156-0.1337891-1.2060547-0.2070312-1.8066406
				c-0.0546875-0.4433594-0.1103516-0.8857422-0.1689453-1.3271484c-0.0742188-0.5673828-0.1552734-1.1318359-0.2353516-1.6953125
				c-0.0673828-0.4580078-0.1347656-0.9169922-0.2060547-1.3730469c-0.0830078-0.5410156-0.1738281-1.0800781-0.2646484-1.6191406
				c-0.0800781-0.46875-0.1552734-0.9404297-0.2402344-1.4091797c-0.0917969-0.5107422-0.1923828-1.0195312-0.2880859-1.5292969
				c-0.2070312-1.0722656-0.4248047-2.1416016-0.6572266-3.2050781c-0.0673828-0.3125-0.1318359-0.6259766-0.2001953-0.9384766
				c-0.1386719-0.6113281-0.2871094-1.21875-0.4335938-1.8271484c-0.0820312-0.3447266-0.1621094-0.6904297-0.2480469-1.0341797
				c-0.1523438-0.6142578-0.3144531-1.2255859-0.4755859-1.8359375c-0.0859375-0.3271484-0.1738281-0.6552734-0.2626953-0.9824219
				c-0.1699219-0.625-0.3466797-1.2480469-0.5263672-1.8691406c-0.0859375-0.2949219-0.171875-0.5888672-0.2597656-0.8837891
				c-0.1933594-0.6494141-0.390625-1.2988281-0.59375-1.9443359c-0.0712891-0.2275391-0.1464844-0.4560547-0.2197266-0.6855469
				c-0.2285156-0.7070312-0.4570312-1.4130859-0.6953125-2.1142578c-0.0107422-0.0283203-0.0214844-0.0585938-0.0322266-0.0888672
				c-0.8613281-2.5273438-1.8046875-5.0195312-2.8193359-7.4726562c-0.0117188-0.0283203-0.0234375-0.0566406-0.0341797-0.0869141
				L469.9589844,174.4277344z M206.6279297,956.3652344c1.9511719-1.1425781,3.875-2.3398438,5.7636719-3.5898438
				C210.5029297,954.0253906,208.5800781,955.2236328,206.6279297,956.3652344z M233.5371094,935.0380859
				c-0.984375,1.0410156-1.9921875,2.0556641-3.0117188,3.0595703c1.0195312-1.0039062,2.0263672-2.0224609,3.0117188-3.0625
				c1.0185547-1.0761719,2.0068359-2.1728516,2.9814453-3.2802734
				C235.5429688,932.8632812,234.5566406,933.9609375,233.5371094,935.0380859z M634.1884766,810.2119141
				c-5.3828125,5.6894531-12.9902344,9.3242188-20.3486328,9.7226562h-0.0019531l-1.5195312,0.1933594l-102.9355469,13.8476562
				l-243.6669922,32.78125c-1.4863281,11.2998047-4.4287109,22.1767578-8.7529297,32.4082031
				c4.3222656-10.2314453,7.2666016-21.1083984,8.7529297-32.4082031c0.2646484-2.0136719,0.4833984-4.0410156,0.65625-6.0800781
				c0.0009766-0.0107422,0.0019531-0.0224609,0.0029297-0.0322266c0.0849609-0.9980469,0.1582031-1.9970703,0.21875-3.0019531
				c0.0029297-0.0771484,0.0078125-0.1513672,0.0117188-0.2285156c0.0556641-0.9404297,0.1035156-1.8828125,0.140625-2.8271484
				c0.0048828-0.1738281,0.0087891-0.3476562,0.0146484-0.5214844c0.0292969-0.8544922,0.0556641-1.7089844,0.0673828-2.5654297
				c0.0058594-0.3095703,0.0039062-0.6191406,0.0058594-0.9267578c0.0068359-0.7333984,0.0136719-1.4648438,0.0087891-2.1972656
				c-0.0048828-0.5146484-0.0195312-1.0322266-0.0283203-1.5498047c-0.0107422-0.5390625-0.015625-1.078125-0.03125-1.6191406
				c-0.0351562-1.0683594-0.0791016-2.1386719-0.1376953-3.2138672c-0.2587891-4.8046875-0.6699219-9.4589844-1.2138672-13.9619141
				c-1.6328125-13.5117188-4.4541016-25.6748047-7.9814453-36.5253906l25.8867188-3.5l305.8154297-41.3232422v-0.0019531
				l42.0722656-5.6835938c5.1308594,9.171875,10.5185547,23.2451172,11.5820312,42.8876953
				C643.3935547,794.6904297,640.4921875,803.5478516,634.1884766,810.2119141z"/>
		</g>
	</g>
</g>
</svg>
