<?xml version="1.0" encoding="utf-8"?>
<!-- Generator: Adobe Illustrator 16.0.0, SVG Export Plug-In . SVG Version: 6.00 Build 0)  -->
<!DOCTYPE svg PUBLIC "-//W3C//DTD SVG 1.1//EN" "http://www.w3.org/Graphics/SVG/1.1/DTD/svg11.dtd">
<svg version="1.1" xmlns="http://www.w3.org/2000/svg" xmlns:xlink="http://www.w3.org/1999/xlink" x="0px" y="0px" width="785px"
	 height="1000px" viewBox="0 0 785 1000" enable-background="new 0 0 785 1000" xml:space="preserve">
<g id="guides">
</g>
<g id="helpers">
</g>
<g id="icons">
	<g>
		<path fill="#873A96" d="M743.9750977,193.0375977H41.0605469c-23.8041992,0-43.1088867,19.2734375-43.1088867,43.125v36.640625
			c0,23.828125,19.3046875,43.1015625,43.1088867,43.1015625h8.6176758v412.8510742
			c0,33.3203125,27.0546875,60.390625,60.3984375,60.390625h273.8046875v82.625
			c-33.28125,4.7578125-56.40625,35.640625-51.640625,68.9296875c4.7578125,33.2578125,35.5859375,56.421875,68.8671875,51.6171875
			c33.3125-4.765625,56.4453125-35.5859375,51.6953125-68.8828125c-3.828125-26.7578125-24.8676758-47.8125-51.6953125-51.6640625
			v-82.625h273.84375c33.34375,0,60.3671875-27.0703125,60.3671875-60.390625V315.9047852h8.65625
			c23.8046875,0,43.0703125-19.2734375,43.0703125-43.1015625v-36.640625
			C787.0766602,212.3110352,767.7797852,193.0375977,743.9750977,193.0375977z M436.1547852,931.6386719
			c0,24.078125-19.546875,43.6328125-43.6328125,43.6328125c-24.09375,0-43.625-19.5546875-43.625-43.6328125
			c0-24.1171875,19.53125-43.6015625,43.625-43.6015625C416.5766602,888.0527344,436.0688477,907.5449219,436.1547852,931.6386719z
			 M718.1157227,728.7558594c0,23.8359375-19.3359375,43.15625-43.140625,43.15625H110.0766602
			c-23.8203125,0-43.125-19.3203125-43.125-43.15625V315.9047852h651.1640625V728.7558594L718.1157227,728.7558594z
			 M769.8344727,272.8032227c0,14.296875-11.609375,25.8671875-25.859375,25.8671875H41.0605469
			c-14.2807617,0-25.8510742-11.5703125-25.8510742-25.8671875v-36.640625c0-14.3125,11.5703125-25.8828125,25.8510742-25.8828125
			h702.9145508c14.25,0,25.859375,11.5703125,25.859375,25.8828125V272.8032227z"/>
		<path fill="#873A96" d="M159.6313477,448.4829102h66.421875c4.7573242,0,8.6171875-3.875,8.6171875-8.6328125
			c0-4.765625-3.8598633-8.609375-8.6171875-8.609375h-66.421875c-4.7265625,0-8.5859375,3.84375-8.5859375,8.609375
			C151.0454102,444.6079102,154.9047852,448.4829102,159.6313477,448.4829102z"/>
		<path fill="#873A96" d="M159.6313477,551.9746094h144.0390625c4.7651367,0,8.625-3.84375,8.625-8.609375
			c0-4.8046875-3.8598633-8.65625-8.625-8.65625H159.6313477c-4.7265625,0-8.5859375,3.8515625-8.5859375,8.65625
			C151.0454102,548.1308594,154.9047852,551.9746094,159.6313477,551.9746094z"/>
		<path fill="#873A96" d="M159.6313477,672.7011719h144.0390625c4.7651367,0,8.625-3.8515625,8.625-8.59375
			s-3.8598633-8.6328125-8.625-8.6328125H159.6313477c-4.7265625,0-8.5859375,3.890625-8.5859375,8.6328125
			S154.9047852,672.7011719,159.6313477,672.7011719z"/>
		<path fill="#873A96" d="M429.8344727,658.7402344c4.75,0,8.6171875-3.8828125,8.6171875-8.6171875v-58.2265625
			c0-4.7734375-3.8671875-8.6484375-8.6171875-8.6484375s-8.6015625,3.875-8.6015625,8.6484375v58.2265625
			C421.2329102,654.8574219,425.0844727,658.7402344,429.8344727,658.7402344z"/>
		<path fill="#873A96" d="M533.3500977,658.7402344c4.7578125,0,8.6484375-3.8828125,8.6484375-8.6171875V436.6625977
			c0-4.75-3.890625-8.6171875-8.6484375-8.6171875c-4.765625,0-8.6484375,3.8671875-8.6484375,8.6171875v213.4604492
			C524.7016602,654.8574219,528.5844727,658.7402344,533.3500977,658.7402344z"/>
		<path fill="#873A96" d="M636.8579102,658.7402344c4.7578125,0,8.5859375-3.8828125,8.5859375-8.6171875v-135.828125
			c0-4.7734375-3.828125-8.6484375-8.5859375-8.6484375s-8.609375,3.875-8.609375,8.6484375v135.828125
			C628.2485352,654.8574219,632.1000977,658.7402344,636.8579102,658.7402344z"/>
	</g>
</g>
</svg>
