<?xml version="1.0" encoding="utf-8"?>
<!-- Generator: Adobe Illustrator 16.0.0, SVG Export Plug-In . SVG Version: 6.00 Build 0)  -->
<!DOCTYPE svg PUBLIC "-//W3C//DTD SVG 1.1//EN" "http://www.w3.org/Graphics/SVG/1.1/DTD/svg11.dtd">
<svg version="1.1" xmlns="http://www.w3.org/2000/svg" xmlns:xlink="http://www.w3.org/1999/xlink" x="0px" y="0px" width="780px"
	 height="1000.0039062px" viewBox="0 0 780 1000.0039062" enable-background="new 0 0 780 1000.0039062" xml:space="preserve">
<g id="guides">
</g>
<g id="helpers">
</g>
<g id="icons">
	<g>
		<g>
			<path fill="#873A96" d="M388.6806641,831.3105469c-4.9609375,0-8.90625-4.1015625-8.90625-9.125v-8.359375
				c0-5.0390625,3.9453125-9.1171875,8.90625-9.1171875c4.921875,0,8.8828125,4.078125,8.8828125,9.1171875v8.359375
				C397.5634766,827.2089844,393.6025391,831.3105469,388.6806641,831.3105469z"/>
			<path fill="#873A96" d="M388.6806641,867.7167969c-4.9609375,0-8.90625-4.0625-8.90625-9.0859375v-8.3984375
				c0-5.0390625,3.9453125-9.1015625,8.90625-9.1015625c4.921875,0,8.8828125,4.0625,8.8828125,9.1015625v8.3984375
				C397.5634766,863.6542969,393.6025391,867.7167969,388.6806641,867.7167969z"/>
			<path fill="#873A96" d="M388.6806641,976.9824219c-4.9609375,0-8.90625-4.0625-8.90625-9.0859375v-77.2890625
				c0-5.0390625,3.9453125-9.125,8.90625-9.125c4.921875,0,8.8828125,4.0859375,8.8828125,9.125v77.2890625
				C397.5634766,972.9199219,393.6025391,976.9824219,388.6806641,976.9824219z"/>
			<path fill="#873A96" d="M425.1650391,935.9902344"/>
			<path fill="#873A96" d="M388.8916016,976.9824219c-2.28125,0-4.5625-0.8828125-6.328125-2.6796875l-34.015625-34.71875
				c-3.5-3.578125-3.5-9.34375,0-12.890625c3.453125-3.5390625,9.1171875-3.5390625,12.609375,0l27.734375,28.3125
				l27.15625-27.671875c3.46875-3.5546875,9.1171875-3.5546875,12.578125,0c3.4921875,3.578125,3.4921875,9.3359375,0,12.890625
				l-33.421875,34.078125C393.4462891,976.0996094,391.2041016,976.9824219,388.8916016,976.9824219z"/>
		</g>
		<g>
			<path fill="#873A96" d="M391.3134766,359.6694336c-4.921875,0-8.921875-4.078125-8.921875-9.1171875v-8.359375
				c0-5.0390625,4-9.125,8.921875-9.125s8.9296875,4.0859375,8.9296875,9.125v8.359375
				C400.2431641,355.5913086,396.2822266,359.6694336,391.3134766,359.6694336z"/>
			<path fill="#873A96" d="M391.3134766,323.2631836c-4.921875,0-8.921875-4.078125-8.921875-9.140625v-8.3359375
				c0-5.0625,4-9.125,8.921875-9.125s8.9296875,4.0625,8.9296875,9.125v8.3359375
				C400.2431641,319.1850586,396.2822266,323.2631836,391.3134766,323.2631836z"/>
			<path fill="#873A96" d="M391.3134766,282.8959961c-4.921875,0-8.921875-4.0859375-8.921875-9.1015625v-77.296875
				c0.015625-5.0546875,4-9.078125,8.921875-9.078125s8.9296875,4.0234375,8.9296875,9.078125v77.296875
				C400.2431641,278.8100586,396.2822266,282.8959961,391.3134766,282.8959961z"/>
			<path fill="#873A96" d="M354.8525391,228.4038086"/>
			<path fill="#873A96" d="M425.1650391,240.3725586c-2.3046875,0-4.5546875-0.8984375-6.328125-2.671875l-27.734375-28.328125
				l-27.1328125,27.640625c-3.453125,3.59375-9.1171875,3.59375-12.609375,0c-3.484375-3.53125-3.484375-9.296875,0-12.828125
				l33.4375-34.109375c3.46875-3.5546875,9.140625-3.5546875,12.59375,0l34.0625,34.734375c3.5,3.5546875,3.5,9.3125,0,12.890625
				C429.7353516,239.4741211,427.4072266,240.3725586,425.1650391,240.3725586z"/>
		</g>
		<g>
			<path fill="#873A96" d="M625.1884766,592.6386719h-8.203125c-4.9453125,0-8.9296875-4.0625-8.9296875-9.1171875
				c0-5.0234375,3.984375-9.0859375,8.9296875-9.0859375h8.203125c4.875,0,8.8828125,4.0625,8.8828125,9.0859375
				C634.0712891,588.5761719,630.1103516,592.6386719,625.1884766,592.6386719z"/>
			<path fill="#873A96" d="M660.8447266,592.6386719h-8.203125c-4.8984375,0-8.921875-4.0625-8.921875-9.1171875
				c0-5.0234375,4.0234375-9.0859375,8.921875-9.0859375h8.203125c4.9453125,0,8.953125,4.0625,8.953125,9.0859375
				C669.7978516,588.5761719,665.7900391,592.6386719,660.8447266,592.6386719z"/>
			<path fill="#873A96" d="M767.9228516,592.6386719h-75.78125c-4.890625,0-8.890625-4.0625-8.890625-9.1171875
				c0-5.0234375,4-9.0859375,8.890625-9.0859375h75.78125c4.921875,0,8.921875,4.0625,8.921875,9.0859375
				C776.8447266,588.5761719,772.8447266,592.6386719,767.9228516,592.6386719z"/>
			<path fill="#873A96" d="M736.6259766,546.3339844"/>
			<path fill="#873A96" d="M733.8916016,627.1699219c-2.296875,0-4.5859375-0.8984375-6.328125-2.65625
				c-3.46875-3.578125-3.46875-9.3203125,0-12.9140625l27.7578125-28.296875l-27.1484375-27.671875
				c-3.453125-3.5390625-3.453125-9.296875,0-12.8515625c3.53125-3.59375,9.15625-3.59375,12.65625,0l33.3984375,34.1015625
				c3.4921875,3.5546875,3.4921875,9.3125,0,12.8671875l-34.0234375,34.765625
				C738.4462891,626.2714844,736.1572266,627.1699219,733.8916016,627.1699219z"/>
		</g>
		<g>
			<path fill="#873A96" d="M163.0009766,589.9042969h-8.171875c-4.921875,0-8.921875-4.0234375-8.921875-9.078125
				c0-5.0625,4-9.0859375,8.921875-9.0859375h8.171875c4.953125,0,8.984375,4.0625,8.984375,9.0859375
				C171.9853516,585.8808594,167.9541016,589.9042969,163.0009766,589.9042969z"/>
			<path fill="#873A96" d="M127.3525391,589.9042969h-8.2421875c-4.921875,0-8.90625-4.0234375-8.90625-9.078125
				c0-5.0625,3.984375-9.0859375,8.90625-9.0859375h8.2421875c4.8984375,0,8.8828125,4.0625,8.8828125,9.0859375
				C136.2353516,585.8808594,132.2509766,589.9042969,127.3525391,589.9042969z"/>
			<path fill="#873A96" d="M87.8212891,589.9042969h-75.78125c-4.921875,0-8.8828125-4.0234375-8.8828125-9.0390625
				c0-5.0625,3.9609375-9.125,8.8828125-9.125h75.78125c4.921875,0,8.9296875,4.0625,8.9296875,9.125
				C96.7509766,585.8808594,92.7431641,589.9042969,87.8212891,589.9042969z"/>
			<path fill="#873A96" d="M43.3291016,618.0449219"/>
			<path fill="#873A96" d="M45.5009766,624.2558594c-2.2890625,0-4.59375-0.859375-6.3515625-2.65625l-33.359375-34.1171875
				c-3.515625-3.53125-3.515625-9.296875,0-12.8515625l34.0234375-34.765625c3.453125-3.5546875,9.125-3.5546875,12.640625,0
				c3.453125,3.578125,3.453125,9.296875,0,12.890625l-27.78125,28.3203125l27.109375,27.671875
				c3.5,3.5390625,3.5,9.296875,0,12.875C50.0478516,623.3964844,47.7822266,624.2558594,45.5009766,624.2558594z"/>
		</g>
		<g>
			<path fill="#873A96" d="M681.0791016,292.3256836c-2.265625,0-4.546875-0.8984375-6.3046875-2.65625
				c-3.4765625-3.609375-3.4765625-9.375,0-12.90625l5.8046875-5.8828125c3.4921875-3.5703125,9.140625-3.5703125,12.609375,0
				c3.484375,3.515625,3.484375,9.296875,0,12.8359375l-5.78125,5.953125
				C685.6572266,291.4272461,683.3916016,292.3256836,681.0791016,292.3256836z"/>
			<path fill="#873A96" d="M655.8681641,318.0678711c-2.3046875,0-4.5703125-0.875-6.3046875-2.671875
				c-3.5390625-3.5546875-3.5390625-9.296875,0-12.890625l5.7578125-5.8984375
				c3.4921875-3.5390625,9.1796875-3.5390625,12.6328125,0c3.515625,3.53125,3.515625,9.296875,0,12.8671875l-5.796875,5.921875
				C660.4384766,317.1928711,658.1337891,318.0678711,655.8681641,318.0678711z"/>
			<path fill="#873A96" d="M580.1259766,395.3334961c-2.265625,0-4.546875-0.875-6.265625-2.671875
				c-3.5390625-3.578125-3.5390625-9.296875,0-12.875l53.546875-54.6484375c3.5-3.609375,9.140625-3.609375,12.6015625,0
				c3.4765625,3.5390625,3.4765625,9.296875,0,12.8515625l-53.5546875,54.671875
				C584.7197266,394.4584961,582.4072266,395.3334961,580.1259766,395.3334961z"/>
			<path fill="#873A96" d="M628.0556641,389.9819336"/>
			<path fill="#873A96" d="M627.5869141,395.5131836h-47.265625c-4.921875,0-8.90625-4.0859375-8.90625-9.1015625v-49.1796875
				c0-5.0390625,3.984375-9.125,8.90625-9.125c4.9609375,0,8.8828125,4.0859375,8.8828125,9.125v40.0546875h38.3828125
				c4.8984375,0,8.90625,4.0859375,8.90625,9.125C636.4931641,391.4272461,632.4853516,395.5131836,627.5869141,395.5131836z"/>
		</g>
		<g>
			<path fill="#873A96" d="M93.1103516,896.1699219c-2.265625,0-4.5625-0.875-6.328125-2.671875
				c-3.46875-3.5390625-3.46875-9.296875,0-12.8359375l5.84375-5.9140625c3.453125-3.5546875,9.1015625-3.5546875,12.578125,0
				c3.515625,3.5546875,3.515625,9.3125,0,12.8671875l-5.78125,5.8828125
				C97.6650391,895.2949219,95.4228516,896.1699219,93.1103516,896.1699219z"/>
			<path fill="#873A96" d="M118.3447266,870.4277344c-2.28125,0-4.5859375-0.859375-6.28125-2.65625
				c-3.5390625-3.5703125-3.5390625-9.296875,0-12.90625l5.78125-5.8828125c3.515625-3.5703125,9.09375-3.5703125,12.6328125,0
				c3.4609375,3.5390625,3.4609375,9.296875,0,12.8515625l-5.8359375,5.9375
				C122.8994141,869.5683594,120.6337891,870.4277344,118.3447266,870.4277344z"/>
			<path fill="#873A96" d="M146.2978516,841.8964844c-2.28125,0-4.59375-0.84375-6.34375-2.6171875
				c-3.4609375-3.578125-3.4609375-9.3359375,0-12.9140625l53.59375-54.6484375c3.453125-3.5703125,9.09375-3.5703125,12.59375,0
				c3.5,3.5546875,3.5,9.296875,0,12.890625l-53.5546875,54.671875
				C150.8447266,841.0527344,148.5791016,841.8964844,146.2978516,841.8964844z"/>
			<path fill="#873A96" d="M151.9228516,774.3730469"/>
			<path fill="#873A96" d="M199.6728516,836.2714844c-4.921875,0-8.90625-4.1015625-8.90625-9.125v-40.0546875h-38.359375
				c-4.921875,0-8.9375-4.0625-8.9375-9.1015625s4.015625-9.125,8.9375-9.125l0,0h47.265625
				c4.921875,0,8.953125,4.0859375,8.953125,9.125v49.15625
				C208.6259766,832.1699219,204.5947266,836.2714844,199.6728516,836.2714844z"/>
		</g>
		<g>
			<path fill="#873A96" d="M688.7822266,894.2792969c-2.2890625,0-4.59375-0.8984375-6.3125-2.65625l-5.8203125-5.9375
				c-3.4921875-3.5390625-3.4921875-9.3359375,0-12.890625c3.4921875-3.5390625,9.140625-3.5390625,12.6328125,0.0390625
				l5.78125,5.9140625c3.5,3.5390625,3.5,9.296875,0,12.875
				C693.3681641,893.3808594,691.0478516,894.2792969,688.7822266,894.2792969z"/>
			<path fill="#873A96" d="M663.5244141,868.5136719c-2.265625,0-4.5546875-0.875-6.3046875-2.65625l-5.78125-5.8984375
				c-3.5-3.609375-3.5-9.3359375,0-12.90625c3.453125-3.5546875,9.1171875-3.5390625,12.578125,0l5.8359375,5.9140625
				c3.4609375,3.578125,3.4609375,9.3359375,0,12.890625C668.0947266,867.6386719,665.8134766,868.5136719,663.5244141,868.5136719z
				"/>
			<path fill="#873A96" d="M635.5791016,840.0214844c-2.265625,0-4.5546875-0.8984375-6.328125-2.6953125l-53.5390625-54.6328125
				c-3.515625-3.5703125-3.515625-9.375,0-12.890625c3.4765625-3.5703125,9.140625-3.5703125,12.6328125,0l53.5625,54.6875
				c3.4921875,3.5390625,3.4921875,9.296875,0,12.8359375C640.1416016,839.1230469,637.8994141,840.0214844,635.5791016,840.0214844
				z"/>
			<path fill="#873A96" d="M578.3447266,825.1386719"/>
			<path fill="#873A96" d="M581.8603516,833.7480469c-4.921875,0-8.921875-4.1015625-8.921875-9.078125v-48.2265625
				c0-5.078125,4-9.1171875,8.921875-9.1171875h48.1875c4.921875,0,8.90625,4.0390625,8.90625,9.1171875
				c0,5.0234375-3.984375,9.0234375-8.90625,9.0234375h-39.2578125v39.203125
				C590.7900391,829.6464844,586.7822266,833.7480469,581.8603516,833.7480469z"/>
		</g>
		<g>
			<path fill="#873A96" d="M97.0400391,294.2397461c-2.3046875,0-4.5546875-0.9140625-6.3046875-2.671875l-5.84375-5.9375
				c-3.453125-3.5390625-3.453125-9.296875,0-12.8515625c3.53125-3.578125,9.1796875-3.578125,12.640625,0l5.78125,5.9140625
				c3.53125,3.515625,3.53125,9.296875,0,12.875C101.6103516,293.3256836,99.3056641,294.2397461,97.0400391,294.2397461z"/>
			<path fill="#873A96" d="M122.2744141,319.9819336c-2.3203125,0-4.5703125-0.8984375-6.328125-2.671875l-5.7578125-5.8984375
				c-3.5-3.578125-3.5-9.359375,0-12.875c3.453125-3.5703125,9.09375-3.5703125,12.578125,0l5.8125,5.8828125
				c3.4609375,3.59375,3.4609375,9.375,0,12.890625C126.8291016,319.0834961,124.5400391,319.9819336,122.2744141,319.9819336z"/>
			<path fill="#873A96" d="M197.9775391,397.2475586c-2.3046875,0-4.5546875-0.8984375-6.328125-2.671875l-53.5703125-54.6875
				c-3.484375-3.5390625-3.484375-9.296875,0-12.8359375c3.515625-3.59375,9.15625-3.59375,12.6328125,0l53.5703125,54.6328125
				c3.484375,3.59375,3.484375,9.3359375,0,12.890625C202.5322266,396.3881836,200.2666016,397.2475586,197.9775391,397.2475586z"/>
			<path fill="#873A96" d="M201.6494141,339.2397461"/>
			<path fill="#873A96" d="M149.9697266,397.0756836c-4.921875,0-8.921875-4.0859375-8.921875-9.1015625
				c0-5.0234375,3.984375-9.1015625,8.921875-9.1015625h39.2578125v-39.140625c0-5.0234375,3.984375-9.1015625,8.90625-9.1015625
				l0,0c4.8984375,0,8.9296875,4.078125,8.9296875,9.1015625v48.21875c0,5.0390625-3.984375,9.125-8.9296875,9.125H149.9697266
				L149.9697266,397.0756836z"/>
		</g>
		<g>
			<path fill="#873A96" d="M163.0009766,589.9042969h-8.171875c-4.921875,0-8.921875-4.0234375-8.921875-9.078125
				c0-5.0625,4-9.0859375,8.921875-9.0859375h8.171875c4.953125,0,8.984375,4.0625,8.984375,9.0859375
				C171.9853516,585.8808594,167.9541016,589.9042969,163.0009766,589.9042969z"/>
			<path fill="#873A96" d="M127.3525391,589.9042969h-8.2421875c-4.921875,0-8.90625-4.0234375-8.90625-9.078125
				c0-5.0625,3.984375-9.0859375,8.90625-9.0859375h8.2421875c4.8984375,0,8.8828125,4.0625,8.8828125,9.0859375
				C136.2353516,585.8808594,132.2509766,589.9042969,127.3525391,589.9042969z"/>
			<path fill="#873A96" d="M87.8212891,589.9042969h-75.78125c-4.921875,0-8.8828125-4.0234375-8.8828125-9.0390625
				c0-5.0625,3.9609375-9.125,8.8828125-9.125h75.78125c4.921875,0,8.9296875,4.0625,8.9296875,9.125
				C96.7509766,585.8808594,92.7431641,589.9042969,87.8212891,589.9042969z"/>
			<path fill="#873A96" d="M43.3291016,618.0449219"/>
			<path fill="#873A96" d="M45.5009766,624.2558594c-2.2890625,0-4.59375-0.859375-6.3515625-2.65625l-33.359375-34.1171875
				c-3.515625-3.53125-3.515625-9.296875,0-12.8515625l34.0234375-34.765625c3.453125-3.5546875,9.125-3.5546875,12.640625,0
				c3.453125,3.578125,3.453125,9.296875,0,12.890625l-27.78125,28.3203125l27.109375,27.671875
				c3.5,3.5390625,3.5,9.296875,0,12.875C50.0478516,623.3964844,47.7822266,624.2558594,45.5009766,624.2558594z"/>
		</g>
		<path fill="#873A96" d="M292.4697266,551.6464844"/>
		<g>
			<path fill="#873A96" d="M396.8447266,766.2714844c-28.21875,0-51.15625-23.421875-51.15625-52.2265625
				c0-6.25,1.1171875-12.4453125,3.2265625-18.2421875h-56.4453125c-4.90625,0-8.90625-4.046875-8.90625-9.0859375v-73.0625
				c0-3.65625,2.09375-6.9375,5.375-8.359375c3.28125-1.4296875,7.046875-0.78125,9.6640625,1.734375
				c6.0703125,5.8046875,14.0078125,9.0078125,22.3671875,9.0078125c18.046875,0,32.671875-14.9609375,32.671875-33.375
				c0-18.421875-14.625-33.3984375-32.671875-33.3984375c-8.328125,0-16.296875,3.203125-22.3671875,9.0234375
				c-2.6171875,2.4765625-6.3828125,3.1640625-9.6640625,1.734375c-3.28125-1.4453125-5.375-4.7421875-5.375-8.375v-73.0317383
				c0-5.0390625,4-9.1171875,8.90625-9.1171875h56.5c-2.5-6.1328125-3.8046875-12.7578125-3.8046875-19.53125
				c0-28.109375,22.3984375-50.9375,49.921875-50.9375s49.9453125,22.828125,49.9453125,50.9375
				c0,6.7734375-1.3125,13.3984375-3.796875,19.53125h55.203125c4.921875,0,8.921875,4.0625,8.921875,9.1171875v56.7583008
				c6.328125-2.90625,13.265625-4.4296875,20.375-4.4296875c27.421875,0,49.7421875,22.75,49.7421875,50.71875
				s-22.2890625,50.7421875-49.7421875,50.7421875c-7.109375,0-14.046875-1.5078125-20.375-4.4140625v58.7265625
				c0,5.0390625-4,9.0859375-8.921875,9.0859375h-51.71875c2.140625,5.796875,3.234375,11.9921875,3.234375,18.2421875
				C447.9541016,742.8496094,425.0478516,766.2714844,396.8447266,766.2714844z M301.3916016,677.6152344h62.8359375
				c3.4609375,0,6.5390625,2.015625,8.046875,5.21875c1.484375,3.1796875,1.0390625,6.953125-1.1953125,9.6640625
				c-4.859375,6.0390625-7.53125,13.7109375-7.53125,21.546875c0,18.765625,14.921875,33.984375,33.28125,33.984375
				c18.375,0,33.296875-15.21875,33.296875-33.984375c0-7.8359375-2.71875-15.5078125-7.578125-21.546875
				c-2.1875-2.7109375-2.671875-6.484375-1.171875-9.6640625c1.484375-3.203125,4.609375-5.21875,8.046875-5.21875h58.0859375
				v-67.03125c0-3.6875,2.1875-7.046875,5.5859375-8.4375c3.34375-1.3828125,7.2265625-0.5625,9.75,2.109375
				c6.046875,6.390625,14.1953125,9.921875,22.890625,9.921875c17.5546875,0,31.890625-14.5859375,31.890625-32.515625
				s-14.3359375-32.5-31.890625-32.5c-8.6953125,0-16.84375,3.515625-22.890625,9.9453125
				c-2.5234375,2.65625-6.40625,3.453125-9.75,2.0859375c-3.3984375-1.421875-5.5859375-4.7421875-5.5859375-8.4375v-65.0551758
				h-62.5390625c-3.53125,0-6.734375-2.1484375-8.1875-5.5078125c-1.40625-3.3046875-0.734375-7.1875,1.6875-9.84375
				c5.6015625-6.078125,8.6875-14.0234375,8.6875-22.3828125c0-18.046875-14.390625-32.7578125-32.0703125-32.7578125
				s-32.0703125,14.7109375-32.0703125,32.7578125c0,8.359375,3.0859375,16.3046875,8.671875,22.3828125
				c2.4375,2.65625,3.109375,6.5390625,1.703125,9.84375c-1.46875,3.359375-4.6328125,5.5078125-8.203125,5.5078125h-63.796875
				v47.3208008c6.140625-2.59375,12.7578125-3.9609375,19.578125-3.9609375c27.890625,0,50.546875,23.140625,50.546875,51.6015625
				c0,28.453125-22.65625,51.578125-50.546875,51.578125c-6.8203125,0-13.4375-1.3515625-19.578125-3.96875V677.6152344
				L301.3916016,677.6152344z"/>
		</g>
	</g>
</g>
</svg>
