<?xml version="1.0" encoding="utf-8"?>
<!-- Generator: Adobe Illustrator 16.0.0, SVG Export Plug-In . SVG Version: 6.00 Build 0)  -->
<!DOCTYPE svg PUBLIC "-//W3C//DTD SVG 1.1//EN" "http://www.w3.org/Graphics/SVG/1.1/DTD/svg11.dtd">
<svg version="1.1" xmlns="http://www.w3.org/2000/svg" xmlns:xlink="http://www.w3.org/1999/xlink" x="0px" y="0px" width="891px"
	 height="1000.0039062px" viewBox="0 0 891 1000.0039062" enable-background="new 0 0 891 1000.0039062" xml:space="preserve">
<g id="guides">
</g>
<g id="helpers">
</g>
<g id="icons">
	<g>
		<g>
			<path fill="#673695" d="M154.0009766,662.3417969l-19.8144531-14.3945312
				c-8.9570312-6.5087891-14.5996094-23.8730469-11.1777344-34.4072266l9.6328125-29.6474609l-60.6074219-59.078125
				l-21.2070312,65.2724609c-13.6542969,42.0195312,3.0078125,93.2910156,38.75,119.2597656l50.1132812,36.4091797
				L154.0009766,662.3417969z"/>
			<path fill="#673695" d="M490.6201172,842.4765625l-26.2539062,19.0761719
				c-4.1875,3.0400391-10.953125,4.8574219-18.0917969,4.8574219c-7.1367188,0-13.9023438-1.8173828-18.0898438-4.8574219
				l-26.2539062-19.0761719l-74.9082031,39.3828125l56.5527344,41.0917969
				c17.1777344,12.4794922,39.4453125,19.3535156,62.6992188,19.3535156s45.5214844-6.8740234,62.7011719-19.3535156
				l56.5546875-41.0917969L490.6201172,842.4765625z"/>
			<path fill="#673695" d="M229.6552734,285.3144531l5.6484375-17.3876953
				c3.4257812-10.534668,18.1972656-21.2666016,29.2714844-21.2666016h22.4179688l37.4570312-75.8935547h-59.875
				c-44.1816406,0-87.7949219,31.6870117-101.4511719,73.706543l-17.2207031,53.0117188L229.6552734,285.3144531z"/>
		</g>
		<g>
			<path fill="#673695" d="M678.2236328,653.2265625L664.5283203,639.53125
				c-15.7246094,4.0488281-31.7753906,6.8417969-48.0136719,8.3476562l24.0644531,140.3076172L446.2744141,686.0341797
				L251.9716797,788.1865234l37.1074219-216.3623047L131.8818359,418.5952148l152.3613281-22.1396484
				c-3.453125-18.6259766-5.2128906-37.612793-5.2128906-56.8598633c0-0.9799805,0.0273438-1.9555664,0.0371094-2.934082
				l-155.7988281,22.6396484L3.1259766,376.7587891l86.9355469,84.7416992l134.6386719,131.2416992l-31.7832031,185.3164062
				l-20.5214844,119.6572266l107.4550781-56.4951172l166.4238281-87.4951172l166.4257812,87.4951172l107.4570312,56.4951172
				l-20.5234375-119.6572266L678.2236328,653.2265625z"/>
		</g>
		<path fill="#673695" d="M752.9521484,442.9541016c19.046875-30.2792969,30.28125-65.3085938,30.28125-103.3583984
			C783.2333984,231.9306641,696.3271484,145,588.6396484,145s-194.609375,86.9306641-194.609375,194.5957031
			c0,107.6660156,86.921875,194.5957031,194.1875,194.5957031c38.046875,0,73.46875-11.2324219,103.328125-30.2783203
			l134.921875,134.9248047l61.40625-61.4023438L752.9521484,442.9541016z M588.6396484,447.7050781
			c-59.671875,0-108.109375-48.4379883-108.109375-108.109375c0-59.6708984,48.4375-108.1088867,108.109375-108.1088867
			s108.109375,48.4379883,108.109375,108.1088867C696.7490234,399.2670898,648.3115234,447.7050781,588.6396484,447.7050781z"/>
	</g>
</g>
</svg>
