<?xml version="1.0" encoding="utf-8"?>
<!-- Generator: Adobe Illustrator 16.0.0, SVG Export Plug-In . SVG Version: 6.00 Build 0)  -->
<!DOCTYPE svg PUBLIC "-//W3C//DTD SVG 1.1//EN" "http://www.w3.org/Graphics/SVG/1.1/DTD/svg11.dtd">
<svg version="1.1" xmlns="http://www.w3.org/2000/svg" xmlns:xlink="http://www.w3.org/1999/xlink" x="0px" y="0px" width="716px"
	 height="1000.0039062px" viewBox="0 0 716 1000.0039062" enable-background="new 0 0 716 1000.0039062" xml:space="preserve">
<g id="guides">
</g>
<g id="helpers">
</g>
<g id="icons">
	<g>
		<path fill="#873A96" d="M24.484375,445.5463867"/>
		<g>
			<path fill="#873A96" d="M278.4375,957.421875c-68.65625,0-124.46875-55.8203125-124.46875-124.46875
				c0-14.96875,2.671875-29.6640625,7.796875-43.546875H24.484375c-12.0234375,0-21.75-9.703125-21.75-21.6640625V593.4375
				c0-8.609375,5.125-16.515625,13.09375-19.921875c7.953125-3.40625,17.2109375-1.890625,23.484375,4.078125
				c14.8359375,13.921875,34.140625,21.609375,54.453125,21.609375c43.8984375,0,79.6015625-35.7578125,79.6015625-79.671875
				c0-43.9301758-35.703125-79.6333008-79.6015625-79.6333008c-20.3125,0-39.6171875,7.5625-54.453125,21.4921875
				c-6.2734375,5.953125-15.53125,7.53125-23.484375,4.09375c-7.96875-3.484375-13.09375-11.2890625-13.09375-19.9375v-174.28125
				c0-11.96875,9.7265625-21.6953125,21.75-21.6953125h137.46875c-6.09375-14.59375-9.21875-30.34375-9.21875-46.5859375
				c0-66.9921875,54.46875-121.484375,121.4921875-121.484375c67.0390625,0,121.5234375,54.4921875,121.5234375,121.484375
				c0,16.2421875-3.1640625,31.9921875-9.21875,46.5859375h134.3671875c12.0078125,0,21.7265625,9.7265625,21.7265625,21.6953125
				v135.46875c15.375-6.9296875,32.21875-10.5859375,49.6484375-10.5859375
				c66.71875,0,120.9921875,54.28125,120.9921875,120.9614258c0,66.734375-54.2734375,121.0703125-120.9921875,121.0703125
				c-17.4296875,0-34.2734375-3.6875-49.6484375-10.5546875v140.1171875c0,11.9609375-9.71875,21.6640625-21.7265625,21.6640625
				H395.078125c5.1484375,13.8828125,7.859375,28.578125,7.859375,43.546875
				C402.9375,901.6015625,347.1171875,957.421875,278.4375,957.421875z M46.203125,745.96875h152.8125
				c8.46875,0,16.109375,4.9296875,19.6640625,12.4765625c3.5859375,7.578125,2.4921875,16.5234375-2.8359375,23.125
				c-11.9375,14.40625-18.4140625,32.6796875-18.4140625,51.3828125c0,44.6796875,36.3203125,81.0390625,81.0078125,81.0390625
				c44.6796875,0,81.0546875-36.359375,81.0546875-81.0390625c0-18.703125-6.5703125-36.9765625-18.4375-51.3828125
				c-5.2890625-6.6015625-6.4453125-15.546875-2.8125-23.125C341.75,750.8984375,349.46875,745.96875,357.8203125,745.96875
				H499.21875V586.1796875c0-8.90625,5.3515625-16.8828125,13.5-20.1328125c8.234375-3.375,17.65625-1.359375,23.84375,5.0234375
				c14.7265625,15.2734375,34.4921875,23.671875,55.7109375,23.671875c42.796875,0,77.5234375-34.8359375,77.5234375-77.6328125
				c0-42.7192383-34.7265625-77.5629883-77.5234375-77.5629883c-21.21875,0-40.984375,8.5-55.7109375,23.6640625
				c-6.1875,6.453125-15.609375,8.3984375-23.84375,5.1015625c-8.1484375-3.3125-13.5-11.296875-13.5-20.171875v-155.140625
				H346.984375c-8.6640625,0-16.4375-5.1328125-19.953125-13.109375c-3.4375-7.953125-1.78125-17.1171875,4.1328125-23.453125
				c13.6171875-14.5078125,21.1640625-33.53125,21.1640625-53.453125c0-42.984375-35.0234375-78.0625-78.1015625-78.0625
				c-43.0546875,0-78.0625,35.078125-78.0625,78.0625c0,19.921875,7.5,38.9453125,21.1171875,53.453125
				c5.9140625,6.3359375,7.5703125,15.5,4.09375,23.453125c-3.421875,7.9765625-11.28125,13.109375-19.9375,13.109375H46.203125
				v112.9765625c14.875-6.2265625,31-9.5546875,47.5625-9.5546875c67.8359375,0,123.03125,55.234375,123.03125,123.1098633
				c0,67.8984375-55.1953125,123.015625-123.03125,123.015625c-16.5625,0-32.6875-3.2421875-47.5625-9.53125V745.96875z"/>
		</g>
	</g>
</g>
</svg>
