<?xml version="1.0" encoding="utf-8"?>
<!-- Generator: Adobe Illustrator 16.0.0, SVG Export Plug-In . SVG Version: 6.00 Build 0)  -->
<!DOCTYPE svg PUBLIC "-//W3C//DTD SVG 1.1//EN" "http://www.w3.org/Graphics/SVG/1.1/DTD/svg11.dtd">
<svg version="1.1" xmlns="http://www.w3.org/2000/svg" xmlns:xlink="http://www.w3.org/1999/xlink" x="0px" y="0px" width="705px"
	 height="1000.0039062px" viewBox="0 0 705 1000.0039062" enable-background="new 0 0 705 1000.0039062" xml:space="preserve">
<g id="guides">
</g>
<g id="helpers">
</g>
<g id="icons">
	<path fill="#873A96" d="M683.4042969,287.6235352l-312.25-180.2890625c-11.5-6.6875-25.6875-6.6875-37.1875,0l-312.25,180.2890625
		c-11.484375,6.5703125-18.625,18.8515625-18.625,32.125v360.5698242c0,13.265625,7.140625,25.53125,18.625,32.1328125
		l312.25,180.3203125c5.703125,3.25,12.1875,4.90625,18.53125,4.90625c6.46875,0,12.828125-1.65625,18.65625-4.90625
		l312.25-180.3203125c11.5-6.6015625,18.515625-18.8671875,18.515625-32.1328125V319.7485352
		C701.9199219,306.4750977,694.9042969,294.1938477,683.4042969,287.6235352z M627.6230469,658.9121094l-275.125,158.8125
		l-275.15625-158.8125V341.1547852l275.15625-158.8046875l275.125,158.8046875V658.9121094z"/>
</g>
</svg>
