<?xml version="1.0" encoding="utf-8"?>
<!-- Generator: Adobe Illustrator 16.0.0, SVG Export Plug-In . SVG Version: 6.00 Build 0)  -->
<!DOCTYPE svg PUBLIC "-//W3C//DTD SVG 1.1//EN" "http://www.w3.org/Graphics/SVG/1.1/DTD/svg11.dtd">
<svg version="1.1" xmlns="http://www.w3.org/2000/svg" xmlns:xlink="http://www.w3.org/1999/xlink" x="0px" y="0px" width="891px"
	 height="1000.0004883px" viewBox="0 0 891 1000.0004883" enable-background="new 0 0 891 1000.0004883" xml:space="preserve">
<g id="guides">
</g>
<g id="helpers">
</g>
<g id="icons">
	<g id="icons_3_">
		<g>
			<g>
				<path fill="#683996" d="M154.0019531,661.0004883L134.1875,646.605957
					c-8.9570312-6.5078125-14.5996094-23.8730469-11.1777344-34.40625l9.6328125-29.6484375l-60.6074219-59.078125
					L50.828125,588.746582c-13.6542969,42.0195312,3.0078125,93.2910156,38.75,119.2597656l50.1132812,36.4082031
					L154.0019531,661.0004883z"/>
				<path fill="#683996" d="M490.6191406,841.1352539l-26.2539062,19.0761719
					c-4.1875,3.0410156-10.953125,4.8574219-18.0917969,4.8574219c-7.1367188,0-13.9023438-1.8164062-18.0898438-4.8574219
					l-26.2519531-19.0761719l-74.9082031,39.3828125l56.5527344,41.0917969
					c17.1777344,12.4804688,39.4433594,19.3535156,62.6972656,19.3535156s45.5214844-6.8730469,62.7011719-19.3535156
					l56.5546875-41.0917969L490.6191406,841.1352539z"/>
				<path fill="#683996" d="M229.65625,283.972168l5.6484375-17.3876953
					c3.4257812-10.5341797,18.1972656-21.2666016,29.2714844-21.2666016h22.4179688l37.4570312-75.8935547h-59.875
					c-44.1816406,0-87.7949219,31.6875-101.4511719,73.7070312l-17.2207031,53.0117188L229.65625,283.972168z"/>
			</g>
			<g>
				<path fill="#683996" d="M678.2226562,651.8852539l-13.6953125-13.6953125
					c-15.7246094,4.0488281-31.7753906,6.8417969-48.0136719,8.3476562l24.0644531,140.3085938L446.2734375,684.6938477
					L251.9726562,786.8461914l37.1074219-216.3632812L131.8828125,417.253418l152.3613281-22.1396484
					c-3.453125-18.6259766-5.2128906-37.6123047-5.2128906-56.8603516c0-0.9794922,0.0273438-1.9550781,0.0371094-2.9335938
					l-155.7988281,22.6396484L3.1269531,375.4174805L90.0625,460.1586914l134.6386719,131.2421875l-31.7832031,185.3164062
					l-20.5214844,119.6582031l107.4550781-56.4960938l166.421875-87.4941406l166.4257812,87.4941406L720.15625,896.3754883
					l-20.5234375-119.6582031L678.2226562,651.8852539z"/>
			</g>
			<path fill="#683996" d="M752.9511719,441.612793c19.046875-30.2792969,30.28125-65.3085938,30.28125-103.359375
				c0-107.6650391-86.90625-194.5957031-194.59375-194.5957031S394.03125,230.5883789,394.03125,338.253418
				c0,107.6660156,86.9199219,194.5966797,194.1855469,194.5966797c38.046875,0,73.46875-11.2324219,103.328125-30.2783203
				l134.921875,134.9248047l61.40625-61.4023438L752.9511719,441.612793z M588.6386719,446.362793
				c-59.671875,0-108.109375-48.4375-108.109375-108.109375c0-59.6708984,48.4375-108.1083984,108.109375-108.1083984
				s108.109375,48.4375,108.109375,108.1083984C696.7480469,397.925293,648.3105469,446.362793,588.6386719,446.362793z"/>
		</g>
	</g>
</g>
</svg>
