<?xml version="1.0" encoding="utf-8"?>
<!-- Generator: Adobe Illustrator 16.0.0, SVG Export Plug-In . SVG Version: 6.00 Build 0)  -->
<!DOCTYPE svg PUBLIC "-//W3C//DTD SVG 1.1//EN" "http://www.w3.org/Graphics/SVG/1.1/DTD/svg11.dtd">
<svg version="1.1" xmlns="http://www.w3.org/2000/svg" xmlns:xlink="http://www.w3.org/1999/xlink" x="0px" y="0px" width="892px"
	 height="1000.0039062px" viewBox="0 0 892 1000.0039062" enable-background="new 0 0 892 1000.0039062" xml:space="preserve">
<g id="guides">
</g>
<g id="helpers">
</g>
<g id="icons">
	<g>
		<g>
			<path fill="#673695" d="M153.7246094,662.3417969l-19.8144531-14.3945312
				c-8.9570312-6.5087891-14.5996094-23.8730469-11.1777344-34.4072266l9.6328125-29.6474609l-60.6074219-59.078125
				l-21.2070312,65.2724609c-13.6542969,42.0195312,3.0078125,93.2910156,38.75,119.2597656l50.1132812,36.4091797
				L153.7246094,662.3417969z"/>
			<path fill="#673695" d="M820.2402344,524.8144531l-60.609375,59.078125l9.6347656,29.6445312
				c3.421875,10.5371094-2.21875,27.9013672-11.1816406,34.4121094l-19.8085938,14.3925781l14.3085938,83.4160156
				l50.1132812-36.4091797c35.7441406-25.9707031,52.4042969-77.2421875,38.75-119.2617188L820.2402344,524.8144531z"/>
			<path fill="#673695" d="M490.34375,842.4765625l-26.2539062,19.0761719
				c-4.1875,3.0400391-10.953125,4.8574219-18.0917969,4.8574219c-7.1367188,0-13.9023438-1.8173828-18.0898438-4.8574219
				l-26.2539062-19.0761719l-74.9082031,39.3828125l56.5527344,41.0917969
				c17.1777344,12.4794922,39.4453125,19.3535156,62.6992188,19.3535156s45.5214844-6.8740234,62.7011719-19.3535156
				l56.5546875-41.0917969L490.34375,842.4765625z"/>
			<path fill="#673695" d="M229.3789062,285.3144531l5.6484375-17.3876953
				c3.4257812-10.534668,18.1972656-21.2666016,29.2714844-21.2666016h22.4179688l37.4570312-75.8935547h-59.875
				c-44.1816406,0-87.7949219,31.6870117-101.4511719,73.706543l-17.2207031,53.0117188L229.3789062,285.3144531z"/>
			<path fill="#673695" d="M605.28125,246.6601562h22.4199219c11.0761719,0,25.8476562,10.7319336,29.2695312,21.265625
				l5.6503906,17.3896484l83.7519531,12.1694336l-17.2207031-53.0112305
				c-13.6542969-42.0200195-57.2695312-73.7070312-101.4511719-73.7070312h-59.8769531L605.28125,246.6601562z"/>
		</g>
		<g>
			<g>
				<g>
					<path fill="#673695" d="M445.9980469,190.1762695l90.515625,183.4003906
						c3.6513672,7.3984375,13.3183594,14.421875,21.4824219,15.6083984l187.5546875,27.2529297
						c8.1640625,1.1865234,10.0097656,6.8686523,4.1025391,12.6274414L613.9365234,561.3544922
						c-5.9072266,5.7578125-9.6005859,17.1230469-8.2060547,25.2539062l32.0371094,186.7939453
						c1.3945312,8.1308594-3.4394531,11.6435547-10.7421875,7.8037109l-167.75-88.1914062
						c-7.3027344-3.8398438-19.2519531-3.8398438-26.5546875,0l-167.7480469,88.1914062
						c-7.3027344,3.8398438-12.1367188,0.3271484-10.7421875-7.8037109l32.0371094-186.7939453
						c1.3945312-8.1308594-2.2988281-19.4960938-8.2060547-25.2539062L142.3466797,429.0654297
						c-5.9072266-5.7587891-4.0615234-11.440918,4.1025391-12.6274414l187.5527344-27.2529297
						c8.1640625-1.1865234,17.8310547-8.2099609,21.4824219-15.6083984L445.9980469,190.1762695 M452.6367188,68.2441406
						c-3.6513672-7.3984375-9.6259766-7.3984375-13.2773438,0l-40.4511719,81.9643555
						c-3.6513672,7.3979492-9.6259766,19.5039062-13.2773438,26.9023438L315.6953125,318.8125
						c-3.6513672,7.3984375-13.3183594,14.421875-21.4824219,15.6083984L137.8359375,357.144043
						c-8.1640625,1.1865234-21.5234375,3.1279297-29.6875,4.3139648l-90.4550781,13.144043
						c-8.1640625,1.1860352-10.0097656,6.8681641-4.1025391,12.6269531l65.453125,63.8012695
						c5.9072266,5.7587891,15.5751953,15.1816406,21.4824219,20.9404297l113.15625,110.3007812
						c5.9072266,5.7587891,9.6005859,17.1240234,8.2060547,25.2548828l-26.7128906,155.7480469
						c-1.3945312,8.1308594-3.6757812,21.4375-5.0703125,29.5683594l-15.4511719,90.0888672
						c-1.3945312,8.1308594,3.4394531,11.6425781,10.7421875,7.8037109l80.9003906-42.5341797
						c7.3027344-3.8388672,19.2519531-10.1210938,26.5546875-13.9609375l139.8691406-73.5341797
						c7.3027344-3.8398438,19.2519531-3.8398438,26.5546875,0l139.8710938,73.5341797
						c7.3027344,3.8398438,19.2519531,10.1220703,26.5546875,13.9609375l80.9023438,42.5341797
						c7.3027344,3.8388672,12.1367188,0.3271484,10.7412109-7.8037109l-15.4511719-90.0888672
						c-1.3955078-8.1308594-3.6767578-21.4375-5.0712891-29.5683594L670.109375,607.5263672
						c-1.3945312-8.1308594,2.2988281-19.4960938,8.2060547-25.2539062l113.1582031-110.3017578
						c5.9072266-5.7587891,15.5751953-15.1816406,21.4824219-20.9404297l65.453125-63.8012695
						c5.9072266-5.7587891,4.0615234-11.440918-4.1025391-12.6269531l-90.4550781-13.144043
						c-8.1640625-1.1860352-21.5234375-3.1274414-29.6875-4.3139648l-156.3789062-22.7231445
						c-8.1640625-1.1865234-17.8310547-8.2099609-21.4824219-15.6083984l-69.9375-141.7021484
						c-3.6513672-7.3979492-9.6259766-19.5039062-13.2773438-26.9018555L452.6367188,68.2441406z"/>
				</g>
			</g>
		</g>
	</g>
</g>
</svg>
