<?xml version="1.0" encoding="utf-8"?>
<!-- Generator: Adobe Illustrator 16.0.0, SVG Export Plug-In . SVG Version: 6.00 Build 0)  -->
<!DOCTYPE svg PUBLIC "-//W3C//DTD SVG 1.1//EN" "http://www.w3.org/Graphics/SVG/1.1/DTD/svg11.dtd">
<svg version="1.1" xmlns="http://www.w3.org/2000/svg" xmlns:xlink="http://www.w3.org/1999/xlink" x="0px" y="0px"
	 width="828.0566406px" height="1000.0039062px" viewBox="0 0 828.0566406 1000.0039062"
	 enable-background="new 0 0 828.0566406 1000.0039062" xml:space="preserve">
<g id="guides">
</g>
<g id="helpers">
</g>
<g id="icons">
	<g id="icons_1_">
		<path fill="#673994" d="M826.5849609,333.1699219c0-136.7041016-110.7988281-247.5224609-247.5292969-247.5224609
			c-136.7285156,0-247.5703125,110.8183594-247.5703125,247.5224609c0,38.3359375,8.7167969,74.6328125,24.2724609,107.0214844
			l-81.3486328,56.9433594c-28.9228516-25.03125-66.6396484-40.1757812-107.9091797-40.1757812
			c-91.1425781,0-165.0283203,73.8789062-165.0283203,165.0332031c0,91.1503906,73.8857422,164.9804688,165.0283203,164.9804688
			c91.1572266,0,164.9853516-73.8300781,164.9853516-164.9804688c0-20.6875-3.8134766-40.4804688-10.7578125-58.7246094
			L402.125,506.2890625c33.6865234,34.4121094,77.3310547,59.0410156,126.2822266,69.2148438L522.6962891,710.84375
			c-39.3554688,14.53125-67.4179688,52.3769531-67.4179688,96.7773438c0,56.9589844,46.1777344,103.140625,103.1386719,103.140625
			s103.1386719-46.1816406,103.1386719-103.140625c0-40.8554688-23.7617188-76.1621094-58.2148438-92.8613281l5.7324219-135.8808594
			C731.6396484,564.0683594,826.5849609,459.7382812,826.5849609,333.1699219z"/>
	</g>
</g>
</svg>
