<svg viewBox="0 0 24 24"><g><path d="M6 20.25c-.308 0-.598-.061-.86-.17l-.671 1.617C4.94 21.892 5.458 22 6 22h1.5v-1.75H6zM3.92 18.86l-1.616.671A3.988 3.988 0 012 18v-1.5h1.75V18c0 .308.061.598.17.86zM3.75 13.5H2v-3h1.75v3zM3.75 7.5H2V6c0-.542.108-1.06.304-1.531l1.616.67c-.109.263-.17.553-.17.861v1.5zM5.14 3.92l-.671-1.616A3.988 3.988 0 016 2h1.5v1.75H6c-.308 0-.598.061-.86.17zM10.5 3.75V2h3v1.75h-3zM16.5 3.75V2H18c.542 0 1.06.108 1.531.304l-.67 1.616A2.238 2.238 0 0018 3.75h-1.5zM20.08 5.14l1.617-.671C21.892 4.94 22 5.458 22 6v1.5h-1.75V6c0-.308-.061-.598-.17-.86zM20.25 10.5H22v3h-1.75v-3zM20.25 16.5H22V18c0 .542-.108 1.06-.303 1.531l-1.617-.67c.109-.263.17-.553.17-.861v-1.5zM18.86 20.08l.671 1.617A3.988 3.988 0 0118 22h-1.5v-1.75H18c.308 0 .598-.061.86-.17zM13.5 20.25V22h-3v-1.75h3zM14.988 6.504H8.939V17h6.209v-1.136h-4.88v-3.808h3.983V10.92h-3.983V7.624h4.72v-1.12z"/></g></svg>