<svg viewBox="0 0 24 24"><g><path d="M10.2 7.5l-.5.5H6.75v.943c.27-.094.558-.143.85-.143.384 0 .74.085 1.066.234L9.7 8h3.6l4.7 4.7v.65h-1.95L11.5 8.8l-1.534 1.534c.15.325.234.683.234 1.066a2.6 2.6 0 11-4.062-2.15H5c-.24 0-.465.047-.67.132l-.478-1.154c-.734.304-1.32.89-1.624 1.624l1.154.479A1.74 1.74 0 003.25 11v2H2v4h1.25v2a1.754 1.754 0 00.132.67l-1.154.478a3.01 3.01 0 001.624 1.625l.478-1.155c.205.085.43.132.67.132h1.75V22h3.5v-1.25h3.5V22h3.5v-1.25H19a1.765 1.765 0 00.67-.132l.478 1.155a3.01 3.01 0 001.67-1.741l-.02.054a2.644 2.644 0 01-.026.062l-1.154-.479c.085-.204.132-.43.132-.669v-2H22v-4h-1.25v-2c0-.24-.047-.465-.132-.67l1.154-.478a3.01 3.01 0 00-1.624-1.624l-.478 1.154A1.726 1.726 0 0019 9.25h-1.75V8H13.3L9.966 4.666A2.552 2.552 0 0010.2 3.6a2.6 2.6 0 10-2.6 2.6c.384 0 .74-.085 1.066-.234L10.2 7.5zm1.3.325a.325.325 0 110-.65.325.325 0 010 .65zM7.6 4.9a1.3 1.3 0 110-2.6 1.3 1.3 0 010 2.6z"/><path d="M18 1.65h-1.95l-3.9 3.9 1.3 1.3L18 2.3v-.65zM6.68 12.32a1.3 1.3 0 101.84-1.84 1.3 1.3 0 00-1.84 1.84z"/></g></svg>