<svg viewBox="0 0 24 24"><path d="M11.837 1.649c.09-.183.236-.183.326 0l1.029 2.088.327.663 1.772 3.598c.09.182.328.356.529.385l3.963.577.73.106 2.3.335c.202.03.247.17.102.311l-1.665 1.626-.528.516-2.868 2.8a.79.79 0 00-.202.624l.677 3.954.125.73.393 2.294c.034.2-.085.288-.265.193l-2.057-1.084-.653-.344-3.545-1.867a.787.787 0 00-.654 0L8.128 21.02l-.653.344-2.057 1.084c-.18.095-.3.008-.265-.193l.393-2.295.125-.729.677-3.954a.791.791 0 00-.202-.623l-2.868-2.8-.528-.517-1.665-1.626c-.145-.142-.1-.282.101-.31l2.3-.336.73-.106 3.964-.577c.201-.03.439-.203.529-.385L10.48 4.4l.327-.663 1.029-2.088z"/></svg>